OpenSans-CondensedExtraBoldItalic.ufo
<glyph name="exclam" format="2">
  <advance width="530"/>
  <unicode hex="0021"/>
  <outline>
    <contour>
      <point x="113" y="516" type="line"/>
      <point x="397" y="516" type="line"/>
      <point x="643" y="1462" type="line"/>
      <point x="268" y="1462" type="line"/>
    </contour>
    <contour>
      <point x="147" y="-25" type="curve" smooth="yes"/>
      <point x="264" y="-25"/>
      <point x="369" y="72"/>
      <point x="369" y="221" type="curve" smooth="yes"/>
      <point x="369" y="307"/>
      <point x="313" y="358"/>
      <point x="223" y="358" type="curve" smooth="yes"/>
      <point x="70" y="358"/>
      <point x="-12" y="242"/>
      <point x="-12" y="115" type="curve" smooth="yes"/>
      <point x="-12" y="23"/>
      <point x="43" y="-25"/>
    </contour>
  </outline>
</glyph>
<glyph name="quotedbl" format="2">
  <advance width="922"/>
  <unicode hex="0022"/>
  <outline>
    <contour>
      <point x="616" y="934" type="line"/>
      <point x="891" y="934" type="line"/>
      <point x="1040" y="1462" type="line"/>
      <point x="692" y="1462" type="line"/>
    </contour>
    <contour>
      <point x="188" y="934" type="line"/>
      <point x="463" y="934" type="line"/>
      <point x="610" y="1462" type="line"/>
      <point x="264" y="1462" type="line"/>
    </contour>
  </outline>
</glyph>
<glyph name="numbersign" format="2">
  <advance width="1081"/>
  <unicode hex="0023"/>
  <outline>
    <contour>
      <point x="43" y="0" type="line"/>
      <point x="283" y="0" type="line"/>
      <point x="406" y="391" type="line"/>
      <point x="535" y="391" type="line"/>
      <point x="412" y="0" type="line"/>
      <point x="651" y="0" type="line"/>
      <point x="776" y="391" type="line"/>
      <point x="977" y="391" type="line"/>
      <point x="1020" y="625" type="line"/>
      <point x="848" y="625" type="line"/>
      <point x="915" y="834" type="line"/>
      <point x="1104" y="834" type="line"/>
      <point x="1149" y="1073" type="line"/>
      <point x="987" y="1073" type="line"/>
      <point x="1112" y="1462" type="line"/>
      <point x="868" y="1462" type="line"/>
      <point x="745" y="1073" type="line"/>
      <point x="618" y="1073" type="line"/>
      <point x="743" y="1462" type="line"/>
      <point x="502" y="1462" type="line"/>
      <point x="379" y="1073" type="line"/>
      <point x="180" y="1073" type="line"/>
      <point x="137" y="834" type="line"/>
      <point x="307" y="834" type="line"/>
      <point x="238" y="625" type="line"/>
      <point x="51" y="625" type="line"/>
      <point x="8" y="391" type="line"/>
      <point x="166" y="391" type="line"/>
    </contour>
    <contour>
      <point x="479" y="625" type="line"/>
      <point x="547" y="834" type="line"/>
      <point x="674" y="834" type="line"/>
      <point x="606" y="625" type="line"/>
    </contour>
  </outline>
</glyph>
<glyph name="plus" format="2">
  <advance width="1024"/>
  <unicode hex="002B"/>
  <outline>
    <contour>
      <point x="670" y="856" type="line"/>
      <point x="670" y="1223" type="line"/>
      <point x="395" y="1223" type="line"/>
      <point x="395" y="856" type="line"/>
      <point x="90" y="856" type="line"/>
      <point x="90" y="588" type="line"/>
      <point x="395" y="588" type="line"/>
      <point x="395" y="227" type="line"/>
      <point x="670" y="227" type="line"/>
      <point x="670" y="588" type="line"/>
      <point x="975" y="588" type="line"/>
      <point x="975" y="856" type="line"/>
    </contour>
  </outline>
</glyph>
<glyph name="one" format="2">
  <advance width="971"/>
  <unicode hex="0031"/>
  <outline>
    <contour>
      <point x="326" y="0" type="line"/>
      <point x="662" y="0" type="line"/>
      <point x="973" y="1462" type="line"/>
      <point x="672" y="1462" type="line"/>
      <point x="180" y="997" type="line"/>
      <point x="334" y="786" type="line"/>
      <point x="469" y="915" type="line" smooth="yes"/>
      <point x="496" y="940"/>
      <point x="520" y="969"/>
      <point x="543" y="997" type="curve"/>
      <point x="520" y="920"/>
      <point x="508" y="864"/>
      <point x="487" y="770" type="curve" smooth="yes"/>
    </contour>
  </outline>
</glyph>
<glyph name="two" format="2">
  <advance width="971"/>
  <unicode hex="0032"/>
  <outline>
    <contour>
      <point x="-57" y="0" type="line"/>
      <point x="739" y="0" type="line"/>
      <point x="803" y="299" type="line"/>
      <point x="397" y="299" type="line"/>
      <point x="397" y="305" type="line"/>
      <point x="639" y="555" type="line" smooth="yes"/>
      <point x="825" y="748"/>
      <point x="963" y="938"/>
      <point x="963" y="1171" type="curve" smooth="yes"/>
      <point x="963" y="1356"/>
      <point x="827" y="1483"/>
      <point x="637" y="1483" type="curve" smooth="yes"/>
      <point x="477" y="1483"/>
      <point x="336" y="1413"/>
      <point x="199" y="1247" type="curve"/>
      <point x="307" y="1012" type="line"/>
      <point x="377" y="1081"/>
      <point x="477" y="1184"/>
      <point x="553" y="1184" type="curve" smooth="yes"/>
      <point x="596" y="1184"/>
      <point x="612" y="1151"/>
      <point x="612" y="1100" type="curve" smooth="yes"/>
      <point x="612" y="958"/>
      <point x="483" y="793"/>
      <point x="354" y="645" type="curve" smooth="yes"/>
      <point x="-6" y="238" type="line"/>
    </contour>
  </outline>
</glyph>
<glyph name="three" format="2">
  <advance width="971"/>
  <unicode hex="0033"/>
  <outline>
    <contour>
      <point x="295" y="-20" type="curve" smooth="yes"/>
      <point x="627" y="-20"/>
      <point x="860" y="195"/>
      <point x="860" y="489" type="curve" smooth="yes"/>
      <point x="860" y="637"/>
      <point x="791" y="729"/>
      <point x="655" y="764" type="curve"/>
      <point x="655" y="770" type="line"/>
      <point x="850" y="842"/>
      <point x="983" y="995"/>
      <point x="983" y="1194" type="curve" smooth="yes"/>
      <point x="983" y="1409"/>
      <point x="813" y="1483"/>
      <point x="633" y="1483" type="curve" smooth="yes"/>
      <point x="494" y="1483"/>
      <point x="379" y="1454"/>
      <point x="240" y="1352" type="curve"/>
      <point x="301" y="1092" type="line"/>
      <point x="399" y="1161"/>
      <point x="487" y="1188"/>
      <point x="545" y="1188" type="curve" smooth="yes"/>
      <point x="604" y="1188"/>
      <point x="631" y="1161"/>
      <point x="631" y="1104" type="curve" smooth="yes"/>
      <point x="631" y="956"/>
      <point x="528" y="891"/>
      <point x="379" y="891" type="curve" smooth="yes"/>
      <point x="297" y="891" type="line"/>
      <point x="238" y="606" type="line"/>
      <point x="317" y="606" type="line" smooth="yes"/>
      <point x="453" y="606"/>
      <point x="504" y="555"/>
      <point x="504" y="473" type="curve" smooth="yes"/>
      <point x="504" y="342"/>
      <point x="424" y="274"/>
      <point x="299" y="274" type="curve" smooth="yes"/>
      <point x="223" y="274"/>
      <point x="88" y="299"/>
      <point x="-6" y="377" type="curve"/>
      <point x="-6" y="57" type="line"/>
      <point x="102" y="-2"/>
      <point x="170" y="-20"/>
    </contour>
  </outline>
</glyph>
<glyph name="four" format="2">
  <advance width="971"/>
  <unicode hex="0034"/>
  <outline>
    <contour>
      <point x="352" y="0" type="line"/>
      <point x="684" y="0" type="line"/>
      <point x="743" y="283" type="line"/>
      <point x="874" y="283" type="line"/>
      <point x="934" y="563" type="line"/>
      <point x="803" y="563" type="line"/>
      <point x="993" y="1462" type="line"/>
      <point x="674" y="1462" type="line"/>
      <point x="41" y="553" type="line"/>
      <point x="-16" y="283" type="line"/>
      <point x="412" y="283" type="line"/>
    </contour>
    <contour>
      <point x="297" y="563" type="line"/>
      <point x="514" y="891" type="line" smooth="yes"/>
      <point x="522" y="901"/>
      <point x="530" y="918"/>
      <point x="563" y="981" type="curve"/>
      <point x="569" y="981" type="line"/>
      <point x="561" y="948"/>
      <point x="543" y="895"/>
      <point x="537" y="866" type="curve" smooth="yes"/>
      <point x="471" y="563" type="line"/>
    </contour>
  </outline>
</glyph>
<glyph name="nine" format="2">
  <advance width="971"/>
  <unicode hex="0039"/>
  <outline>
    <contour>
      <point x="250" y="-20" type="curve" smooth="yes"/>
      <point x="584" y="-20"/>
      <point x="776" y="252"/>
      <point x="879" y="530" type="curve" smooth="yes"/>
      <point x="950" y="727"/>
      <point x="977" y="928"/>
      <point x="977" y="1036" type="curve" smooth="yes"/>
      <point x="977" y="1319"/>
      <point x="858" y="1483"/>
      <point x="629" y="1483" type="curve" smooth="yes"/>
      <point x="266" y="1483"/>
      <point x="123" y="1075"/>
      <point x="123" y="811" type="curve" smooth="yes"/>
      <point x="123" y="629"/>
      <point x="184" y="487"/>
      <point x="354" y="487" type="curve" smooth="yes"/>
      <point x="440" y="487"/>
      <point x="516" y="537"/>
      <point x="575" y="612" type="curve"/>
      <point x="580" y="612" type="line"/>
      <point x="512" y="393"/>
      <point x="401" y="266"/>
      <point x="233" y="266" type="curve" smooth="yes"/>
      <point x="162" y="266"/>
      <point x="84" y="276"/>
      <point x="25" y="297" type="curve"/>
      <point x="25" y="4" type="line"/>
      <point x="90" y="-10"/>
      <point x="156" y="-20"/>
    </contour>
    <contour>
      <point x="512" y="774" type="curve" smooth="yes"/>
      <point x="481" y="774"/>
      <point x="467" y="805"/>
      <point x="467" y="864" type="curve" smooth="yes"/>
      <point x="467" y="948"/>
      <point x="508" y="1188"/>
      <point x="600" y="1188" type="curve" smooth="yes"/>
      <point x="629" y="1188"/>
      <point x="645" y="1151"/>
      <point x="645" y="1073" type="curve" smooth="yes"/>
      <point x="645" y="1008"/>
      <point x="627" y="905"/>
      <point x="592" y="840" type="curve" smooth="yes"/>
      <point x="571" y="801"/>
      <point x="545" y="774"/>
    </contour>
  </outline>
</glyph>
<glyph name="colon" format="2">
  <advance width="547"/>
  <unicode hex="003A"/>
  <outline>
    <contour>
      <point x="328" y="766" type="curve" smooth="yes"/>
      <point x="442" y="766"/>
      <point x="547" y="862"/>
      <point x="547" y="1012" type="curve" smooth="yes"/>
      <point x="547" y="1098"/>
      <point x="492" y="1149"/>
      <point x="401" y="1149" type="curve" smooth="yes"/>
      <point x="248" y="1149"/>
      <point x="168" y="1030"/>
      <point x="168" y="905" type="curve" smooth="yes"/>
      <point x="168" y="811"/>
      <point x="223" y="766"/>
    </contour>
    <contour>
      <point x="158" y="-25" type="curve" smooth="yes"/>
      <point x="272" y="-25"/>
      <point x="379" y="72"/>
      <point x="379" y="221" type="curve" smooth="yes"/>
      <point x="379" y="307"/>
      <point x="324" y="358"/>
      <point x="231" y="358" type="curve" smooth="yes"/>
      <point x="80" y="358"/>
      <point x="-2" y="242"/>
      <point x="-2" y="115" type="curve" smooth="yes"/>
      <point x="-2" y="23"/>
      <point x="53" y="-25"/>
    </contour>
  </outline>
</glyph>
<glyph name="greater" format="2">
  <advance width="1024"/>
  <unicode hex="003E"/>
  <outline>
    <contour>
      <point x="90" y="524" type="line"/>
      <point x="90" y="229" type="line"/>
      <point x="985" y="653" type="line"/>
      <point x="985" y="825" type="line"/>
      <point x="90" y="1247" type="line"/>
      <point x="90" y="950" type="line"/>
      <point x="594" y="739" type="line"/>
    </contour>
  </outline>
</glyph>
<glyph name="A" format="2">
  <advance width="1090"/>
  <unicode hex="0041"/>
  <anchor x="430" y="0" name="bottom"/>
  <anchor x="727" y="1468" name="top"/>
  <anchor x="1243" y="1462" name="topright"/>
  <outline>
    <contour>
      <point x="-119" y="0" type="line"/>
      <point x="256" y="0" type="line"/>
      <point x="365" y="285" type="line"/>
      <point x="614" y="285" type="line"/>
      <point x="606" y="0" type="line"/>
      <point x="971" y="0" type="line"/>
      <point x="948" y="1468" type="line"/>
      <point x="512" y="1468" type="line"/>
    </contour>
    <contour>
      <point x="477" y="582" type="line"/>
      <point x="604" y="967" type="line" smooth="yes"/>
      <point x="627" y="1034"/>
      <point x="643" y="1092"/>
      <point x="655" y="1163" type="curve"/>
      <point x="662" y="1163" type="line"/>
      <point x="653" y="1087"/>
      <point x="651" y="1026"/>
      <point x="649" y="961" type="curve" smooth="yes"/>
      <point x="633" y="582" type="line"/>
    </contour>
  </outline>
</glyph>
<glyph name="B" format="2">
  <advance width="1059"/>
  <unicode hex="0042"/>
  <anchor x="442" y="0" name="bottom"/>
  <anchor x="725" y="1462" name="top"/>
  <anchor x="1212" y="1462" name="topright"/>
  <outline>
    <contour>
      <point x="-10" y="0" type="line"/>
      <point x="457" y="0" type="line" smooth="yes"/>
      <point x="795" y="0"/>
      <point x="969" y="242"/>
      <point x="969" y="492" type="curve" smooth="yes"/>
      <point x="969" y="623"/>
      <point x="911" y="719"/>
      <point x="823" y="758" type="curve"/>
      <point x="823" y="766" type="line"/>
      <point x="1001" y="827"/>
      <point x="1085" y="977"/>
      <point x="1085" y="1147" type="curve" smooth="yes"/>
      <point x="1085" y="1386"/>
      <point x="895" y="1462"/>
      <point x="696" y="1462" type="curve" smooth="yes"/>
      <point x="299" y="1462" type="line"/>
    </contour>
    <contour>
      <point x="393" y="289" type="line"/>
      <point x="463" y="621" type="line"/>
      <point x="526" y="621" type="line" smooth="yes"/>
      <point x="586" y="621"/>
      <point x="616" y="584"/>
      <point x="616" y="512" type="curve" smooth="yes"/>
      <point x="616" y="395"/>
      <point x="563" y="289"/>
      <point x="455" y="289" type="curve" smooth="yes"/>
    </contour>
    <contour>
      <point x="520" y="893" type="line"/>
      <point x="582" y="1180" type="line"/>
      <point x="631" y="1180" type="line" smooth="yes"/>
      <point x="692" y="1180"/>
      <point x="723" y="1149"/>
      <point x="723" y="1090" type="curve" smooth="yes"/>
      <point x="723" y="993"/>
      <point x="666" y="893"/>
      <point x="575" y="893" type="curve" smooth="yes"/>
    </contour>
  </outline>
</glyph>
<glyph name="F" format="2">
  <advance width="834"/>
  <unicode hex="0046"/>
  <anchor x="303" y="0" name="bottom"/>
  <anchor x="612" y="1462" name="top"/>
  <anchor x="987" y="1462" name="topright"/>
  <outline>
    <contour>
      <point x="-10" y="0" type="line"/>
      <point x="332" y="0" type="line"/>
      <point x="449" y="559" type="line"/>
      <point x="743" y="559" type="line"/>
      <point x="807" y="854" type="line"/>
      <point x="512" y="854" type="line"/>
      <point x="580" y="1167" type="line"/>
      <point x="899" y="1167" type="line"/>
      <point x="961" y="1462" type="line"/>
      <point x="299" y="1462" type="line"/>
    </contour>
  </outline>
</glyph>
<glyph name="I" format="2">
  <advance width="557"/>
  <unicode hex="0049"/>
  <anchor x="164" y="0" name="bottom"/>
  <anchor x="465" y="1462" name="top"/>
  <anchor x="707" y="1462" name="topright"/>
  <outline>
    <contour>
      <point x="-12" y="0" type="line"/>
      <point x="330" y="0" type="line"/>
      <point x="641" y="1462" type="line"/>
      <point x="299" y="1462" type="line"/>
    </contour>
  </outline>
</glyph>
<glyph name="K" format="2">
  <advance width="1049"/>
  <unicode hex="004B"/>
  <anchor x="410" y="0" name="bottom"/>
  <anchor x="719" y="1462" name="top"/>
  <anchor x="1202" y="1462" name="topright"/>
  <outline>
    <contour>
      <point x="-10" y="0" type="line"/>
      <point x="332" y="0" type="line"/>
      <point x="436" y="496" type="line"/>
      <point x="496" y="532" type="line"/>
      <point x="569" y="0" type="line"/>
      <point x="946" y="0" type="line"/>
      <point x="797" y="772" type="line"/>
      <point x="1260" y="1462" type="line"/>
      <point x="883" y="1462" type="line"/>
      <point x="590" y="1014" type="line"/>
      <point x="518" y="874" type="line"/>
      <point x="641" y="1462" type="line"/>
      <point x="299" y="1462" type="line"/>
    </contour>
  </outline>
</glyph>
<glyph name="L" format="2">
  <advance width="819"/>
  <unicode hex="004C"/>
  <anchor x="295" y="0" name="bottom"/>
  <anchor x="485" y="731" name="center"/>
  <anchor x="604" y="1462" name="top"/>
  <anchor x="899" y="1462" name="topright"/>
  <outline>
    <contour>
      <point x="-10" y="0" type="line"/>
      <point x="676" y="0" type="line"/>
      <point x="737" y="299" type="line"/>
      <point x="393" y="299" type="line"/>
      <point x="641" y="1462" type="line"/>
      <point x="299" y="1462" type="line"/>
    </contour>
  </outline>
</glyph>
<glyph name="N" format="2">
  <advance width="1239"/>
  <unicode hex="004E"/>
  <anchor x="506" y="0" name="bottom"/>
  <anchor x="815" y="1462" name="top"/>
  <anchor x="1393" y="1462" name="topright"/>
  <outline>
    <contour>
      <point x="-10" y="0" type="line"/>
      <point x="309" y="0" type="line"/>
      <point x="428" y="555" type="line" smooth="yes"/>
      <point x="442" y="625"/>
      <point x="459" y="735"/>
      <point x="477" y="862" type="curve"/>
      <point x="481" y="862" type="line"/>
      <point x="633" y="0" type="line"/>
      <point x="1014" y="0" type="line"/>
      <point x="1323" y="1462" type="line"/>
      <point x="1001" y="1462" type="line"/>
      <point x="885" y="915" type="line" smooth="yes"/>
      <point x="870" y="844"/>
      <point x="852" y="735"/>
      <point x="836" y="627" type="curve"/>
      <point x="829" y="627" type="line"/>
      <point x="678" y="1462" type="line"/>
      <point x="299" y="1462" type="line"/>
    </contour>
  </outline>
</glyph>
<glyph name="T" format="2">
  <advance width="879"/>
  <unicode hex="0054"/>
  <anchor x="326" y="0" name="bottom"/>
  <anchor x="516" y="731" name="center"/>
  <anchor x="635" y="1462" name="top"/>
  <anchor x="1032" y="1462" name="topright"/>
  <outline>
    <contour>
      <point x="150" y="0" type="line"/>
      <point x="492" y="0" type="line"/>
      <point x="737" y="1161" type="line"/>
      <point x="975" y="1161" type="line"/>
      <point x="1038" y="1462" type="line"/>
      <point x="223" y="1462" type="line"/>
      <point x="160" y="1161" type="line"/>
      <point x="395" y="1161" type="line"/>
    </contour>
  </outline>
</glyph>
<glyph name="V" format="2">
  <advance width="1063"/>
  <unicode hex="0056"/>
  <anchor x="418" y="0" name="bottom"/>
  <anchor x="727" y="1462" name="top"/>
  <anchor x="1217" y="1462" name="topright"/>
  <outline>
    <contour>
      <point x="219" y="0" type="line"/>
      <point x="612" y="0" type="line"/>
      <point x="1251" y="1462" type="line"/>
      <point x="885" y="1462" type="line"/>
      <point x="588" y="717" type="line" smooth="yes"/>
      <point x="553" y="631"/>
      <point x="528" y="551"/>
      <point x="508" y="467" type="curve"/>
      <point x="504" y="467" type="line"/>
      <point x="516" y="571"/>
      <point x="522" y="637"/>
      <point x="524" y="721" type="curve" smooth="yes"/>
      <point x="543" y="1462" type="line"/>
      <point x="190" y="1462" type="line"/>
    </contour>
  </outline>
</glyph>
<glyph name="Z" format="2">
  <advance width="897"/>
  <unicode hex="005A"/>
  <anchor x="334" y="0" name="bottom"/>
  <anchor x="643" y="1462" name="top"/>
  <anchor x="1051" y="1462" name="topright"/>
  <outline>
    <contour>
      <point x="-80" y="0" type="line"/>
      <point x="741" y="0" type="line"/>
      <point x="805" y="299" type="line"/>
      <point x="371" y="299" type="line"/>
      <point x="991" y="1223" type="line"/>
      <point x="1040" y="1462" type="line"/>
      <point x="240" y="1462" type="line"/>
      <point x="178" y="1167" type="line"/>
      <point x="588" y="1167" type="line"/>
      <point x="-31" y="240" type="line"/>
    </contour>
  </outline>
</glyph>
<glyph name="bracketleft" format="2">
  <advance width="588"/>
  <unicode hex="005B"/>
  <outline>
    <contour>
      <point x="-102" y="-344" type="line"/>
      <point x="362" y="-344" type="line"/>
      <point x="418" y="-90" type="line"/>
      <point x="246" y="-90" type="line"/>
      <point x="530" y="1249" type="line"/>
      <point x="702" y="1249" type="line"/>
      <point x="756" y="1503" type="line"/>
      <point x="291" y="1503" type="line"/>
    </contour>
  </outline>
</glyph>
<glyph name="asciicircum" format="2">
  <advance width="952"/>
  <unicode hex="005E"/>
  <outline>
    <contour>
      <point x="-41" y="496" type="line"/>
      <point x="262" y="496" type="line"/>
      <point x="571" y="981" type="line"/>
      <point x="672" y="496" type="line"/>
      <point x="963" y="496" type="line"/>
      <point x="756" y="1462" type="line"/>
      <point x="575" y="1462" type="line"/>
    </contour>
  </outline>
</glyph>
<glyph name="underscore" format="2">
  <advance width="788"/>
  <unicode hex="005F"/>
  <outline>
    <contour>
      <point x="-203" y="-379" type="line"/>
      <point x="592" y="-379" type="line"/>
      <point x="645" y="-133" type="line"/>
      <point x="-152" y="-133" type="line"/>
    </contour>
  </outline>
</glyph>
<glyph name="a" format="2">
  <advance width="997"/>
  <unicode hex="0061"/>
  <anchor x="379" y="0" name="bottom"/>
  <anchor x="621" y="1133" name="top"/>
  <anchor x="1077" y="1133" name="topright"/>
  <outline>
    <contour>
      <point x="264" y="-20" type="curve" smooth="yes"/>
      <point x="369" y="-20"/>
      <point x="432" y="47"/>
      <point x="502" y="135" type="curve"/>
      <point x="510" y="135" type="line"/>
      <point x="518" y="0" type="line"/>
      <point x="784" y="0" type="line"/>
      <point x="1026" y="1133" type="line"/>
      <point x="739" y="1133" type="line"/>
      <point x="686" y="997" type="line"/>
      <point x="680" y="997" type="line"/>
      <point x="639" y="1112"/>
      <point x="563" y="1153"/>
      <point x="477" y="1153" type="curve" smooth="yes"/>
      <point x="166" y="1153"/>
      <point x="29" y="610"/>
      <point x="29" y="319" type="curve" smooth="yes"/>
      <point x="29" y="111"/>
      <point x="119" y="-20"/>
    </contour>
    <contour>
      <point x="412" y="256" type="curve" smooth="yes"/>
      <point x="383" y="256"/>
      <point x="367" y="295"/>
      <point x="367" y="371" type="curve" smooth="yes"/>
      <point x="367" y="516"/>
      <point x="440" y="868"/>
      <point x="545" y="868" type="curve" smooth="yes"/>
      <point x="586" y="868"/>
      <point x="606" y="834"/>
      <point x="606" y="758" type="curve" smooth="yes"/>
      <point x="606" y="719"/>
      <point x="602" y="670"/>
      <point x="573" y="543" type="curve" smooth="yes"/>
      <point x="549" y="426"/>
      <point x="500" y="256"/>
    </contour>
  </outline>
</glyph>
<glyph name="e" format="2">
  <advance width="944"/>
  <unicode hex="0065"/>
  <anchor x="358" y="0" name="bottom"/>
  <anchor x="588" y="1085" name="top"/>
  <anchor x="1018" y="1085" name="topright"/>
  <outline>
    <contour>
      <point x="408" y="-20" type="curve" smooth="yes"/>
      <point x="526" y="-20"/>
      <point x="641" y="2"/>
      <point x="762" y="82" type="curve"/>
      <point x="762" y="326" type="line"/>
      <point x="649" y="262"/>
      <point x="582" y="244"/>
      <point x="483" y="244" type="curve" smooth="yes"/>
      <point x="399" y="244"/>
      <point x="356" y="283"/>
      <point x="356" y="395" type="curve" smooth="yes"/>
      <point x="356" y="414"/>
      <point x="358" y="438"/>
      <point x="362" y="461" type="curve"/>
      <point x="383" y="461" type="line" smooth="yes"/>
      <point x="707" y="461"/>
      <point x="932" y="584"/>
      <point x="932" y="858" type="curve" smooth="yes"/>
      <point x="932" y="1036"/>
      <point x="799" y="1151"/>
      <point x="608" y="1151" type="curve" smooth="yes"/>
      <point x="199" y="1151"/>
      <point x="35" y="715"/>
      <point x="35" y="360" type="curve" smooth="yes"/>
      <point x="35" y="123"/>
      <point x="176" y="-20"/>
    </contour>
    <contour>
      <point x="412" y="694" type="line"/>
      <point x="451" y="836"/>
      <point x="504" y="895"/>
      <point x="561" y="895" type="curve" smooth="yes"/>
      <point x="602" y="895"/>
      <point x="633" y="866"/>
      <point x="633" y="825" type="curve" smooth="yes"/>
      <point x="633" y="750"/>
      <point x="590" y="694"/>
      <point x="416" y="694" type="curve"/>
    </contour>
  </outline>
</glyph>
<glyph name="g" format="2">
  <advance width="976"/>
  <unicode hex="0067"/>
  <note>
g
</note>
  <anchor x="251" y="-492" name="bottom"/>
  <anchor x="578" y="1098" name="top"/>
  <anchor x="1081" y="1085" name="topright"/>
  <outline>
    <contour>
      <point x="242" y="-492" type="curve" smooth="yes"/>
      <point x="602" y="-492"/>
      <point x="816" y="-309"/>
      <point x="816" y="0" type="curve" smooth="yes"/>
      <point x="816" y="141"/>
      <point x="748" y="210"/>
      <point x="570" y="238" type="curve" smooth="yes"/>
      <point x="456" y="256" type="line" smooth="yes"/>
      <point x="398" y="265"/>
      <point x="357" y="280"/>
      <point x="357" y="317" type="curve" smooth="yes"/>
      <point x="357" y="336"/>
      <point x="364" y="350"/>
      <point x="379" y="367" type="curve"/>
      <point x="411" y="358"/>
      <point x="451" y="354"/>
      <point x="495" y="354" type="curve" smooth="yes"/>
      <point x="721" y="354"/>
      <point x="883" y="532"/>
      <point x="903" y="780" type="curve" smooth="yes"/>
      <point x="905" y="810"/>
      <point x="908" y="853"/>
      <point x="908" y="874" type="curve"/>
      <point x="1020" y="926" type="line"/>
      <point x="1071" y="1133" type="line"/>
      <point x="744" y="1133" type="line"/>
      <point x="714" y="1144"/>
      <point x="626" y="1153"/>
      <point x="569" y="1153" type="curve" smooth="yes"/>
      <point x="294" y="1153"/>
      <point x="117" y="969"/>
      <point x="117" y="683" type="curve" smooth="yes"/>
      <point x="117" y="584"/>
      <point x="145" y="506"/>
      <point x="206" y="446" type="curve"/>
      <point x="86" y="383"/>
      <point x="28" y="303"/>
      <point x="28" y="208" type="curve" smooth="yes"/>
      <point x="28" y="155"/>
      <point x="58" y="107"/>
      <point x="92" y="80" type="curve"/>
      <point x="-57" y="16"/>
      <point x="-134" y="-88"/>
      <point x="-134" y="-230" type="curve" smooth="yes"/>
      <point x="-134" y="-394"/>
      <point x="14" y="-492"/>
    </contour>
    <contour>
      <point x="300" y="-238" type="curve" smooth="yes"/>
      <point x="232" y="-238"/>
      <point x="198" y="-212"/>
      <point x="198" y="-162" type="curve" smooth="yes"/>
      <point x="198" y="-98"/>
      <point x="234" y="-49"/>
      <point x="291" y="-33" type="curve"/>
      <point x="369" y="-46" type="line" smooth="yes"/>
      <point x="405" y="-52"/>
      <point x="453" y="-67"/>
      <point x="453" y="-120" type="curve" smooth="yes"/>
      <point x="453" y="-212"/>
      <point x="345" y="-238"/>
    </contour>
    <contour>
      <point x="491" y="598" type="curve" smooth="yes"/>
      <point x="455" y="598"/>
      <point x="436" y="625"/>
      <point x="436" y="677" type="curve" smooth="yes"/>
      <point x="436" y="774"/>
      <point x="487" y="920"/>
      <point x="556" y="920" type="curve" smooth="yes"/>
      <point x="589" y="920"/>
      <point x="607" y="894"/>
      <point x="607" y="841" type="curve" smooth="yes"/>
      <point x="607" y="717"/>
      <point x="551" y="598"/>
    </contour>
  </outline>
</glyph>
<glyph name="k" format="2">
  <advance width="991"/>
  <unicode hex="006B"/>
  <anchor x="381" y="0" name="bottom"/>
  <anchor x="711" y="1556" name="top"/>
  <anchor x="1165" y="1556" name="topright"/>
  <outline>
    <contour>
      <point x="-27" y="0" type="line"/>
      <point x="303" y="0" type="line"/>
      <point x="362" y="311" type="line"/>
      <point x="442" y="379" type="line"/>
      <point x="530" y="0" type="line"/>
      <point x="887" y="0" type="line"/>
      <point x="727" y="643" type="line"/>
      <point x="1106" y="1133" type="line"/>
      <point x="750" y="1133" type="line"/>
      <point x="446" y="725" type="line"/>
      <point x="442" y="725" type="line"/>
      <point x="467" y="805"/>
      <point x="487" y="879"/>
      <point x="504" y="954" type="curve" smooth="yes"/>
      <point x="633" y="1556" type="line"/>
      <point x="305" y="1556" type="line"/>
    </contour>
  </outline>
</glyph>
<glyph name="m" format="2">
  <advance width="1485"/>
  <unicode hex="006D"/>
  <anchor x="629" y="0" name="bottom"/>
  <anchor x="858" y="1133" name="top"/>
  <anchor x="1559" y="1133" name="topright"/>
  <outline>
    <contour>
      <point x="-27" y="0" type="line"/>
      <point x="303" y="0" type="line"/>
      <point x="430" y="600" type="line" smooth="yes"/>
      <point x="451" y="707"/>
      <point x="498" y="858"/>
      <point x="571" y="858" type="curve" smooth="yes"/>
      <point x="602" y="858"/>
      <point x="616" y="836"/>
      <point x="616" y="786" type="curve" smooth="yes"/>
      <point x="616" y="750"/>
      <point x="606" y="688"/>
      <point x="594" y="629" type="curve" smooth="yes"/>
      <point x="461" y="0" type="line"/>
      <point x="788" y="0" type="line"/>
      <point x="915" y="600" type="line" smooth="yes"/>
      <point x="938" y="707"/>
      <point x="977" y="858"/>
      <point x="1055" y="858" type="curve" smooth="yes"/>
      <point x="1087" y="858"/>
      <point x="1102" y="834"/>
      <point x="1102" y="782" type="curve" smooth="yes"/>
      <point x="1102" y="745"/>
      <point x="1094" y="688"/>
      <point x="1081" y="629" type="curve" smooth="yes"/>
      <point x="948" y="0" type="line"/>
      <point x="1276" y="0" type="line"/>
      <point x="1430" y="723" type="line" smooth="yes"/>
      <point x="1444" y="791"/>
      <point x="1452" y="854"/>
      <point x="1452" y="903" type="curve" smooth="yes"/>
      <point x="1452" y="1061"/>
      <point x="1372" y="1153"/>
      <point x="1225" y="1153" type="curve" smooth="yes"/>
      <point x="1126" y="1153"/>
      <point x="1030" y="1098"/>
      <point x="963" y="1014" type="curve"/>
      <point x="956" y="1014" type="line"/>
      <point x="920" y="1108"/>
      <point x="850" y="1153"/>
      <point x="731" y="1153" type="curve" smooth="yes"/>
      <point x="631" y="1153"/>
      <point x="541" y="1094"/>
      <point x="479" y="1004" type="curve"/>
      <point x="471" y="1004" type="line"/>
      <point x="477" y="1133" type="line"/>
      <point x="215" y="1133" type="line"/>
    </contour>
  </outline>
</glyph>
<glyph name="n" format="2">
  <advance width="1006"/>
  <unicode hex="006E"/>
  <anchor x="399" y="0" name="bottom"/>
  <anchor x="633" y="1139" name="top"/>
  <anchor x="1079" y="1126" name="topright"/>
  <outline>
    <contour>
      <point x="-27" y="0" type="line"/>
      <point x="303" y="0" type="line"/>
      <point x="426" y="584" type="line" smooth="yes"/>
      <point x="459" y="735"/>
      <point x="502" y="858"/>
      <point x="573" y="858" type="curve" smooth="yes"/>
      <point x="610" y="858"/>
      <point x="625" y="831"/>
      <point x="625" y="786" type="curve" smooth="yes"/>
      <point x="625" y="750"/>
      <point x="614" y="690"/>
      <point x="602" y="631" type="curve" smooth="yes"/>
      <point x="469" y="0" type="line"/>
      <point x="797" y="0" type="line"/>
      <point x="950" y="723" type="line" smooth="yes"/>
      <point x="965" y="795"/>
      <point x="969" y="846"/>
      <point x="969" y="887" type="curve" smooth="yes"/>
      <point x="969" y="1092"/>
      <point x="844" y="1153"/>
      <point x="723" y="1153" type="curve" smooth="yes"/>
      <point x="627" y="1153"/>
      <point x="545" y="1096"/>
      <point x="479" y="1001" type="curve"/>
      <point x="473" y="1001" type="line"/>
      <point x="477" y="1133" type="line"/>
      <point x="215" y="1133" type="line"/>
    </contour>
  </outline>
</glyph>
<glyph name="q" format="2">
  <advance width="997"/>
  <unicode hex="0071"/>
  <anchor x="281" y="-492" name="bottom"/>
  <anchor x="614" y="1085" name="top"/>
  <anchor x="1071" y="1085" name="topright"/>
  <outline>
    <contour>
      <point x="352" y="-492" type="line"/>
      <point x="680" y="-492" type="line"/>
      <point x="1026" y="1133" type="line"/>
      <point x="739" y="1133" type="line"/>
      <point x="692" y="997" type="line"/>
      <point x="688" y="997" type="line"/>
      <point x="655" y="1108"/>
      <point x="602" y="1153"/>
      <point x="489" y="1153" type="curve" smooth="yes"/>
      <point x="174" y="1153"/>
      <point x="27" y="598"/>
      <point x="27" y="303" type="curve" smooth="yes"/>
      <point x="27" y="98"/>
      <point x="119" y="-20"/>
      <point x="256" y="-20" type="curve" smooth="yes"/>
      <point x="346" y="-20"/>
      <point x="412" y="6"/>
      <point x="481" y="96" type="curve"/>
      <point x="487" y="96" type="line"/>
      <point x="465" y="23"/>
      <point x="446" y="-51"/>
      <point x="438" y="-86" type="curve" smooth="yes"/>
    </contour>
    <contour>
      <point x="416" y="264" type="curve" smooth="yes"/>
      <point x="383" y="264"/>
      <point x="367" y="301"/>
      <point x="367" y="377" type="curve" smooth="yes"/>
      <point x="367" y="535"/>
      <point x="444" y="868"/>
      <point x="543" y="868" type="curve" smooth="yes"/>
      <point x="584" y="868"/>
      <point x="606" y="836"/>
      <point x="606" y="780" type="curve" smooth="yes"/>
      <point x="606" y="602"/>
      <point x="537" y="264"/>
    </contour>
  </outline>
</glyph>
<glyph name="r" format="2">
  <advance width="721"/>
  <unicode hex="0072"/>
  <anchor x="246" y="0" name="bottom"/>
  <anchor x="475" y="1085" name="top"/>
  <anchor x="795" y="1085" name="topright"/>
  <outline>
    <contour>
      <point x="-25" y="0" type="line"/>
      <point x="303" y="0" type="line"/>
      <point x="422" y="569" type="line" smooth="yes"/>
      <point x="446" y="692"/>
      <point x="512" y="797"/>
      <point x="625" y="797" type="curve" smooth="yes"/>
      <point x="662" y="797"/>
      <point x="694" y="791"/>
      <point x="725" y="778" type="curve"/>
      <point x="827" y="1139" type="line"/>
      <point x="786" y="1151"/>
      <point x="762" y="1153"/>
      <point x="735" y="1153" type="curve" smooth="yes"/>
      <point x="618" y="1153"/>
      <point x="551" y="1100"/>
      <point x="477" y="969" type="curve"/>
      <point x="469" y="969" type="line"/>
      <point x="473" y="1133" type="line"/>
      <point x="215" y="1133" type="line"/>
    </contour>
  </outline>
</glyph>
<glyph name="u" format="2">
  <advance width="1006"/>
  <unicode hex="0075"/>
  <anchor x="383" y="0" name="bottom"/>
  <anchor x="625" y="1133" name="top"/>
  <anchor x="1085" y="1133" name="topright"/>
  <outline>
    <contour>
      <point x="285" y="-20" type="curve" smooth="yes"/>
      <point x="383" y="-20"/>
      <point x="465" y="39"/>
      <point x="530" y="131" type="curve"/>
      <point x="537" y="131" type="line"/>
      <point x="532" y="0" type="line"/>
      <point x="795" y="0" type="line"/>
      <point x="1034" y="1133" type="line"/>
      <point x="707" y="1133" type="line"/>
      <point x="582" y="551" type="line" smooth="yes"/>
      <point x="549" y="397"/>
      <point x="506" y="274"/>
      <point x="436" y="274" type="curve" smooth="yes"/>
      <point x="397" y="274"/>
      <point x="385" y="301"/>
      <point x="385" y="346" type="curve" smooth="yes"/>
      <point x="385" y="383"/>
      <point x="393" y="442"/>
      <point x="406" y="504" type="curve" smooth="yes"/>
      <point x="539" y="1133" type="line"/>
      <point x="211" y="1133" type="line"/>
      <point x="57" y="412" type="line" smooth="yes"/>
      <point x="47" y="352"/>
      <point x="39" y="293"/>
      <point x="39" y="246" type="curve" smooth="yes"/>
      <point x="39" y="82"/>
      <point x="125" y="-20"/>
    </contour>
  </outline>
</glyph>
<glyph name="x" format="2">
  <advance width="942"/>
  <unicode hex="0078"/>
  <anchor x="356" y="0" name="bottom"/>
  <anchor x="586" y="1085" name="top"/>
  <anchor x="1016" y="1085" name="topright"/>
  <outline>
    <contour>
      <point x="-109" y="0" type="line"/>
      <point x="252" y="0" type="line"/>
      <point x="416" y="297" type="line"/>
      <point x="461" y="0" type="line"/>
      <point x="815" y="0" type="line"/>
      <point x="682" y="578" type="line"/>
      <point x="1042" y="1133" type="line"/>
      <point x="676" y="1133" type="line"/>
      <point x="528" y="862" type="line"/>
      <point x="492" y="1133" type="line"/>
      <point x="137" y="1133" type="line"/>
      <point x="268" y="578" type="line"/>
    </contour>
  </outline>
</glyph>
<glyph name="z" format="2">
  <advance width="801"/>
  <unicode hex="007A"/>
  <anchor x="287" y="0" name="bottom"/>
  <anchor x="516" y="1085" name="top"/>
  <anchor x="874" y="1085" name="topright"/>
  <outline>
    <contour>
      <point x="-86" y="0" type="line"/>
      <point x="643" y="0" type="line"/>
      <point x="700" y="276" type="line"/>
      <point x="362" y="276" type="line"/>
      <point x="823" y="920" type="line"/>
      <point x="868" y="1133" type="line"/>
      <point x="174" y="1133" type="line"/>
      <point x="115" y="856" type="line"/>
      <point x="434" y="856" type="line"/>
      <point x="-45" y="195" type="line"/>
    </contour>
  </outline>
</glyph>
<glyph name="braceright" format="2">
  <advance width="707"/>
  <unicode hex="007D"/>
  <outline>
    <contour>
      <point x="-119" y="-324" type="line"/>
      <point x="-115" y="-324" type="line" smooth="yes"/>
      <point x="182" y="-324"/>
      <point x="311" y="-283"/>
      <point x="373" y="0" type="curve" smooth="yes"/>
      <point x="424" y="246" type="line" smooth="yes"/>
      <point x="446" y="352"/>
      <point x="520" y="416"/>
      <point x="637" y="418" type="curve"/>
      <point x="696" y="705" type="line"/>
      <point x="573" y="705"/>
      <point x="551" y="741"/>
      <point x="551" y="821" type="curve" smooth="yes"/>
      <point x="551" y="846"/>
      <point x="555" y="866"/>
      <point x="559" y="885" type="curve" smooth="yes"/>
      <point x="594" y="1044" type="line" smooth="yes"/>
      <point x="602" y="1087"/>
      <point x="606" y="1153"/>
      <point x="606" y="1194" type="curve" smooth="yes"/>
      <point x="606" y="1378"/>
      <point x="512" y="1462"/>
      <point x="231" y="1462" type="curve" smooth="yes"/>
      <point x="219" y="1462" type="line"/>
      <point x="160" y="1182" type="line"/>
      <point x="236" y="1182"/>
      <point x="272" y="1151"/>
      <point x="272" y="1094" type="curve" smooth="yes"/>
      <point x="272" y="1079"/>
      <point x="270" y="1063"/>
      <point x="266" y="1044" type="curve" smooth="yes"/>
      <point x="238" y="901" type="line" smooth="yes"/>
      <point x="227" y="858"/>
      <point x="223" y="817"/>
      <point x="223" y="782" type="curve" smooth="yes"/>
      <point x="223" y="690"/>
      <point x="276" y="614"/>
      <point x="403" y="573" type="curve"/>
      <point x="401" y="565" type="line"/>
      <point x="223" y="545"/>
      <point x="135" y="451"/>
      <point x="109" y="324" type="curve" smooth="yes"/>
      <point x="59" y="86" type="line" smooth="yes"/>
      <point x="39" y="-14"/>
      <point x="-18" y="-43"/>
      <point x="-119" y="-43" type="curve"/>
    </contour>
  </outline>
</glyph>
<glyph name="asciitilde" format="2">
  <advance width="1024"/>
  <unicode hex="007E"/>
  <outline>
    <contour>
      <point x="498" y="592" type="curve" smooth="yes"/>
      <point x="586" y="553"/>
      <point x="666" y="528"/>
      <point x="750" y="528" type="curve" smooth="yes"/>
      <point x="844" y="528"/>
      <point x="924" y="563"/>
      <point x="987" y="637" type="curve"/>
      <point x="987" y="918" type="line"/>
      <point x="920" y="842"/>
      <point x="840" y="797"/>
      <point x="780" y="797" type="curve" smooth="yes"/>
      <point x="715" y="797"/>
      <point x="645" y="815"/>
      <point x="567" y="852" type="curve" smooth="yes"/>
      <point x="485" y="889"/>
      <point x="403" y="915"/>
      <point x="315" y="915" type="curve" smooth="yes"/>
      <point x="219" y="915"/>
      <point x="141" y="879"/>
      <point x="78" y="807" type="curve"/>
      <point x="78" y="526" type="line"/>
      <point x="152" y="606"/>
      <point x="221" y="647"/>
      <point x="287" y="647" type="curve" smooth="yes"/>
      <point x="350" y="647"/>
      <point x="420" y="629"/>
    </contour>
  </outline>
</glyph>
<glyph name="exclamdown" format="2">
  <advance width="530"/>
  <unicode hex="00A1"/>
  <outline>
    <contour>
      <point x="-119" y="-369" type="line"/>
      <point x="256" y="-369" type="line"/>
      <point x="420" y="612" type="line"/>
      <point x="133" y="612" type="line"/>
    </contour>
    <contour>
      <point x="309" y="770" type="curve" smooth="yes"/>
      <point x="463" y="770"/>
      <point x="543" y="887"/>
      <point x="543" y="1014" type="curve" smooth="yes"/>
      <point x="543" y="1106"/>
      <point x="487" y="1153"/>
      <point x="383" y="1153" type="curve" smooth="yes"/>
      <point x="268" y="1153"/>
      <point x="164" y="1057"/>
      <point x="164" y="907" type="curve" smooth="yes"/>
      <point x="164" y="819"/>
      <point x="219" y="770"/>
    </contour>
  </outline>
</glyph>
<glyph name="cent" format="2">
  <advance width="971"/>
  <unicode hex="00A2"/>
  <outline>
    <contour>
      <point x="307" y="-20" type="line"/>
      <point x="496" y="-20" type="line"/>
      <point x="537" y="168" type="line"/>
      <point x="606" y="180"/>
      <point x="727" y="209"/>
      <point x="811" y="285" type="curve"/>
      <point x="723" y="510" type="line"/>
      <point x="651" y="463"/>
      <point x="590" y="440"/>
      <point x="537" y="440" type="curve" smooth="yes"/>
      <point x="485" y="440"/>
      <point x="461" y="485"/>
      <point x="461" y="578" type="curve" smooth="yes"/>
      <point x="461" y="760"/>
      <point x="549" y="1049"/>
      <point x="692" y="1049" type="curve" smooth="yes"/>
      <point x="727" y="1049"/>
      <point x="791" y="1018"/>
      <point x="827" y="981" type="curve"/>
      <point x="963" y="1243" type="line"/>
      <point x="915" y="1278"/>
      <point x="852" y="1311"/>
      <point x="782" y="1323" type="curve"/>
      <point x="815" y="1483" type="line"/>
      <point x="629" y="1483" type="line"/>
      <point x="596" y="1323" type="line"/>
      <point x="266" y="1272"/>
      <point x="123" y="842"/>
      <point x="123" y="557" type="curve" smooth="yes"/>
      <point x="123" y="324"/>
      <point x="188" y="201"/>
      <point x="350" y="168" type="curve"/>
    </contour>
  </outline>
</glyph>
<glyph name="sterling" format="2">
  <advance width="971"/>
  <unicode hex="00A3"/>
  <outline>
    <contour>
      <point x="-25" y="0" type="line"/>
      <point x="776" y="0" type="line"/>
      <point x="840" y="299" type="line"/>
      <point x="358" y="299" type="line"/>
      <point x="451" y="354"/>
      <point x="518" y="432"/>
      <point x="537" y="526" type="curve" smooth="yes"/>
      <point x="557" y="629" type="line"/>
      <point x="793" y="629" type="line"/>
      <point x="846" y="879" type="line"/>
      <point x="608" y="879" type="line"/>
      <point x="645" y="1044" type="line" smooth="yes"/>
      <point x="664" y="1135"/>
      <point x="694" y="1182"/>
      <point x="762" y="1182" type="curve" smooth="yes"/>
      <point x="805" y="1182"/>
      <point x="864" y="1161"/>
      <point x="913" y="1124" type="curve"/>
      <point x="1044" y="1399" type="line"/>
      <point x="969" y="1452"/>
      <point x="852" y="1483"/>
      <point x="750" y="1483" type="curve" smooth="yes"/>
      <point x="500" y="1483"/>
      <point x="375" y="1325"/>
      <point x="322" y="1085" type="curve" smooth="yes"/>
      <point x="279" y="879" type="line"/>
      <point x="162" y="879" type="line"/>
      <point x="109" y="629" type="line"/>
      <point x="225" y="629" type="line"/>
      <point x="205" y="524" type="line" smooth="yes"/>
      <point x="180" y="408"/>
      <point x="133" y="344"/>
      <point x="37" y="283" type="curve"/>
    </contour>
  </outline>
</glyph>
<glyph name="currency" format="2">
  <advance width="971"/>
  <unicode hex="00A4"/>
  <outline>
    <contour>
      <point x="862" y="248" type="line"/>
      <point x="1008" y="395" type="line"/>
      <point x="883" y="520" type="line"/>
      <point x="918" y="580"/>
      <point x="934" y="647"/>
      <point x="934" y="723" type="curve" smooth="yes"/>
      <point x="934" y="797"/>
      <point x="915" y="862"/>
      <point x="881" y="924" type="curve"/>
      <point x="1012" y="1055" type="line"/>
      <point x="862" y="1200" type="line"/>
      <point x="731" y="1069" type="line"/>
      <point x="672" y="1106"/>
      <point x="604" y="1124"/>
      <point x="532" y="1124" type="curve" smooth="yes"/>
      <point x="463" y="1124"/>
      <point x="393" y="1108"/>
      <point x="334" y="1071" type="curve"/>
      <point x="205" y="1200" type="line"/>
      <point x="55" y="1051" type="line"/>
      <point x="186" y="922" type="line"/>
      <point x="150" y="856"/>
      <point x="133" y="791"/>
      <point x="133" y="723" type="curve" smooth="yes"/>
      <point x="133" y="649"/>
      <point x="150" y="584"/>
      <point x="186" y="524" type="curve"/>
      <point x="57" y="397" type="line"/>
      <point x="205" y="250" type="line"/>
      <point x="332" y="375" type="line"/>
      <point x="387" y="342"/>
      <point x="457" y="324"/>
      <point x="532" y="324" type="curve" smooth="yes"/>
      <point x="602" y="324"/>
      <point x="672" y="342"/>
      <point x="731" y="375" type="curve"/>
    </contour>
    <contour>
      <point x="532" y="532" type="curve" smooth="yes"/>
      <point x="428" y="532"/>
      <point x="342" y="618"/>
      <point x="342" y="723" type="curve" smooth="yes"/>
      <point x="342" y="829"/>
      <point x="428" y="915"/>
      <point x="532" y="915" type="curve" smooth="yes"/>
      <point x="641" y="915"/>
      <point x="729" y="827"/>
      <point x="729" y="723" type="curve" smooth="yes"/>
      <point x="729" y="618"/>
      <point x="641" y="532"/>
    </contour>
  </outline>
</glyph>
<glyph name="brokenbar" format="2">
  <advance width="803"/>
  <unicode hex="00A6"/>
  <outline>
    <contour>
      <point x="256" y="799" type="line"/>
      <point x="543" y="799" type="line"/>
      <point x="543" y="1579" type="line"/>
      <point x="256" y="1579" type="line"/>
    </contour>
    <contour>
      <point x="256" y="-469" type="line"/>
      <point x="543" y="-469" type="line"/>
      <point x="543" y="311" type="line"/>
      <point x="256" y="311" type="line"/>
    </contour>
  </outline>
</glyph>
<glyph name="dieresis" format="2">
  <advance width="879"/>
  <unicode hex="00A8"/>
  <outline>
    <contour>
      <point x="788" y="1257" type="curve" smooth="yes"/>
      <point x="881" y="1257"/>
      <point x="967" y="1337"/>
      <point x="967" y="1458" type="curve" smooth="yes"/>
      <point x="967" y="1530"/>
      <point x="922" y="1571"/>
      <point x="848" y="1571" type="curve" smooth="yes"/>
      <point x="725" y="1571"/>
      <point x="659" y="1475"/>
      <point x="659" y="1372" type="curve" smooth="yes"/>
      <point x="659" y="1296"/>
      <point x="705" y="1257"/>
    </contour>
    <contour>
      <point x="399" y="1257" type="curve" smooth="yes"/>
      <point x="494" y="1257"/>
      <point x="578" y="1337"/>
      <point x="578" y="1458" type="curve" smooth="yes"/>
      <point x="578" y="1530"/>
      <point x="532" y="1571"/>
      <point x="461" y="1571" type="curve" smooth="yes"/>
      <point x="338" y="1571"/>
      <point x="272" y="1475"/>
      <point x="272" y="1372" type="curve" smooth="yes"/>
      <point x="272" y="1296"/>
      <point x="315" y="1257"/>
    </contour>
  </outline>
</glyph>
<glyph name="copyright" format="2">
  <advance width="1688"/>
  <unicode hex="00A9"/>
  <outline>
    <contour>
      <point x="846" y="-20" type="curve" smooth="yes"/>
      <point x="1292" y="-20"/>
      <point x="1595" y="291"/>
      <point x="1595" y="725" type="curve" smooth="yes"/>
      <point x="1595" y="1167"/>
      <point x="1278" y="1483"/>
      <point x="842" y="1483" type="curve" smooth="yes"/>
      <point x="412" y="1483"/>
      <point x="92" y="1174"/>
      <point x="92" y="735" type="curve" smooth="yes"/>
      <point x="92" y="319"/>
      <point x="381" y="-20"/>
    </contour>
    <contour>
      <point x="850" y="262" type="curve" smooth="yes"/>
      <point x="948" y="262"/>
      <point x="1038" y="283"/>
      <point x="1122" y="326" type="curve"/>
      <point x="1122" y="537" type="line"/>
      <point x="1042" y="492"/>
      <point x="952" y="469"/>
      <point x="872" y="469" type="curve" smooth="yes"/>
      <point x="725" y="469"/>
      <point x="662" y="547"/>
      <point x="662" y="721" type="curve" smooth="yes"/>
      <point x="662" y="909"/>
      <point x="735" y="991"/>
      <point x="864" y="991" type="curve" smooth="yes"/>
      <point x="926" y="991"/>
      <point x="997" y="973"/>
      <point x="1069" y="936" type="curve"/>
      <point x="1161" y="1120" type="line"/>
      <point x="1057" y="1171"/>
      <point x="950" y="1198"/>
      <point x="840" y="1198" type="curve" smooth="yes"/>
      <point x="561" y="1198"/>
      <point x="406" y="1026"/>
      <point x="406" y="733" type="curve" smooth="yes"/>
      <point x="406" y="434"/>
      <point x="569" y="262"/>
    </contour>
    <contour>
      <point x="848" y="131" type="curve" smooth="yes"/>
      <point x="518" y="131"/>
      <point x="264" y="367"/>
      <point x="264" y="727" type="curve" smooth="yes"/>
      <point x="264" y="1069"/>
      <point x="494" y="1331"/>
      <point x="840" y="1331" type="curve" smooth="yes"/>
      <point x="1171" y="1331"/>
      <point x="1423" y="1090"/>
      <point x="1423" y="733" type="curve" smooth="yes"/>
      <point x="1423" y="393"/>
      <point x="1194" y="131"/>
    </contour>
  </outline>
</glyph>
<glyph name="ordfeminine" format="2">
  <advance width="674"/>
  <unicode hex="00AA"/>
  <anchor x="348" y="729" name="bottom"/>
  <anchor x="500" y="1473" name="top"/>
  <outline>
    <contour>
      <point x="348" y="729" type="curve" smooth="yes"/>
      <point x="428" y="729"/>
      <point x="477" y="772"/>
      <point x="510" y="827" type="curve"/>
      <point x="518" y="827" type="line"/>
      <point x="510" y="741" type="line"/>
      <point x="680" y="741" type="line"/>
      <point x="834" y="1462" type="line"/>
      <point x="676" y="1462" type="line"/>
      <point x="639" y="1376" type="line"/>
      <point x="631" y="1376" type="line"/>
      <point x="608" y="1436"/>
      <point x="561" y="1475"/>
      <point x="487" y="1475" type="curve" smooth="yes"/>
      <point x="262" y="1475"/>
      <point x="139" y="1214"/>
      <point x="139" y="1001" type="curve" smooth="yes"/>
      <point x="139" y="791"/>
      <point x="260" y="729"/>
    </contour>
    <contour>
      <point x="403" y="915" type="curve" smooth="yes"/>
      <point x="377" y="915"/>
      <point x="365" y="942"/>
      <point x="365" y="1012" type="curve" smooth="yes"/>
      <point x="365" y="1149"/>
      <point x="414" y="1292"/>
      <point x="483" y="1292" type="curve" smooth="yes"/>
      <point x="512" y="1292"/>
      <point x="526" y="1257"/>
      <point x="526" y="1178" type="curve" smooth="yes"/>
      <point x="526" y="1071"/>
      <point x="479" y="915"/>
    </contour>
  </outline>
</glyph>
<glyph name="logicalnot" format="2">
  <advance width="1024"/>
  <unicode hex="00AC"/>
  <outline>
    <contour>
      <point x="965" y="856" type="line"/>
      <point x="90" y="856" type="line"/>
      <point x="90" y="588" type="line"/>
      <point x="690" y="588" type="line"/>
      <point x="690" y="238" type="line"/>
      <point x="965" y="238" type="line"/>
    </contour>
  </outline>
</glyph>
<glyph name="registered" format="2">
  <advance width="1688"/>
  <unicode hex="00AE"/>
  <outline>
    <contour>
      <point x="510" y="313" type="line"/>
      <point x="762" y="313" type="line"/>
      <point x="762" y="633" type="line"/>
      <point x="815" y="633" type="line"/>
      <point x="942" y="313" type="line"/>
      <point x="1212" y="313" type="line"/>
      <point x="1038" y="676" type="line"/>
      <point x="1139" y="725"/>
      <point x="1180" y="803"/>
      <point x="1180" y="918" type="curve" smooth="yes"/>
      <point x="1180" y="1098"/>
      <point x="1059" y="1188"/>
      <point x="813" y="1188" type="curve" smooth="yes"/>
      <point x="510" y="1188" type="line"/>
    </contour>
    <contour>
      <point x="762" y="809" type="line"/>
      <point x="762" y="993" type="line"/>
      <point x="799" y="993" type="line" smooth="yes"/>
      <point x="891" y="993"/>
      <point x="922" y="971"/>
      <point x="922" y="907" type="curve" smooth="yes"/>
      <point x="922" y="834"/>
      <point x="874" y="809"/>
      <point x="797" y="809" type="curve" smooth="yes"/>
    </contour>
    <contour>
      <point x="846" y="-20" type="curve" smooth="yes"/>
      <point x="1292" y="-20"/>
      <point x="1595" y="291"/>
      <point x="1595" y="725" type="curve" smooth="yes"/>
      <point x="1595" y="1167"/>
      <point x="1278" y="1483"/>
      <point x="842" y="1483" type="curve" smooth="yes"/>
      <point x="412" y="1483"/>
      <point x="92" y="1174"/>
      <point x="92" y="735" type="curve" smooth="yes"/>
      <point x="92" y="319"/>
      <point x="381" y="-20"/>
    </contour>
    <contour>
      <point x="848" y="131" type="curve" smooth="yes"/>
      <point x="518" y="131"/>
      <point x="264" y="367"/>
      <point x="264" y="727" type="curve" smooth="yes"/>
      <point x="264" y="1069"/>
      <point x="494" y="1331"/>
      <point x="840" y="1331" type="curve" smooth="yes"/>
      <point x="1171" y="1331"/>
      <point x="1423" y="1090"/>
      <point x="1423" y="733" type="curve" smooth="yes"/>
      <point x="1423" y="393"/>
      <point x="1194" y="131"/>
    </contour>
  </outline>
</glyph>
<glyph name="acute" format="2">
  <advance width="674"/>
  <unicode hex="00B4"/>
  <anchor x="393" y="1085" name="_top"/>
  <outline>
    <contour>
      <point x="225" y="1241" type="line"/>
      <point x="469" y="1241" type="line"/>
      <point x="524" y="1290"/>
      <point x="739" y="1489"/>
      <point x="801" y="1552" type="curve"/>
      <point x="803" y="1569" type="line"/>
      <point x="440" y="1569" type="line"/>
      <point x="375" y="1462"/>
      <point x="305" y="1364"/>
      <point x="231" y="1264" type="curve"/>
    </contour>
  </outline>
</glyph>
<glyph name="cedilla" format="2">
  <advance width="293"/>
  <unicode hex="00B8"/>
  <outline>
    <contour>
      <point x="-96" y="-492" type="curve" smooth="yes"/>
      <point x="59" y="-492"/>
      <point x="188" y="-428"/>
      <point x="188" y="-236" type="curve" smooth="yes"/>
      <point x="188" y="-137"/>
      <point x="125" y="-82"/>
      <point x="43" y="-70" type="curve"/>
      <point x="84" y="0" type="line"/>
      <point x="-72" y="0" type="line"/>
      <point x="-172" y="-170" type="line"/>
      <point x="-104" y="-170"/>
      <point x="-68" y="-197"/>
      <point x="-68" y="-236" type="curve" smooth="yes"/>
      <point x="-68" y="-283"/>
      <point x="-96" y="-305"/>
      <point x="-150" y="-305" type="curve" smooth="yes"/>
      <point x="-188" y="-305"/>
      <point x="-231" y="-297"/>
      <point x="-264" y="-289" type="curve"/>
      <point x="-264" y="-469" type="line"/>
      <point x="-209" y="-487"/>
      <point x="-154" y="-492"/>
    </contour>
  </outline>
</glyph>
<glyph name="AE" format="2">
  <advance width="1409"/>
  <unicode hex="00C6"/>
  <anchor x="590" y="0" name="bottom"/>
  <anchor x="899" y="1462" name="top"/>
  <outline>
    <contour>
      <point x="-127" y="0" type="line"/>
      <point x="242" y="0" type="line"/>
      <point x="375" y="285" type="line"/>
      <point x="606" y="285" type="line"/>
      <point x="545" y="0" type="line"/>
      <point x="1204" y="0" type="line"/>
      <point x="1268" y="299" type="line"/>
      <point x="946" y="299" type="line"/>
      <point x="1012" y="608" type="line"/>
      <point x="1309" y="608" type="line"/>
      <point x="1372" y="903" type="line"/>
      <point x="1075" y="903" type="line"/>
      <point x="1130" y="1167" type="line"/>
      <point x="1452" y="1167" type="line"/>
      <point x="1513" y="1462" type="line"/>
      <point x="592" y="1462" type="line"/>
    </contour>
    <contour>
      <point x="510" y="584" type="line"/>
      <point x="774" y="1167" type="line"/>
      <point x="793" y="1167" type="line"/>
      <point x="670" y="584" type="line"/>
    </contour>
  </outline>
</glyph>
<glyph name="Eth" format="2">
  <advance width="1112"/>
  <unicode hex="00D0"/>
  <anchor x="442" y="0" name="bottom"/>
  <anchor x="752" y="1462" name="top"/>
  <outline>
    <contour>
      <point x="-10" y="0" type="line"/>
      <point x="365" y="0" type="line" smooth="yes"/>
      <point x="872" y="0"/>
      <point x="1114" y="524"/>
      <point x="1114" y="997" type="curve" smooth="yes"/>
      <point x="1114" y="1286"/>
      <point x="948" y="1462"/>
      <point x="635" y="1462" type="curve" smooth="yes"/>
      <point x="299" y="1462" type="line"/>
      <point x="178" y="887" type="line"/>
      <point x="70" y="887" type="line"/>
      <point x="14" y="631" type="line"/>
      <point x="123" y="631" type="line"/>
    </contour>
    <contour>
      <point x="395" y="303" type="line"/>
      <point x="463" y="631" type="line"/>
      <point x="594" y="631" type="line"/>
      <point x="647" y="887" type="line"/>
      <point x="518" y="887" type="line"/>
      <point x="578" y="1161" type="line"/>
      <point x="606" y="1161" type="line" smooth="yes"/>
      <point x="705" y="1161"/>
      <point x="754" y="1098"/>
      <point x="754" y="961" type="curve" smooth="yes"/>
      <point x="754" y="770"/>
      <point x="670" y="303"/>
      <point x="416" y="303" type="curve" smooth="yes"/>
    </contour>
  </outline>
</glyph>
<glyph name="multiply" format="2">
  <advance width="1024"/>
  <unicode hex="00D7"/>
  <outline>
    <contour>
      <point x="782" y="1159" type="line"/>
      <point x="528" y="913" type="line"/>
      <point x="276" y="1159" type="line"/>
      <point x="96" y="971" type="line"/>
      <point x="342" y="723" type="line"/>
      <point x="98" y="475" type="line"/>
      <point x="276" y="289" type="line"/>
      <point x="528" y="537" type="line"/>
      <point x="782" y="287" type="line"/>
      <point x="967" y="471" type="line"/>
      <point x="717" y="723" type="line"/>
      <point x="971" y="977" type="line"/>
    </contour>
  </outline>
</glyph>
<glyph name="Oslash" format="2">
  <advance width="1176"/>
  <unicode hex="00D8"/>
  <anchor x="473" y="0" name="bottom"/>
  <anchor x="782" y="1462" name="top"/>
  <outline>
    <contour>
      <point x="176" y="-117" type="line"/>
      <point x="268" y="27" type="line"/>
      <point x="330" y="-6"/>
      <point x="406" y="-20"/>
      <point x="498" y="-20" type="curve" smooth="yes"/>
      <point x="983" y="-20"/>
      <point x="1176" y="598"/>
      <point x="1176" y="991" type="curve" smooth="yes"/>
      <point x="1176" y="1122"/>
      <point x="1155" y="1229"/>
      <point x="1110" y="1309" type="curve"/>
      <point x="1217" y="1470" type="line"/>
      <point x="1069" y="1556" type="line"/>
      <point x="989" y="1434" type="line"/>
      <point x="928" y="1466"/>
      <point x="850" y="1485"/>
      <point x="756" y="1485" type="curve" smooth="yes"/>
      <point x="315" y="1485"/>
      <point x="72" y="936"/>
      <point x="72" y="475" type="curve" smooth="yes"/>
      <point x="72" y="334"/>
      <point x="94" y="223"/>
      <point x="143" y="145" type="curve"/>
      <point x="29" y="-31" type="line"/>
    </contour>
    <contour>
      <point x="522" y="285" type="curve" smooth="yes"/>
      <point x="492" y="285"/>
      <point x="469" y="295"/>
      <point x="453" y="324" type="curve"/>
      <point x="811" y="874" type="line"/>
      <point x="809" y="856"/>
      <point x="807" y="838"/>
      <point x="803" y="817" type="curve" smooth="yes"/>
      <point x="768" y="575"/>
      <point x="670" y="285"/>
    </contour>
    <contour>
      <point x="434" y="567" type="line"/>
      <point x="436" y="594"/>
      <point x="440" y="621"/>
      <point x="444" y="649" type="curve" smooth="yes"/>
      <point x="479" y="891"/>
      <point x="580" y="1186"/>
      <point x="727" y="1186" type="curve" smooth="yes"/>
      <point x="760" y="1186"/>
      <point x="784" y="1167"/>
      <point x="801" y="1128" type="curve"/>
    </contour>
  </outline>
</glyph>
<glyph name="germandbls" format="2">
  <advance width="1122"/>
  <unicode hex="00DF"/>
  <anchor x="342" y="-492" name="bottom"/>
  <anchor x="778" y="1567" name="top"/>
  <outline>
    <contour>
      <point x="-106" y="-492" type="curve" smooth="yes"/>
      <point x="139" y="-492"/>
      <point x="227" y="-348"/>
      <point x="281" y="-92" type="curve" smooth="yes"/>
      <point x="526" y="1059" type="line" smooth="yes"/>
      <point x="561" y="1212"/>
      <point x="614" y="1290"/>
      <point x="702" y="1290" type="curve" smooth="yes"/>
      <point x="758" y="1290"/>
      <point x="782" y="1251"/>
      <point x="782" y="1204" type="curve" smooth="yes"/>
      <point x="782" y="1116"/>
      <point x="735" y="1067"/>
      <point x="659" y="999" type="curve" smooth="yes"/>
      <point x="563" y="911"/>
      <point x="502" y="815"/>
      <point x="502" y="711" type="curve" smooth="yes"/>
      <point x="502" y="635"/>
      <point x="522" y="586"/>
      <point x="586" y="508" type="curve" smooth="yes"/>
      <point x="666" y="406"/>
      <point x="688" y="385"/>
      <point x="688" y="342" type="curve" smooth="yes"/>
      <point x="688" y="301"/>
      <point x="664" y="264"/>
      <point x="610" y="264" type="curve" smooth="yes"/>
      <point x="557" y="264"/>
      <point x="485" y="283"/>
      <point x="420" y="346" type="curve"/>
      <point x="356" y="41" type="line"/>
      <point x="430" y="-6"/>
      <point x="516" y="-20"/>
      <point x="606" y="-20" type="curve" smooth="yes"/>
      <point x="852" y="-20"/>
      <point x="1032" y="135"/>
      <point x="1032" y="377" type="curve" smooth="yes"/>
      <point x="1032" y="510"/>
      <point x="983" y="573"/>
      <point x="913" y="645" type="curve" smooth="yes"/>
      <point x="868" y="692"/>
      <point x="848" y="731"/>
      <point x="848" y="762" type="curve" smooth="yes"/>
      <point x="848" y="856"/>
      <point x="918" y="899"/>
      <point x="991" y="963" type="curve" smooth="yes"/>
      <point x="1081" y="1049"/>
      <point x="1122" y="1133"/>
      <point x="1122" y="1262" type="curve" smooth="yes"/>
      <point x="1122" y="1442"/>
      <point x="981" y="1567"/>
      <point x="717" y="1567" type="curve" smooth="yes"/>
      <point x="434" y="1567"/>
      <point x="266" y="1380"/>
      <point x="207" y="1100" type="curve" smooth="yes"/>
      <point x="-39" y="-66" type="line" smooth="yes"/>
      <point x="-61" y="-174"/>
      <point x="-94" y="-205"/>
      <point x="-156" y="-205" type="curve" smooth="yes"/>
      <point x="-180" y="-205"/>
      <point x="-233" y="-197"/>
      <point x="-258" y="-184" type="curve"/>
      <point x="-258" y="-469" type="line"/>
      <point x="-203" y="-489"/>
      <point x="-156" y="-492"/>
    </contour>
  </outline>
</glyph>
<glyph name="oslash" format="2">
  <advance width="981"/>
  <unicode hex="00F8"/>
  <anchor x="377" y="0" name="bottom"/>
  <anchor x="606" y="1085" name="top"/>
  <outline>
    <contour>
      <point x="131" y="-131" type="line"/>
      <point x="227" y="14" type="line"/>
      <point x="274" y="-8"/>
      <point x="332" y="-20"/>
      <point x="395" y="-20" type="curve" smooth="yes"/>
      <point x="791" y="-20"/>
      <point x="946" y="442"/>
      <point x="946" y="762" type="curve" smooth="yes"/>
      <point x="946" y="858"/>
      <point x="924" y="940"/>
      <point x="885" y="1006" type="curve"/>
      <point x="977" y="1145" type="line"/>
      <point x="836" y="1233" type="line"/>
      <point x="760" y="1118" type="line"/>
      <point x="713" y="1141"/>
      <point x="657" y="1153"/>
      <point x="594" y="1153" type="curve" smooth="yes"/>
      <point x="182" y="1153"/>
      <point x="37" y="668"/>
      <point x="37" y="371" type="curve" smooth="yes"/>
      <point x="37" y="270"/>
      <point x="59" y="188"/>
      <point x="100" y="125" type="curve"/>
      <point x="-10" y="-43" type="line"/>
    </contour>
    <contour>
      <point x="430" y="242" type="curve" smooth="yes"/>
      <point x="410" y="242"/>
      <point x="389" y="254"/>
      <point x="375" y="272" type="curve"/>
      <point x="629" y="657" type="line"/>
      <point x="627" y="645"/>
      <point x="625" y="631"/>
      <point x="623" y="616" type="curve" smooth="yes"/>
      <point x="596" y="446"/>
      <point x="526" y="242"/>
    </contour>
    <contour>
      <point x="354" y="467" type="line"/>
      <point x="356" y="485"/>
      <point x="360" y="504"/>
      <point x="362" y="522" type="curve" smooth="yes"/>
      <point x="395" y="692"/>
      <point x="471" y="891"/>
      <point x="555" y="891" type="curve" smooth="yes"/>
      <point x="580" y="891"/>
      <point x="598" y="879"/>
      <point x="612" y="858" type="curve"/>
    </contour>
  </outline>
</glyph>
<glyph name="thorn" format="2">
  <advance width="997"/>
  <unicode hex="00FE"/>
  <anchor x="281" y="-492" name="bottom"/>
  <anchor x="715" y="1559" name="top"/>
  <outline>
    <contour>
      <point x="-129" y="-492" type="line"/>
      <point x="197" y="-492" type="line"/>
      <point x="289" y="-61" type="line" smooth="yes"/>
      <point x="295" y="-27"/>
      <point x="307" y="43"/>
      <point x="315" y="119" type="curve"/>
      <point x="322" y="119" type="line"/>
      <point x="358" y="31"/>
      <point x="430" y="-20"/>
      <point x="520" y="-20" type="curve" smooth="yes"/>
      <point x="817" y="-20"/>
      <point x="971" y="485"/>
      <point x="971" y="811" type="curve" smooth="yes"/>
      <point x="971" y="1044"/>
      <point x="879" y="1153"/>
      <point x="735" y="1153" type="curve" smooth="yes"/>
      <point x="643" y="1153"/>
      <point x="571" y="1110"/>
      <point x="526" y="1051" type="curve"/>
      <point x="518" y="1051" type="line"/>
      <point x="528" y="1085"/>
      <point x="535" y="1114"/>
      <point x="545" y="1153" type="curve"/>
      <point x="631" y="1559" type="line"/>
      <point x="305" y="1559" type="line"/>
    </contour>
    <contour>
      <point x="455" y="264" type="curve" smooth="yes"/>
      <point x="414" y="264"/>
      <point x="393" y="299"/>
      <point x="393" y="375" type="curve" smooth="yes"/>
      <point x="393" y="422"/>
      <point x="403" y="500"/>
      <point x="420" y="580" type="curve" smooth="yes"/>
      <point x="453" y="723"/>
      <point x="512" y="877"/>
      <point x="588" y="877" type="curve" smooth="yes"/>
      <point x="616" y="877"/>
      <point x="633" y="840"/>
      <point x="633" y="762" type="curve" smooth="yes"/>
      <point x="633" y="604"/>
      <point x="557" y="264"/>
    </contour>
  </outline>
</glyph>
<glyph name="hbar" format="2">
  <advance width="1006"/>
  <unicode hex="0127"/>
  <anchor x="389" y="0" name="bottom"/>
  <anchor x="719" y="1556" name="top"/>
  <outline>
    <contour>
      <point x="-27" y="0" type="line"/>
      <point x="303" y="0" type="line"/>
      <point x="428" y="588" type="line" smooth="yes"/>
      <point x="461" y="743"/>
      <point x="498" y="811"/>
      <point x="559" y="811" type="curve" smooth="yes"/>
      <point x="592" y="811"/>
      <point x="612" y="788"/>
      <point x="612" y="739" type="curve" smooth="yes"/>
      <point x="612" y="690"/>
      <point x="604" y="639"/>
      <point x="592" y="584" type="curve" smooth="yes"/>
      <point x="469" y="0" type="line"/>
      <point x="797" y="0" type="line"/>
      <point x="940" y="676" type="line" smooth="yes"/>
      <point x="950" y="729"/>
      <point x="958" y="788"/>
      <point x="958" y="836" type="curve" smooth="yes"/>
      <point x="958" y="999"/>
      <point x="872" y="1106"/>
      <point x="725" y="1106" type="curve" smooth="yes"/>
      <point x="623" y="1106"/>
      <point x="555" y="1061"/>
      <point x="494" y="979" type="curve"/>
      <point x="487" y="979" type="line"/>
      <point x="510" y="1030"/>
      <point x="530" y="1079"/>
      <point x="551" y="1176" type="curve"/>
      <point x="715" y="1176" type="line"/>
      <point x="764" y="1409" type="line"/>
      <point x="600" y="1409" type="line"/>
      <point x="633" y="1556" type="line"/>
      <point x="305" y="1556" type="line"/>
      <point x="272" y="1409" type="line"/>
      <point x="166" y="1409" type="line"/>
      <point x="117" y="1176" type="line"/>
      <point x="223" y="1176" type="line"/>
    </contour>
  </outline>
</glyph>
<glyph name="eng" format="2">
  <advance width="1006"/>
  <unicode hex="014B"/>
  <anchor x="285" y="-492" name="bottom"/>
  <anchor x="633" y="1139" name="top"/>
  <anchor x="1079" y="1126" name="topright"/>
  <outline>
    <contour>
      <point x="387" y="-492" type="curve" smooth="yes"/>
      <point x="594" y="-492"/>
      <point x="711" y="-399"/>
      <point x="776" y="-92" type="curve" smooth="yes"/>
      <point x="950" y="723" type="line"/>
      <point x="965" y="795"/>
      <point x="969" y="846"/>
      <point x="969" y="887" type="curve" smooth="yes"/>
      <point x="969" y="1092"/>
      <point x="844" y="1153"/>
      <point x="723" y="1153" type="curve" smooth="yes"/>
      <point x="627" y="1153"/>
      <point x="545" y="1096"/>
      <point x="479" y="1001" type="curve"/>
      <point x="473" y="1001" type="line"/>
      <point x="477" y="1133" type="line"/>
      <point x="215" y="1133" type="line"/>
      <point x="-27" y="0" type="line"/>
      <point x="303" y="0" type="line"/>
      <point x="436" y="629" type="line" smooth="yes"/>
      <point x="459" y="735"/>
      <point x="502" y="858"/>
      <point x="573" y="858" type="curve" smooth="yes"/>
      <point x="610" y="858"/>
      <point x="625" y="831"/>
      <point x="625" y="786" type="curve" smooth="yes"/>
      <point x="625" y="750"/>
      <point x="614" y="690"/>
      <point x="602" y="631" type="curve" smooth="yes"/>
      <point x="457" y="-66" type="line" smooth="yes"/>
      <point x="436" y="-168"/>
      <point x="414" y="-205"/>
      <point x="340" y="-205" type="curve" smooth="yes"/>
      <point x="315" y="-205"/>
      <point x="262" y="-197"/>
      <point x="238" y="-184" type="curve"/>
      <point x="238" y="-469" type="line"/>
      <point x="272" y="-483"/>
      <point x="319" y="-492"/>
    </contour>
  </outline>
</glyph>
<glyph name="oe" format="2">
  <advance width="1468"/>
  <unicode hex="0153"/>
  <anchor x="621" y="0" name="bottom"/>
  <anchor x="850" y="1085" name="top"/>
  <outline>
    <contour>
      <point x="365" y="-20" type="curve" smooth="yes"/>
      <point x="489" y="-20"/>
      <point x="586" y="29"/>
      <point x="659" y="104" type="curve"/>
      <point x="713" y="25"/>
      <point x="801" y="-20"/>
      <point x="930" y="-20" type="curve" smooth="yes"/>
      <point x="1051" y="-20"/>
      <point x="1169" y="14"/>
      <point x="1284" y="82" type="curve"/>
      <point x="1284" y="326" type="line"/>
      <point x="1206" y="279"/>
      <point x="1104" y="244"/>
      <point x="1008" y="244" type="curve" smooth="yes"/>
      <point x="924" y="244"/>
      <point x="879" y="283"/>
      <point x="879" y="395" type="curve" smooth="yes"/>
      <point x="879" y="414"/>
      <point x="881" y="438"/>
      <point x="885" y="461" type="curve"/>
      <point x="905" y="461" type="line" smooth="yes"/>
      <point x="1229" y="461"/>
      <point x="1456" y="584"/>
      <point x="1456" y="858" type="curve" smooth="yes"/>
      <point x="1456" y="1036"/>
      <point x="1321" y="1151"/>
      <point x="1130" y="1151" type="curve" smooth="yes"/>
      <point x="1024" y="1151"/>
      <point x="905" y="1108"/>
      <point x="825" y="1032" type="curve"/>
      <point x="770" y="1108"/>
      <point x="711" y="1153"/>
      <point x="573" y="1153" type="curve" smooth="yes"/>
      <point x="164" y="1153"/>
      <point x="37" y="637"/>
      <point x="37" y="371" type="curve" smooth="yes"/>
      <point x="37" y="127"/>
      <point x="170" y="-20"/>
    </contour>
    <contour>
      <point x="434" y="256" type="curve" smooth="yes"/>
      <point x="387" y="256"/>
      <point x="367" y="297"/>
      <point x="367" y="369" type="curve" smooth="yes"/>
      <point x="367" y="543"/>
      <point x="453" y="877"/>
      <point x="551" y="877" type="curve" smooth="yes"/>
      <point x="598" y="877"/>
      <point x="616" y="838"/>
      <point x="616" y="762" type="curve" smooth="yes"/>
      <point x="616" y="594"/>
      <point x="539" y="256"/>
    </contour>
    <contour>
      <point x="936" y="694" type="line"/>
      <point x="936" y="770"/>
      <point x="1012" y="895"/>
      <point x="1083" y="895" type="curve" smooth="yes"/>
      <point x="1124" y="895"/>
      <point x="1155" y="866"/>
      <point x="1155" y="825" type="curve" smooth="yes"/>
      <point x="1155" y="752"/>
      <point x="1116" y="694"/>
      <point x="944" y="694" type="curve"/>
    </contour>
  </outline>
</glyph>
<glyph name="tbar" format="2">
  <advance width="700"/>
  <unicode hex="0167"/>
  <anchor x="236" y="0" name="bottom"/>
  <anchor x="522" y="1360" name="top"/>
  <outline>
    <contour>
      <point x="319" y="-20" type="curve" smooth="yes"/>
      <point x="395" y="-20"/>
      <point x="516" y="-6"/>
      <point x="592" y="35" type="curve"/>
      <point x="592" y="297" type="line"/>
      <point x="541" y="274"/>
      <point x="487" y="266"/>
      <point x="467" y="266" type="curve" smooth="yes"/>
      <point x="426" y="266"/>
      <point x="412" y="283"/>
      <point x="412" y="324" type="curve" smooth="yes"/>
      <point x="412" y="338"/>
      <point x="416" y="358"/>
      <point x="420" y="377" type="curve" smooth="yes"/>
      <point x="434" y="451" type="line"/>
      <point x="606" y="451" type="line"/>
      <point x="657" y="682" type="line"/>
      <point x="483" y="682" type="line"/>
      <point x="522" y="860" type="line"/>
      <point x="715" y="860" type="line"/>
      <point x="772" y="1133" type="line"/>
      <point x="580" y="1133" type="line"/>
      <point x="629" y="1360" type="line"/>
      <point x="397" y="1360" type="line"/>
      <point x="283" y="1122" type="line"/>
      <point x="127" y="1030" type="line"/>
      <point x="92" y="860" type="line"/>
      <point x="195" y="860" type="line"/>
      <point x="158" y="682" type="line"/>
      <point x="61" y="682" type="line"/>
      <point x="12" y="451" type="line"/>
      <point x="106" y="451" type="line"/>
      <point x="102" y="424" type="line" smooth="yes"/>
      <point x="86" y="346"/>
      <point x="80" y="293"/>
      <point x="80" y="244" type="curve" smooth="yes"/>
      <point x="80" y="92"/>
      <point x="141" y="-20"/>
    </contour>
  </outline>
</glyph>
<glyph name="uni0180" format="2">
  <advance width="997"/>
  <unicode hex="0180"/>
  <anchor x="385" y="0" name="bottom"/>
  <anchor x="715" y="1556" name="top"/>
  <outline>
    <contour>
      <point x="510" y="-20" type="curve" smooth="yes"/>
      <point x="803" y="-20"/>
      <point x="973" y="463"/>
      <point x="973" y="817" type="curve" smooth="yes"/>
      <point x="973" y="1024"/>
      <point x="881" y="1153"/>
      <point x="743" y="1153" type="curve" smooth="yes"/>
      <point x="653" y="1153"/>
      <point x="586" y="1126"/>
      <point x="516" y="1036" type="curve"/>
      <point x="512" y="1036" type="line"/>
      <point x="528" y="1083"/>
      <point x="539" y="1126"/>
      <point x="551" y="1176" type="curve"/>
      <point x="694" y="1176" type="line"/>
      <point x="745" y="1409" type="line"/>
      <point x="602" y="1409" type="line"/>
      <point x="633" y="1556" type="line"/>
      <point x="305" y="1556" type="line"/>
      <point x="274" y="1409" type="line"/>
      <point x="162" y="1409" type="line"/>
      <point x="113" y="1176" type="line"/>
      <point x="223" y="1176" type="line"/>
      <point x="-27" y="0" type="line"/>
      <point x="240" y="0" type="line"/>
      <point x="299" y="117" type="line"/>
      <point x="305" y="117" type="line"/>
      <point x="348" y="29"/>
      <point x="416" y="-20"/>
    </contour>
    <contour>
      <point x="455" y="256" type="curve" smooth="yes"/>
      <point x="414" y="256"/>
      <point x="393" y="291"/>
      <point x="393" y="367" type="curve" smooth="yes"/>
      <point x="393" y="559"/>
      <point x="481" y="868"/>
      <point x="584" y="868" type="curve" smooth="yes"/>
      <point x="616" y="868"/>
      <point x="633" y="831"/>
      <point x="633" y="756" type="curve" smooth="yes"/>
      <point x="633" y="600"/>
      <point x="541" y="256"/>
    </contour>
  </outline>
</glyph>
<glyph name="uni0181" format="2">
  <advance width="1366"/>
  <unicode hex="0181"/>
  <anchor x="571" y="0" name="bottom"/>
  <anchor x="881" y="1462" name="top"/>
  <outline>
    <contour>
      <point x="303" y="0" type="line"/>
      <point x="770" y="0" type="line" smooth="yes"/>
      <point x="1067" y="0"/>
      <point x="1282" y="238"/>
      <point x="1282" y="524" type="curve" smooth="yes"/>
      <point x="1282" y="629"/>
      <point x="1233" y="727"/>
      <point x="1135" y="766" type="curve"/>
      <point x="1137" y="776" type="line"/>
      <point x="1315" y="842"/>
      <point x="1399" y="995"/>
      <point x="1399" y="1174" type="curve" smooth="yes"/>
      <point x="1399" y="1397"/>
      <point x="1190" y="1462"/>
      <point x="1010" y="1462" type="curve" smooth="yes"/>
      <point x="514" y="1462" type="line" smooth="yes"/>
      <point x="301" y="1462"/>
      <point x="150" y="1331"/>
      <point x="150" y="1124" type="curve" smooth="yes"/>
      <point x="150" y="1073"/>
      <point x="158" y="1026"/>
      <point x="170" y="1004" type="curve"/>
      <point x="455" y="1004" type="line"/>
      <point x="442" y="1028"/>
      <point x="436" y="1067"/>
      <point x="436" y="1094" type="curve" smooth="yes"/>
      <point x="436" y="1155"/>
      <point x="461" y="1180"/>
      <point x="530" y="1180" type="curve" smooth="yes"/>
      <point x="553" y="1180" type="line"/>
    </contour>
    <contour>
      <point x="707" y="289" type="line"/>
      <point x="776" y="621" type="line"/>
      <point x="840" y="621" type="line" smooth="yes"/>
      <point x="899" y="621"/>
      <point x="930" y="584"/>
      <point x="930" y="512" type="curve" smooth="yes"/>
      <point x="930" y="387"/>
      <point x="885" y="289"/>
      <point x="774" y="289" type="curve" smooth="yes"/>
    </contour>
    <contour>
      <point x="834" y="893" type="line"/>
      <point x="895" y="1180" type="line"/>
      <point x="944" y="1180" type="line" smooth="yes"/>
      <point x="1006" y="1180"/>
      <point x="1036" y="1149"/>
      <point x="1036" y="1090" type="curve" smooth="yes"/>
      <point x="1036" y="993"/>
      <point x="979" y="893"/>
      <point x="889" y="893" type="curve" smooth="yes"/>
    </contour>
  </outline>
</glyph>
<glyph name="uni0188" format="2">
  <advance width="815"/>
  <unicode hex="0188"/>
  <anchor x="293" y="0" name="bottom"/>
  <anchor x="625" y="1567" name="top"/>
  <outline>
    <contour>
      <point x="362" y="-20" type="curve" smooth="yes"/>
      <point x="479" y="-20"/>
      <point x="602" y="27"/>
      <point x="676" y="82" type="curve"/>
      <point x="676" y="360" type="line"/>
      <point x="588" y="295"/>
      <point x="512" y="262"/>
      <point x="451" y="262" type="curve" smooth="yes"/>
      <point x="399" y="262"/>
      <point x="375" y="309"/>
      <point x="375" y="399" type="curve" smooth="yes"/>
      <point x="375" y="627"/>
      <point x="457" y="870"/>
      <point x="618" y="870" type="curve" smooth="yes"/>
      <point x="680" y="870"/>
      <point x="764" y="840"/>
      <point x="819" y="797" type="curve"/>
      <point x="897" y="1196" type="line" smooth="yes"/>
      <point x="911" y="1262"/>
      <point x="934" y="1280"/>
      <point x="971" y="1280" type="curve" smooth="yes"/>
      <point x="995" y="1280"/>
      <point x="1020" y="1270"/>
      <point x="1030" y="1262" type="curve"/>
      <point x="1030" y="1542" type="line"/>
      <point x="997" y="1554"/>
      <point x="938" y="1567"/>
      <point x="877" y="1567" type="curve" smooth="yes"/>
      <point x="713" y="1567"/>
      <point x="643" y="1464"/>
      <point x="604" y="1280" type="curve" smooth="yes"/>
      <point x="578" y="1151" type="line"/>
      <point x="575" y="1151"/>
      <point x="567" y="1153"/>
      <point x="557" y="1153" type="curve" smooth="yes"/>
      <point x="182" y="1153"/>
      <point x="37" y="688"/>
      <point x="37" y="348" type="curve" smooth="yes"/>
      <point x="37" y="123"/>
      <point x="154" y="-20"/>
    </contour>
  </outline>
</glyph>
<glyph name="uni018A" format="2">
  <advance width="1425"/>
  <unicode hex="018A"/>
  <anchor x="598" y="0" name="bottom"/>
  <anchor x="907" y="1462" name="top"/>
  <outline>
    <contour>
      <point x="303" y="0" type="line"/>
      <point x="678" y="0" type="line" smooth="yes"/>
      <point x="1202" y="0"/>
      <point x="1427" y="541"/>
      <point x="1427" y="997" type="curve" smooth="yes"/>
      <point x="1427" y="1286"/>
      <point x="1262" y="1462"/>
      <point x="948" y="1462" type="curve" smooth="yes"/>
      <point x="514" y="1462" type="line"/>
      <point x="301" y="1462"/>
      <point x="150" y="1331"/>
      <point x="150" y="1124" type="curve" smooth="yes"/>
      <point x="150" y="1073"/>
      <point x="158" y="1026"/>
      <point x="170" y="1004" type="curve"/>
      <point x="455" y="1004" type="line"/>
      <point x="442" y="1028"/>
      <point x="436" y="1067"/>
      <point x="436" y="1094" type="curve" smooth="yes"/>
      <point x="436" y="1155"/>
      <point x="461" y="1180"/>
      <point x="530" y="1180" type="curve" smooth="yes"/>
      <point x="553" y="1180" type="line"/>
    </contour>
    <contour>
      <point x="709" y="303" type="line"/>
      <point x="891" y="1161" type="line"/>
      <point x="920" y="1161" type="line" smooth="yes"/>
      <point x="1018" y="1161"/>
      <point x="1067" y="1098"/>
      <point x="1067" y="961" type="curve" smooth="yes"/>
      <point x="1067" y="758"/>
      <point x="977" y="303"/>
      <point x="729" y="303" type="curve" smooth="yes"/>
    </contour>
  </outline>
</glyph>
<glyph name="uni018C" format="2">
  <advance width="997"/>
  <unicode hex="018C"/>
  <anchor x="385" y="0" name="bottom"/>
  <anchor x="715" y="1556" name="top"/>
  <outline>
    <contour>
      <point x="264" y="-20" type="curve" smooth="yes"/>
      <point x="369" y="-20"/>
      <point x="422" y="29"/>
      <point x="502" y="117" type="curve"/>
      <point x="510" y="117" type="line"/>
      <point x="518" y="0" type="line"/>
      <point x="784" y="0" type="line"/>
      <point x="1116" y="1556" type="line"/>
      <point x="399" y="1556" type="line"/>
      <point x="338" y="1266" type="line"/>
      <point x="725" y="1266" type="line"/>
      <point x="713" y="1204" type="line" smooth="yes"/>
      <point x="707" y="1169"/>
      <point x="694" y="1102"/>
      <point x="686" y="1024" type="curve"/>
      <point x="680" y="1024" type="line"/>
      <point x="637" y="1118"/>
      <point x="551" y="1153"/>
      <point x="457" y="1153" type="curve" smooth="yes"/>
      <point x="168" y="1153"/>
      <point x="29" y="596"/>
      <point x="29" y="319" type="curve" smooth="yes"/>
      <point x="29" y="111"/>
      <point x="119" y="-20"/>
    </contour>
    <contour>
      <point x="412" y="256" type="curve" smooth="yes"/>
      <point x="383" y="256"/>
      <point x="367" y="295"/>
      <point x="367" y="371" type="curve" smooth="yes"/>
      <point x="367" y="469"/>
      <point x="428" y="868"/>
      <point x="545" y="868" type="curve" smooth="yes"/>
      <point x="586" y="868"/>
      <point x="606" y="834"/>
      <point x="606" y="758" type="curve" smooth="yes"/>
      <point x="606" y="604"/>
      <point x="532" y="256"/>
    </contour>
  </outline>
</glyph>
<glyph name="uni0190" format="2">
  <advance width="983"/>
  <unicode hex="0190"/>
  <anchor x="377" y="0" name="bottom"/>
  <anchor x="686" y="1462" name="top"/>
  <outline>
    <contour>
      <point x="465" y="-20" type="curve" smooth="yes"/>
      <point x="578" y="-20"/>
      <point x="739" y="8"/>
      <point x="850" y="61" type="curve"/>
      <point x="850" y="367" type="line"/>
      <point x="756" y="315"/>
      <point x="631" y="281"/>
      <point x="530" y="281" type="curve" smooth="yes"/>
      <point x="446" y="281"/>
      <point x="395" y="311"/>
      <point x="395" y="391" type="curve" smooth="yes"/>
      <point x="395" y="537"/>
      <point x="496" y="614"/>
      <point x="649" y="614" type="curve" smooth="yes"/>
      <point x="776" y="614" type="line"/>
      <point x="840" y="909" type="line"/>
      <point x="723" y="909" type="line" smooth="yes"/>
      <point x="606" y="909"/>
      <point x="557" y="930"/>
      <point x="557" y="1026" type="curve" smooth="yes"/>
      <point x="557" y="1114"/>
      <point x="618" y="1184"/>
      <point x="719" y="1184" type="curve" smooth="yes"/>
      <point x="795" y="1184"/>
      <point x="862" y="1153"/>
      <point x="936" y="1079" type="curve"/>
      <point x="1102" y="1339" type="line"/>
      <point x="983" y="1423"/>
      <point x="879" y="1483"/>
      <point x="680" y="1483" type="curve" smooth="yes"/>
      <point x="389" y="1483"/>
      <point x="221" y="1276"/>
      <point x="221" y="1055" type="curve" smooth="yes"/>
      <point x="221" y="897"/>
      <point x="285" y="805"/>
      <point x="410" y="772" type="curve"/>
      <point x="408" y="764" type="line"/>
      <point x="178" y="725"/>
      <point x="33" y="586"/>
      <point x="33" y="346" type="curve" smooth="yes"/>
      <point x="33" y="84"/>
      <point x="188" y="-20"/>
    </contour>
  </outline>
</glyph>
<glyph name="uni0193" format="2">
  <advance width="1122"/>
  <unicode hex="0193"/>
  <anchor x="446" y="0" name="bottom"/>
  <anchor x="756" y="1462" name="top"/>
  <outline>
    <contour>
      <point x="524" y="-20" type="curve" smooth="yes"/>
      <point x="621" y="-20"/>
      <point x="774" y="10"/>
      <point x="930" y="72" type="curve"/>
      <point x="1096" y="856" type="line"/>
      <point x="616" y="856" type="line"/>
      <point x="557" y="565" type="line"/>
      <point x="698" y="565" type="line"/>
      <point x="641" y="293" type="line"/>
      <point x="610" y="285"/>
      <point x="580" y="281"/>
      <point x="553" y="281" type="curve" smooth="yes"/>
      <point x="473" y="281"/>
      <point x="432" y="352"/>
      <point x="432" y="492" type="curve" smooth="yes"/>
      <point x="432" y="791"/>
      <point x="575" y="1184"/>
      <point x="842" y="1184" type="curve" smooth="yes"/>
      <point x="920" y="1184"/>
      <point x="1024" y="1157"/>
      <point x="1108" y="1092" type="curve"/>
      <point x="1169" y="1362" type="line" smooth="yes"/>
      <point x="1184" y="1430"/>
      <point x="1210" y="1462"/>
      <point x="1274" y="1462" type="curve" smooth="yes"/>
      <point x="1296" y="1462"/>
      <point x="1337" y="1456"/>
      <point x="1376" y="1438" type="curve"/>
      <point x="1376" y="1726" type="line"/>
      <point x="1337" y="1743"/>
      <point x="1288" y="1757"/>
      <point x="1223" y="1757" type="curve" smooth="yes"/>
      <point x="1053" y="1757"/>
      <point x="948" y="1683"/>
      <point x="899" y="1501" type="curve" smooth="yes"/>
      <point x="893" y="1481" type="line"/>
      <point x="872" y="1483"/>
      <point x="852" y="1483"/>
      <point x="831" y="1483" type="curve" smooth="yes"/>
      <point x="307" y="1483"/>
      <point x="74" y="918"/>
      <point x="74" y="457" type="curve" smooth="yes"/>
      <point x="74" y="156"/>
      <point x="215" y="-20"/>
    </contour>
  </outline>
</glyph>
<glyph name="uni0194" format="2">
  <advance width="1063"/>
  <unicode hex="0194"/>
  <anchor x="301" y="-553" name="bottom"/>
  <anchor x="727" y="1462" name="top"/>
  <outline>
    <contour>
      <point x="348" y="-553" type="curve" smooth="yes"/>
      <point x="608" y="-553"/>
      <point x="754" y="-393"/>
      <point x="754" y="-141" type="curve" smooth="yes"/>
      <point x="754" y="-35"/>
      <point x="731" y="166"/>
      <point x="680" y="362" type="curve"/>
      <point x="1251" y="1462" type="line"/>
      <point x="885" y="1462" type="line"/>
      <point x="645" y="961" type="line" smooth="yes"/>
      <point x="604" y="877"/>
      <point x="582" y="795"/>
      <point x="561" y="711" type="curve"/>
      <point x="571" y="815"/>
      <point x="578" y="909"/>
      <point x="573" y="965" type="curve" smooth="yes"/>
      <point x="543" y="1462" type="line"/>
      <point x="190" y="1462" type="line"/>
      <point x="305" y="371" type="line"/>
      <point x="100" y="125"/>
      <point x="16" y="-129"/>
      <point x="16" y="-268" type="curve" smooth="yes"/>
      <point x="16" y="-436"/>
      <point x="141" y="-553"/>
    </contour>
    <contour>
      <point x="362" y="-322" type="curve" smooth="yes"/>
      <point x="340" y="-322"/>
      <point x="328" y="-301"/>
      <point x="328" y="-260" type="curve" smooth="yes"/>
      <point x="328" y="-199"/>
      <point x="356" y="-43"/>
      <point x="436" y="84" type="curve"/>
      <point x="442" y="39"/>
      <point x="451" y="-66"/>
      <point x="451" y="-113" type="curve" smooth="yes"/>
      <point x="451" y="-233"/>
      <point x="414" y="-322"/>
    </contour>
  </outline>
</glyph>
<glyph name="uni0195" format="2">
  <advance width="1501"/>
  <unicode hex="0195"/>
  <anchor x="637" y="0" name="bottom"/>
  <anchor x="866" y="1085" name="top"/>
  <outline>
    <contour>
      <point x="901" y="-16" type="curve" smooth="yes"/>
      <point x="1182" y="-16"/>
      <point x="1321" y="117"/>
      <point x="1395" y="481" type="curve" smooth="yes"/>
      <point x="1528" y="1133" type="line"/>
      <point x="1202" y="1133" type="line"/>
      <point x="1067" y="479" type="line" smooth="yes"/>
      <point x="1032" y="315"/>
      <point x="995" y="274"/>
      <point x="936" y="274" type="curve" smooth="yes"/>
      <point x="903" y="274"/>
      <point x="885" y="299"/>
      <point x="885" y="365" type="curve" smooth="yes"/>
      <point x="885" y="393"/>
      <point x="891" y="444"/>
      <point x="899" y="481" type="curve" smooth="yes"/>
      <point x="950" y="723" type="line" smooth="yes"/>
      <point x="961" y="776"/>
      <point x="969" y="836"/>
      <point x="969" y="883" type="curve" smooth="yes"/>
      <point x="969" y="1047"/>
      <point x="883" y="1153"/>
      <point x="735" y="1153" type="curve" smooth="yes"/>
      <point x="633" y="1153"/>
      <point x="563" y="1108"/>
      <point x="504" y="1024" type="curve"/>
      <point x="498" y="1024" type="line"/>
      <point x="526" y="1104"/>
      <point x="555" y="1194"/>
      <point x="571" y="1272" type="curve" smooth="yes"/>
      <point x="633" y="1556" type="line"/>
      <point x="305" y="1556" type="line"/>
      <point x="-27" y="0" type="line"/>
      <point x="303" y="0" type="line"/>
      <point x="436" y="635" type="line" smooth="yes"/>
      <point x="475" y="815"/>
      <point x="524" y="858"/>
      <point x="563" y="858" type="curve" smooth="yes"/>
      <point x="608" y="858"/>
      <point x="623" y="823"/>
      <point x="623" y="786" type="curve" smooth="yes"/>
      <point x="623" y="737"/>
      <point x="614" y="686"/>
      <point x="608" y="662" type="curve" smooth="yes"/>
      <point x="575" y="506" type="line" smooth="yes"/>
      <point x="565" y="455"/>
      <point x="555" y="375"/>
      <point x="555" y="311" type="curve" smooth="yes"/>
      <point x="555" y="102"/>
      <point x="655" y="-16"/>
    </contour>
  </outline>
</glyph>
<glyph name="uni0197" format="2">
  <advance width="764"/>
  <unicode hex="0197"/>
  <anchor x="268" y="0" name="bottom"/>
  <anchor x="578" y="1462" name="top"/>
  <outline>
    <contour>
      <point x="-76" y="0" type="line"/>
      <point x="608" y="0" type="line"/>
      <point x="645" y="176" type="line"/>
      <point x="489" y="258" type="line"/>
      <point x="569" y="631" type="line"/>
      <point x="713" y="631" type="line"/>
      <point x="768" y="887" type="line"/>
      <point x="623" y="887" type="line"/>
      <point x="690" y="1204" type="line"/>
      <point x="881" y="1286" type="line"/>
      <point x="918" y="1462" type="line"/>
      <point x="233" y="1462" type="line"/>
      <point x="197" y="1286" type="line"/>
      <point x="348" y="1204" type="line"/>
      <point x="281" y="887" type="line"/>
      <point x="137" y="887" type="line"/>
      <point x="82" y="631" type="line"/>
      <point x="227" y="631" type="line"/>
      <point x="147" y="258" type="line"/>
      <point x="-39" y="176" type="line"/>
    </contour>
  </outline>
</glyph>
<glyph name="uni0199" format="2">
  <advance width="991"/>
  <unicode hex="0199"/>
  <anchor x="381" y="0" name="bottom"/>
  <anchor x="715" y="1577" name="top"/>
  <outline>
    <contour>
      <point x="-27" y="0" type="line"/>
      <point x="303" y="0" type="line"/>
      <point x="362" y="311" type="line"/>
      <point x="442" y="379" type="line"/>
      <point x="530" y="0" type="line"/>
      <point x="887" y="0" type="line"/>
      <point x="727" y="643" type="line"/>
      <point x="1106" y="1133" type="line"/>
      <point x="750" y="1133" type="line"/>
      <point x="446" y="725" type="line"/>
      <point x="442" y="725" type="line"/>
      <point x="467" y="805"/>
      <point x="487" y="879"/>
      <point x="504" y="954" type="curve" smooth="yes"/>
      <point x="559" y="1206" type="line" smooth="yes"/>
      <point x="573" y="1272"/>
      <point x="596" y="1290"/>
      <point x="633" y="1290" type="curve" smooth="yes"/>
      <point x="657" y="1290"/>
      <point x="682" y="1280"/>
      <point x="692" y="1272" type="curve"/>
      <point x="692" y="1552" type="line"/>
      <point x="659" y="1565"/>
      <point x="596" y="1577"/>
      <point x="532" y="1577" type="curve" smooth="yes"/>
      <point x="369" y="1577"/>
      <point x="293" y="1499"/>
      <point x="254" y="1315" type="curve" smooth="yes"/>
    </contour>
  </outline>
</glyph>
<glyph name="uni019B" format="2">
  <advance width="1008"/>
  <unicode hex="019B"/>
  <anchor x="389" y="0" name="bottom"/>
  <anchor x="723" y="1573" name="top"/>
  <outline>
    <contour>
      <point x="756" y="-20" type="curve" smooth="yes"/>
      <point x="799" y="-20"/>
      <point x="877" y="-12"/>
      <point x="924" y="0" type="curve"/>
      <point x="924" y="289" type="line"/>
      <point x="887" y="276"/>
      <point x="870" y="274"/>
      <point x="850" y="274" type="curve" smooth="yes"/>
      <point x="811" y="274"/>
      <point x="791" y="295"/>
      <point x="786" y="375" type="curve" smooth="yes"/>
      <point x="760" y="1024" type="line"/>
      <point x="956" y="1055" type="line"/>
      <point x="920" y="1311" type="line"/>
      <point x="743" y="1282" type="line"/>
      <point x="721" y="1458"/>
      <point x="657" y="1573"/>
      <point x="457" y="1573" type="curve" smooth="yes"/>
      <point x="408" y="1573"/>
      <point x="317" y="1561"/>
      <point x="268" y="1548" type="curve"/>
      <point x="268" y="1280" type="line"/>
      <point x="307" y="1292"/>
      <point x="322" y="1296"/>
      <point x="344" y="1296" type="curve" smooth="yes"/>
      <point x="377" y="1296"/>
      <point x="403" y="1280"/>
      <point x="416" y="1231" type="curve"/>
      <point x="231" y="1202" type="line"/>
      <point x="270" y="946" type="line"/>
      <point x="424" y="971" type="line"/>
      <point x="424" y="924" type="line"/>
      <point x="-113" y="0" type="line"/>
      <point x="227" y="0" type="line"/>
      <point x="426" y="365" type="line" smooth="yes"/>
      <point x="442" y="395"/>
      <point x="461" y="453"/>
      <point x="471" y="494" type="curve"/>
      <point x="469" y="451"/>
      <point x="467" y="406"/>
      <point x="469" y="365" type="curve" smooth="yes"/>
      <point x="471" y="336" type="line" smooth="yes"/>
      <point x="485" y="135"/>
      <point x="512" y="-20"/>
    </contour>
  </outline>
</glyph>
<glyph name="uni01A2" format="2">
  <advance width="1747"/>
  <unicode hex="01A2"/>
  <anchor x="760" y="0" name="bottom"/>
  <anchor x="1069" y="1462" name="top"/>
  <outline>
    <contour>
      <point x="498" y="-20" type="curve" smooth="yes"/>
      <point x="983" y="-20"/>
      <point x="1176" y="598"/>
      <point x="1176" y="991" type="curve" smooth="yes"/>
      <point x="1176" y="1038"/>
      <point x="1171" y="1083"/>
      <point x="1165" y="1126" type="curve"/>
      <point x="1202" y="1161"/>
      <point x="1247" y="1176"/>
      <point x="1298" y="1176" type="curve" smooth="yes"/>
      <point x="1372" y="1176"/>
      <point x="1403" y="1145"/>
      <point x="1403" y="1090" type="curve" smooth="yes"/>
      <point x="1403" y="1053"/>
      <point x="1393" y="995"/>
      <point x="1380" y="936" type="curve" smooth="yes"/>
      <point x="1184" y="0" type="line"/>
      <point x="1526" y="0" type="line"/>
      <point x="1747" y="1044" type="line" smooth="yes"/>
      <point x="1761" y="1118"/>
      <point x="1765" y="1169"/>
      <point x="1765" y="1210" type="curve" smooth="yes"/>
      <point x="1765" y="1384"/>
      <point x="1647" y="1483"/>
      <point x="1466" y="1483" type="curve" smooth="yes"/>
      <point x="1321" y="1483"/>
      <point x="1198" y="1436"/>
      <point x="1102" y="1313" type="curve"/>
      <point x="1034" y="1423"/>
      <point x="922" y="1485"/>
      <point x="756" y="1485" type="curve" smooth="yes"/>
      <point x="315" y="1485"/>
      <point x="72" y="936"/>
      <point x="72" y="475" type="curve" smooth="yes"/>
      <point x="72" y="133"/>
      <point x="207" y="-20"/>
    </contour>
    <contour>
      <point x="522" y="285" type="curve" smooth="yes"/>
      <point x="463" y="285"/>
      <point x="430" y="319"/>
      <point x="430" y="473" type="curve" smooth="yes"/>
      <point x="430" y="711"/>
      <point x="539" y="1186"/>
      <point x="727" y="1186" type="curve" smooth="yes"/>
      <point x="786" y="1186"/>
      <point x="819" y="1126"/>
      <point x="819" y="1001" type="curve" smooth="yes"/>
      <point x="819" y="764"/>
      <point x="711" y="285"/>
    </contour>
  </outline>
</glyph>
<glyph name="uni01A3" format="2">
  <advance width="1470"/>
  <unicode hex="01A3"/>
  <anchor x="516" y="-492" name="bottom"/>
  <anchor x="850" y="1085" name="top"/>
  <outline>
    <contour>
      <point x="829" y="-492" type="line"/>
      <point x="1157" y="-492" type="line"/>
      <point x="1415" y="723" type="line" smooth="yes"/>
      <point x="1430" y="795"/>
      <point x="1434" y="846"/>
      <point x="1434" y="887" type="curve" smooth="yes"/>
      <point x="1434" y="1092"/>
      <point x="1309" y="1153"/>
      <point x="1188" y="1153" type="curve" smooth="yes"/>
      <point x="1067" y="1153"/>
      <point x="997" y="1118"/>
      <point x="903" y="971" type="curve"/>
      <point x="848" y="1085"/>
      <point x="739" y="1153"/>
      <point x="594" y="1153" type="curve" smooth="yes"/>
      <point x="182" y="1153"/>
      <point x="37" y="668"/>
      <point x="37" y="371" type="curve" smooth="yes"/>
      <point x="37" y="127"/>
      <point x="170" y="-20"/>
      <point x="395" y="-20" type="curve" smooth="yes"/>
      <point x="791" y="-20"/>
      <point x="946" y="442"/>
      <point x="946" y="762" type="curve"/>
      <point x="946" y="776"/>
      <point x="946" y="788"/>
      <point x="944" y="803" type="curve"/>
      <point x="973" y="848"/>
      <point x="999" y="858"/>
      <point x="1038" y="858" type="curve" smooth="yes"/>
      <point x="1075" y="858"/>
      <point x="1090" y="831"/>
      <point x="1090" y="786" type="curve" smooth="yes"/>
      <point x="1090" y="750"/>
      <point x="1079" y="690"/>
      <point x="1067" y="631" type="curve" smooth="yes"/>
    </contour>
    <contour>
      <point x="434" y="256" type="curve" smooth="yes"/>
      <point x="387" y="256"/>
      <point x="367" y="297"/>
      <point x="367" y="369" type="curve" smooth="yes"/>
      <point x="367" y="535"/>
      <point x="438" y="877"/>
      <point x="551" y="877" type="curve" smooth="yes"/>
      <point x="598" y="877"/>
      <point x="616" y="838"/>
      <point x="616" y="762" type="curve" smooth="yes"/>
      <point x="616" y="598"/>
      <point x="541" y="256"/>
    </contour>
  </outline>
</glyph>
<glyph name="uni01A5" format="2">
  <advance width="997"/>
  <unicode hex="01A5"/>
  <anchor x="281" y="-492" name="bottom"/>
  <anchor x="719" y="1577" name="top"/>
  <outline>
    <contour>
      <point x="-129" y="-492" type="line"/>
      <point x="197" y="-492" type="line"/>
      <point x="289" y="-61" type="line" smooth="yes"/>
      <point x="295" y="-27"/>
      <point x="307" y="43"/>
      <point x="315" y="119" type="curve"/>
      <point x="322" y="119" type="line"/>
      <point x="358" y="31"/>
      <point x="430" y="-20"/>
      <point x="520" y="-20" type="curve" smooth="yes"/>
      <point x="817" y="-20"/>
      <point x="971" y="485"/>
      <point x="971" y="811" type="curve" smooth="yes"/>
      <point x="971" y="1044"/>
      <point x="879" y="1153"/>
      <point x="735" y="1153" type="curve" smooth="yes"/>
      <point x="649" y="1153"/>
      <point x="578" y="1118"/>
      <point x="506" y="1020" type="curve"/>
      <point x="502" y="1020" type="line"/>
      <point x="528" y="1087"/>
      <point x="541" y="1126"/>
      <point x="551" y="1174" type="curve" smooth="yes"/>
      <point x="559" y="1206" type="line" smooth="yes"/>
      <point x="575" y="1272"/>
      <point x="596" y="1290"/>
      <point x="633" y="1290" type="curve" smooth="yes"/>
      <point x="657" y="1290"/>
      <point x="682" y="1280"/>
      <point x="692" y="1272" type="curve"/>
      <point x="692" y="1552" type="line"/>
      <point x="659" y="1565"/>
      <point x="596" y="1577"/>
      <point x="532" y="1577" type="curve" smooth="yes"/>
      <point x="369" y="1577"/>
      <point x="293" y="1499"/>
      <point x="254" y="1315" type="curve" smooth="yes"/>
    </contour>
    <contour>
      <point x="455" y="264" type="curve" smooth="yes"/>
      <point x="414" y="264"/>
      <point x="393" y="299"/>
      <point x="393" y="375" type="curve" smooth="yes"/>
      <point x="393" y="510"/>
      <point x="471" y="877"/>
      <point x="588" y="877" type="curve" smooth="yes"/>
      <point x="616" y="877"/>
      <point x="633" y="840"/>
      <point x="633" y="762" type="curve" smooth="yes"/>
      <point x="633" y="604"/>
      <point x="557" y="264"/>
    </contour>
  </outline>
</glyph>
<glyph name="uni01A7" format="2">
  <advance width="930"/>
  <unicode hex="01A7"/>
  <anchor x="350" y="0" name="bottom"/>
  <anchor x="659" y="1462" name="top"/>
  <outline>
    <contour>
      <point x="412" y="-20" type="curve" smooth="yes"/>
      <point x="514" y="-20"/>
      <point x="674" y="12"/>
      <point x="815" y="82" type="curve"/>
      <point x="815" y="397" type="line"/>
      <point x="692" y="330"/>
      <point x="567" y="291"/>
      <point x="475" y="291" type="curve" smooth="yes"/>
      <point x="403" y="291"/>
      <point x="371" y="332"/>
      <point x="371" y="399" type="curve" smooth="yes"/>
      <point x="371" y="483"/>
      <point x="459" y="539"/>
      <point x="596" y="614" type="curve" smooth="yes"/>
      <point x="834" y="748"/>
      <point x="983" y="895"/>
      <point x="983" y="1128" type="curve" smooth="yes"/>
      <point x="983" y="1350"/>
      <point x="860" y="1483"/>
      <point x="586" y="1483" type="curve" smooth="yes"/>
      <point x="496" y="1483"/>
      <point x="365" y="1456"/>
      <point x="225" y="1378" type="curve"/>
      <point x="252" y="1077" type="line"/>
      <point x="369" y="1141"/>
      <point x="461" y="1171"/>
      <point x="535" y="1171" type="curve" smooth="yes"/>
      <point x="598" y="1171"/>
      <point x="627" y="1141"/>
      <point x="627" y="1075" type="curve" smooth="yes"/>
      <point x="627" y="995"/>
      <point x="528" y="940"/>
      <point x="387" y="864" type="curve" smooth="yes"/>
      <point x="160" y="741"/>
      <point x="14" y="588"/>
      <point x="14" y="350" type="curve" smooth="yes"/>
      <point x="14" y="119"/>
      <point x="150" y="-20"/>
    </contour>
  </outline>
</glyph>
<glyph name="uni01A8" format="2">
  <advance width="811"/>
  <unicode hex="01A8"/>
  <anchor x="291" y="0" name="bottom"/>
  <anchor x="520" y="1085" name="top"/>
  <outline>
    <contour>
      <point x="358" y="-20" type="curve" smooth="yes"/>
      <point x="444" y="-20"/>
      <point x="582" y="0"/>
      <point x="696" y="55" type="curve"/>
      <point x="698" y="342" type="line"/>
      <point x="610" y="297"/>
      <point x="506" y="258"/>
      <point x="410" y="258" type="curve" smooth="yes"/>
      <point x="348" y="258"/>
      <point x="330" y="283"/>
      <point x="330" y="330" type="curve" smooth="yes"/>
      <point x="330" y="367"/>
      <point x="348" y="408"/>
      <point x="522" y="485" type="curve" smooth="yes"/>
      <point x="754" y="590"/>
      <point x="825" y="727"/>
      <point x="825" y="862" type="curve" smooth="yes"/>
      <point x="825" y="1044"/>
      <point x="719" y="1153"/>
      <point x="489" y="1153" type="curve" smooth="yes"/>
      <point x="401" y="1153"/>
      <point x="295" y="1130"/>
      <point x="172" y="1057" type="curve"/>
      <point x="201" y="805" type="line"/>
      <point x="276" y="850"/>
      <point x="362" y="889"/>
      <point x="440" y="889" type="curve" smooth="yes"/>
      <point x="487" y="889"/>
      <point x="500" y="872"/>
      <point x="500" y="846" type="curve" smooth="yes"/>
      <point x="500" y="811"/>
      <point x="475" y="786"/>
      <point x="311" y="700" type="curve" smooth="yes"/>
      <point x="37" y="561"/>
      <point x="-8" y="426"/>
      <point x="-8" y="283" type="curve" smooth="yes"/>
      <point x="-8" y="70"/>
      <point x="123" y="-20"/>
    </contour>
  </outline>
</glyph>
<glyph name="uni01AA" format="2">
  <advance width="602"/>
  <unicode hex="01AA"/>
  <anchor x="82" y="-492" name="bottom"/>
  <anchor x="520" y="1577" name="top"/>
  <outline>
    <contour>
      <point x="223" y="-492" type="curve" smooth="yes"/>
      <point x="295" y="-492"/>
      <point x="389" y="-469"/>
      <point x="463" y="-424" type="curve"/>
      <point x="463" y="-170" type="line"/>
      <point x="430" y="-188"/>
      <point x="383" y="-205"/>
      <point x="358" y="-205" type="curve" smooth="yes"/>
      <point x="332" y="-205"/>
      <point x="317" y="-184"/>
      <point x="317" y="-158" type="curve" smooth="yes"/>
      <point x="317" y="-135"/>
      <point x="322" y="-121"/>
      <point x="324" y="-106" type="curve" smooth="yes"/>
      <point x="590" y="1126" type="line" smooth="yes"/>
      <point x="602" y="1176"/>
      <point x="606" y="1243"/>
      <point x="606" y="1274" type="curve" smooth="yes"/>
      <point x="606" y="1460"/>
      <point x="530" y="1577"/>
      <point x="297" y="1577" type="curve" smooth="yes"/>
      <point x="96" y="1577"/>
      <point x="-6" y="1448"/>
      <point x="-6" y="1292" type="curve" smooth="yes"/>
      <point x="-6" y="1169"/>
      <point x="51" y="1075"/>
      <point x="242" y="1075" type="curve" smooth="yes"/>
      <point x="250" y="1075" type="line"/>
      <point x="4" y="-70" type="line" smooth="yes"/>
      <point x="-8" y="-127"/>
      <point x="-18" y="-195"/>
      <point x="-18" y="-250" type="curve" smooth="yes"/>
      <point x="-18" y="-401"/>
      <point x="68" y="-492"/>
    </contour>
    <contour>
      <point x="272" y="1257" type="line" smooth="yes"/>
      <point x="207" y="1257"/>
      <point x="188" y="1276"/>
      <point x="188" y="1323" type="curve" smooth="yes"/>
      <point x="188" y="1360"/>
      <point x="211" y="1384"/>
      <point x="244" y="1384" type="curve" smooth="yes"/>
      <point x="276" y="1384"/>
      <point x="299" y="1368"/>
      <point x="299" y="1327" type="curve" smooth="yes"/>
      <point x="299" y="1319"/>
      <point x="299" y="1309"/>
      <point x="297" y="1298" type="curve" smooth="yes"/>
      <point x="289" y="1257" type="line"/>
    </contour>
  </outline>
</glyph>
<glyph name="uni01AB" format="2">
  <advance width="700"/>
  <unicode hex="01AB"/>
  <anchor x="131" y="-492" name="bottom"/>
  <anchor x="522" y="1360" name="top"/>
  <outline>
    <contour>
      <point x="147" y="-492" type="curve" smooth="yes"/>
      <point x="393" y="-492"/>
      <point x="475" y="-346"/>
      <point x="514" y="-162" type="curve" smooth="yes"/>
      <point x="612" y="297" type="line"/>
      <point x="561" y="274"/>
      <point x="508" y="266"/>
      <point x="487" y="266" type="curve" smooth="yes"/>
      <point x="446" y="266"/>
      <point x="412" y="283"/>
      <point x="412" y="324" type="curve" smooth="yes"/>
      <point x="412" y="338"/>
      <point x="416" y="358"/>
      <point x="420" y="377" type="curve" smooth="yes"/>
      <point x="522" y="860" type="line"/>
      <point x="715" y="860" type="line"/>
      <point x="772" y="1133" type="line"/>
      <point x="580" y="1133" type="line"/>
      <point x="629" y="1360" type="line"/>
      <point x="397" y="1360" type="line"/>
      <point x="283" y="1122" type="line"/>
      <point x="127" y="1030" type="line"/>
      <point x="92" y="860" type="line"/>
      <point x="195" y="860" type="line"/>
      <point x="102" y="424" type="line" smooth="yes"/>
      <point x="86" y="346"/>
      <point x="80" y="293"/>
      <point x="80" y="244" type="curve" smooth="yes"/>
      <point x="80" y="125"/>
      <point x="119" y="29"/>
      <point x="221" y="-6" type="curve"/>
      <point x="213" y="-45" type="line" smooth="yes"/>
      <point x="201" y="-109"/>
      <point x="180" y="-197"/>
      <point x="96" y="-197" type="curve" smooth="yes"/>
      <point x="74" y="-197"/>
      <point x="33" y="-190"/>
      <point x="-6" y="-172" type="curve"/>
      <point x="-6" y="-461" type="line"/>
      <point x="33" y="-477"/>
      <point x="63" y="-492"/>
    </contour>
  </outline>
</glyph>
<glyph name="uni01AC" format="2">
  <advance width="1032"/>
  <unicode hex="01AC"/>
  <anchor x="401" y="0" name="bottom"/>
  <anchor x="711" y="1462" name="top"/>
  <outline>
    <contour>
      <point x="303" y="0" type="line"/>
      <point x="645" y="0" type="line"/>
      <point x="891" y="1161" type="line"/>
      <point x="1128" y="1161" type="line"/>
      <point x="1192" y="1462" type="line"/>
      <point x="514" y="1462" type="line" smooth="yes"/>
      <point x="301" y="1462"/>
      <point x="150" y="1331"/>
      <point x="150" y="1124" type="curve" smooth="yes"/>
      <point x="150" y="1073"/>
      <point x="158" y="1008"/>
      <point x="170" y="985" type="curve"/>
      <point x="455" y="985" type="line"/>
      <point x="442" y="1010"/>
      <point x="436" y="1049"/>
      <point x="436" y="1075" type="curve" smooth="yes"/>
      <point x="436" y="1137"/>
      <point x="461" y="1161"/>
      <point x="530" y="1161" type="curve" smooth="yes"/>
      <point x="549" y="1161" type="line"/>
    </contour>
  </outline>
</glyph>
<glyph name="uni01AD" format="2">
  <advance width="700"/>
  <unicode hex="01AD"/>
  <anchor x="236" y="0" name="bottom"/>
  <anchor x="567" y="1567" name="top"/>
  <outline>
    <contour>
      <point x="319" y="-20" type="curve" smooth="yes"/>
      <point x="395" y="-20"/>
      <point x="516" y="-6"/>
      <point x="592" y="35" type="curve"/>
      <point x="592" y="297" type="line"/>
      <point x="541" y="274"/>
      <point x="487" y="266"/>
      <point x="467" y="266" type="curve" smooth="yes"/>
      <point x="426" y="266"/>
      <point x="412" y="283"/>
      <point x="412" y="324" type="curve" smooth="yes"/>
      <point x="412" y="338"/>
      <point x="416" y="358"/>
      <point x="420" y="377" type="curve" smooth="yes"/>
      <point x="522" y="860" type="line"/>
      <point x="715" y="860" type="line"/>
      <point x="772" y="1133" type="line"/>
      <point x="580" y="1133" type="line"/>
      <point x="582" y="1141" type="line" smooth="yes"/>
      <point x="596" y="1212"/>
      <point x="610" y="1280"/>
      <point x="698" y="1280" type="curve" smooth="yes"/>
      <point x="723" y="1280"/>
      <point x="776" y="1272"/>
      <point x="801" y="1260" type="curve"/>
      <point x="801" y="1544" type="line"/>
      <point x="756" y="1561"/>
      <point x="698" y="1567"/>
      <point x="649" y="1567" type="curve" smooth="yes"/>
      <point x="403" y="1567"/>
      <point x="317" y="1423"/>
      <point x="262" y="1167" type="curve" smooth="yes"/>
      <point x="248" y="1102" type="line"/>
      <point x="127" y="1030" type="line"/>
      <point x="92" y="860" type="line"/>
      <point x="195" y="860" type="line"/>
      <point x="102" y="424" type="line" smooth="yes"/>
      <point x="86" y="346"/>
      <point x="80" y="293"/>
      <point x="80" y="244" type="curve" smooth="yes"/>
      <point x="80" y="92"/>
      <point x="141" y="-20"/>
    </contour>
  </outline>
</glyph>
<glyph name="uhorn" format="2">
  <advance width="1237"/>
  <unicode hex="01B0"/>
  <anchor x="504" y="0" name="bottom"/>
  <anchor x="733" y="1085" name="top"/>
  <outline>
    <contour>
      <point x="285" y="-20" type="curve" smooth="yes"/>
      <point x="383" y="-20"/>
      <point x="465" y="39"/>
      <point x="530" y="131" type="curve"/>
      <point x="537" y="131" type="line"/>
      <point x="532" y="0" type="line"/>
      <point x="795" y="0" type="line"/>
      <point x="958" y="778" type="line"/>
      <point x="1278" y="788"/>
      <point x="1409" y="1020"/>
      <point x="1462" y="1280" type="curve"/>
      <point x="1458" y="1300" type="line"/>
      <point x="1153" y="1300" type="line"/>
      <point x="1137" y="1171"/>
      <point x="1104" y="1028"/>
      <point x="1006" y="997" type="curve"/>
      <point x="1034" y="1133" type="line"/>
      <point x="707" y="1133" type="line"/>
      <point x="582" y="551" type="line" smooth="yes"/>
      <point x="549" y="397"/>
      <point x="506" y="274"/>
      <point x="436" y="274" type="curve" smooth="yes"/>
      <point x="397" y="274"/>
      <point x="385" y="301"/>
      <point x="385" y="346" type="curve" smooth="yes"/>
      <point x="385" y="383"/>
      <point x="393" y="442"/>
      <point x="406" y="504" type="curve" smooth="yes"/>
      <point x="539" y="1133" type="line"/>
      <point x="211" y="1133" type="line"/>
      <point x="57" y="412" type="line" smooth="yes"/>
      <point x="47" y="352"/>
      <point x="39" y="293"/>
      <point x="39" y="246" type="curve" smooth="yes"/>
      <point x="39" y="82"/>
      <point x="125" y="-20"/>
    </contour>
  </outline>
</glyph>
<glyph name="uni01B1" format="2">
  <advance width="1178"/>
  <unicode hex="01B1"/>
  <anchor x="475" y="0" name="bottom"/>
  <anchor x="784" y="1462" name="top"/>
  <outline>
    <contour>
      <point x="502" y="-23" type="curve" smooth="yes"/>
      <point x="885" y="-23"/>
      <point x="1141" y="379"/>
      <point x="1141" y="782" type="curve" smooth="yes"/>
      <point x="1141" y="930"/>
      <point x="1108" y="1069"/>
      <point x="1004" y="1163" type="curve"/>
      <point x="1272" y="1163" type="line"/>
      <point x="1335" y="1462" type="line"/>
      <point x="825" y="1462" type="line"/>
      <point x="756" y="1126" type="line"/>
      <point x="797" y="1079"/>
      <point x="815" y="1010"/>
      <point x="815" y="913" type="curve" smooth="yes"/>
      <point x="815" y="705"/>
      <point x="721" y="276"/>
      <point x="539" y="276" type="curve" smooth="yes"/>
      <point x="463" y="276"/>
      <point x="416" y="346"/>
      <point x="416" y="469" type="curve" smooth="yes"/>
      <point x="416" y="657"/>
      <point x="500" y="999"/>
      <point x="670" y="1126" type="curve"/>
      <point x="739" y="1462" type="line"/>
      <point x="227" y="1462" type="line"/>
      <point x="164" y="1163" type="line"/>
      <point x="432" y="1163" type="line"/>
      <point x="182" y="1014"/>
      <point x="57" y="729"/>
      <point x="57" y="432" type="curve" smooth="yes"/>
      <point x="57" y="156"/>
      <point x="221" y="-23"/>
    </contour>
  </outline>
</glyph>
<glyph name="uni01B2" format="2">
  <advance width="1114"/>
  <unicode hex="01B2"/>
  <anchor x="440" y="0" name="bottom"/>
  <anchor x="758" y="1462" name="top"/>
  <anchor x="1268" y="1462" name="topright"/>
  <outline>
    <contour>
      <point x="451" y="-20" type="curve" smooth="yes"/>
      <point x="764" y="-20"/>
      <point x="924" y="139"/>
      <point x="989" y="453" type="curve" smooth="yes"/>
      <point x="1120" y="1073" type="line" smooth="yes"/>
      <point x="1141" y="1169"/>
      <point x="1147" y="1214"/>
      <point x="1147" y="1266" type="curve" smooth="yes"/>
      <point x="1147" y="1397"/>
      <point x="1059" y="1485"/>
      <point x="901" y="1485" type="curve" smooth="yes"/>
      <point x="821" y="1485"/>
      <point x="758" y="1477"/>
      <point x="700" y="1456" type="curve"/>
      <point x="700" y="1182" type="line"/>
      <point x="725" y="1194"/>
      <point x="745" y="1196"/>
      <point x="762" y="1196" type="curve" smooth="yes"/>
      <point x="776" y="1196"/>
      <point x="793" y="1188"/>
      <point x="793" y="1153" type="curve" smooth="yes"/>
      <point x="793" y="1130"/>
      <point x="786" y="1098"/>
      <point x="780" y="1071" type="curve" smooth="yes"/>
      <point x="657" y="506" type="line" smooth="yes"/>
      <point x="623" y="346"/>
      <point x="578" y="285"/>
      <point x="498" y="285" type="curve" smooth="yes"/>
      <point x="446" y="285"/>
      <point x="420" y="317"/>
      <point x="420" y="395" type="curve" smooth="yes"/>
      <point x="420" y="424"/>
      <point x="426" y="461"/>
      <point x="434" y="504" type="curve" smooth="yes"/>
      <point x="637" y="1462" type="line"/>
      <point x="295" y="1462" type="line"/>
      <point x="92" y="510" type="line" smooth="yes"/>
      <point x="80" y="449"/>
      <point x="72" y="383"/>
      <point x="72" y="336" type="curve" smooth="yes"/>
      <point x="72" y="113"/>
      <point x="215" y="-20"/>
    </contour>
  </outline>
</glyph>
<glyph name="uni01B3" format="2">
  <advance width="1042"/>
  <unicode hex="01B3"/>
  <anchor x="387" y="0" name="bottom"/>
  <anchor x="696" y="1462" name="top"/>
  <outline>
    <contour>
      <point x="211" y="0" type="line"/>
      <point x="553" y="0" type="line"/>
      <point x="672" y="561" type="line"/>
      <point x="993" y="1118" type="line" smooth="yes"/>
      <point x="1018" y="1163"/>
      <point x="1038" y="1196"/>
      <point x="1102" y="1196" type="curve" smooth="yes"/>
      <point x="1143" y="1196"/>
      <point x="1176" y="1186"/>
      <point x="1188" y="1178" type="curve"/>
      <point x="1188" y="1458" type="line"/>
      <point x="1155" y="1470"/>
      <point x="1096" y="1483"/>
      <point x="1057" y="1483" type="curve" smooth="yes"/>
      <point x="928" y="1483"/>
      <point x="819" y="1450"/>
      <point x="741" y="1298" type="curve" smooth="yes"/>
      <point x="586" y="993" type="line"/>
      <point x="547" y="1462" type="line"/>
      <point x="190" y="1462" type="line"/>
      <point x="326" y="549" type="line"/>
    </contour>
  </outline>
</glyph>
<glyph name="uni01B6" format="2">
  <advance width="801"/>
  <unicode hex="01B6"/>
  <anchor x="287" y="0" name="bottom"/>
  <anchor x="516" y="1085" name="top"/>
  <outline>
    <contour>
      <point x="-86" y="0" type="line"/>
      <point x="643" y="0" type="line"/>
      <point x="700" y="276" type="line"/>
      <point x="362" y="276" type="line"/>
      <point x="483" y="444" type="line"/>
      <point x="729" y="444" type="line"/>
      <point x="784" y="702" type="line"/>
      <point x="668" y="702" type="line"/>
      <point x="823" y="920" type="line"/>
      <point x="868" y="1133" type="line"/>
      <point x="174" y="1133" type="line"/>
      <point x="115" y="856" type="line"/>
      <point x="434" y="856" type="line"/>
      <point x="324" y="702" type="line"/>
      <point x="86" y="702" type="line"/>
      <point x="31" y="444" type="line"/>
      <point x="135" y="444" type="line"/>
      <point x="-45" y="195" type="line"/>
    </contour>
  </outline>
</glyph>
<glyph name="uni01B8" format="2">
  <advance width="983"/>
  <unicode hex="01B8"/>
  <anchor x="377" y="0" name="bottom"/>
  <anchor x="686" y="1462" name="top"/>
  <outline>
    <contour>
      <point x="465" y="-20" type="curve" smooth="yes"/>
      <point x="578" y="-20"/>
      <point x="739" y="8"/>
      <point x="850" y="61" type="curve"/>
      <point x="850" y="367" type="line"/>
      <point x="756" y="315"/>
      <point x="631" y="281"/>
      <point x="530" y="281" type="curve" smooth="yes"/>
      <point x="446" y="281"/>
      <point x="395" y="311"/>
      <point x="395" y="391" type="curve" smooth="yes"/>
      <point x="395" y="537"/>
      <point x="492" y="594"/>
      <point x="645" y="594" type="curve" smooth="yes"/>
      <point x="772" y="594" type="line"/>
      <point x="823" y="834" type="line"/>
      <point x="621" y="1167" type="line"/>
      <point x="977" y="1167" type="line"/>
      <point x="1038" y="1462" type="line"/>
      <point x="291" y="1462" type="line"/>
      <point x="233" y="1190" type="line"/>
      <point x="434" y="862" type="line"/>
      <point x="190" y="801"/>
      <point x="33" y="637"/>
      <point x="33" y="346" type="curve" smooth="yes"/>
      <point x="33" y="84"/>
      <point x="188" y="-20"/>
    </contour>
  </outline>
</glyph>
<glyph name="uni01B9" format="2">
  <advance width="932"/>
  <unicode hex="01B9"/>
  <anchor x="248" y="-492" name="bottom"/>
  <anchor x="582" y="1085" name="top"/>
  <outline>
    <contour>
      <point x="371" y="-492" type="curve" smooth="yes"/>
      <point x="483" y="-492"/>
      <point x="645" y="-461"/>
      <point x="756" y="-401" type="curve"/>
      <point x="756" y="-96" type="line"/>
      <point x="662" y="-164"/>
      <point x="537" y="-209"/>
      <point x="436" y="-209" type="curve" smooth="yes"/>
      <point x="352" y="-209"/>
      <point x="289" y="-168"/>
      <point x="289" y="-55" type="curve" smooth="yes"/>
      <point x="289" y="133"/>
      <point x="414" y="236"/>
      <point x="567" y="236" type="curve" smooth="yes"/>
      <point x="680" y="236" type="line"/>
      <point x="727" y="457" type="line"/>
      <point x="504" y="856" type="line"/>
      <point x="895" y="856" type="line"/>
      <point x="956" y="1133" type="line"/>
      <point x="209" y="1133" type="line"/>
      <point x="152" y="860" type="line"/>
      <point x="373" y="485" type="line"/>
      <point x="129" y="430"/>
      <point x="-49" y="233"/>
      <point x="-49" y="-84" type="curve" smooth="yes"/>
      <point x="-49" y="-365"/>
      <point x="104" y="-492"/>
    </contour>
  </outline>
</glyph>
<glyph name="uni01BA" format="2">
  <advance width="805"/>
  <unicode hex="01BA"/>
  <anchor x="184" y="-492" name="bottom"/>
  <anchor x="518" y="1085" name="top"/>
  <outline>
    <contour>
      <point x="223" y="-492" type="curve" smooth="yes"/>
      <point x="360" y="-492"/>
      <point x="463" y="-471"/>
      <point x="539" y="-442" type="curve"/>
      <point x="539" y="-166" type="line"/>
      <point x="487" y="-190"/>
      <point x="383" y="-213"/>
      <point x="291" y="-213" type="curve" smooth="yes"/>
      <point x="223" y="-213"/>
      <point x="201" y="-180"/>
      <point x="201" y="-141" type="curve" smooth="yes"/>
      <point x="201" y="-70"/>
      <point x="252" y="-31"/>
      <point x="395" y="-4" type="curve" smooth="yes"/>
      <point x="549" y="25"/>
      <point x="692" y="147"/>
      <point x="692" y="354" type="curve" smooth="yes"/>
      <point x="692" y="494"/>
      <point x="637" y="602"/>
      <point x="510" y="659" type="curve"/>
      <point x="788" y="920" type="line"/>
      <point x="834" y="1133" type="line"/>
      <point x="139" y="1133" type="line"/>
      <point x="80" y="856" type="line"/>
      <point x="371" y="856" type="line"/>
      <point x="172" y="682" type="line"/>
      <point x="125" y="461" type="line"/>
      <point x="231" y="461" type="line" smooth="yes"/>
      <point x="313" y="461"/>
      <point x="362" y="432"/>
      <point x="362" y="377" type="curve" smooth="yes"/>
      <point x="362" y="313"/>
      <point x="336" y="276"/>
      <point x="209" y="246" type="curve" smooth="yes"/>
      <point x="-16" y="190"/>
      <point x="-121" y="57"/>
      <point x="-121" y="-164" type="curve" smooth="yes"/>
      <point x="-121" y="-387"/>
      <point x="16" y="-492"/>
    </contour>
  </outline>
</glyph>
<glyph name="uni01BB" format="2">
  <advance width="971"/>
  <unicode hex="01BB"/>
  <anchor x="371" y="0" name="bottom"/>
  <anchor x="705" y="1577" name="top"/>
  <outline>
    <contour>
      <point x="-78" y="0" type="line"/>
      <point x="719" y="0" type="line"/>
      <point x="778" y="279" type="line"/>
      <point x="362" y="279" type="line"/>
      <point x="362" y="285" type="line"/>
      <point x="647" y="629" type="line"/>
      <point x="920" y="629" type="line"/>
      <point x="977" y="901" type="line"/>
      <point x="844" y="901" type="line"/>
      <point x="903" y="1008"/>
      <point x="942" y="1116"/>
      <point x="942" y="1235" type="curve" smooth="yes"/>
      <point x="942" y="1438"/>
      <point x="807" y="1577"/>
      <point x="616" y="1577" type="curve" smooth="yes"/>
      <point x="438" y="1577"/>
      <point x="307" y="1526"/>
      <point x="178" y="1382" type="curve"/>
      <point x="287" y="1169" type="line"/>
      <point x="381" y="1260"/>
      <point x="457" y="1300"/>
      <point x="520" y="1300" type="curve" smooth="yes"/>
      <point x="575" y="1300"/>
      <point x="612" y="1264"/>
      <point x="612" y="1176" type="curve" smooth="yes"/>
      <point x="612" y="1100"/>
      <point x="563" y="1001"/>
      <point x="496" y="901" type="curve"/>
      <point x="178" y="901" type="line"/>
      <point x="121" y="629" type="line"/>
      <point x="289" y="629" type="line"/>
      <point x="-27" y="238" type="line"/>
    </contour>
  </outline>
</glyph>
<glyph name="uni01BC" format="2">
  <advance width="1004"/>
  <unicode hex="01BC"/>
  <anchor x="387" y="0" name="bottom"/>
  <anchor x="696" y="1462" name="top"/>
  <outline>
    <contour>
      <point x="346" y="-20" type="curve" smooth="yes"/>
      <point x="684" y="-20"/>
      <point x="915" y="188"/>
      <point x="915" y="498" type="curve" smooth="yes"/>
      <point x="915" y="686"/>
      <point x="801" y="866"/>
      <point x="586" y="866" type="curve" smooth="yes"/>
      <point x="573" y="866" type="line"/>
      <point x="637" y="1167" type="line"/>
      <point x="993" y="1167" type="line"/>
      <point x="1053" y="1462" type="line"/>
      <point x="268" y="1462" type="line"/>
      <point x="207" y="1167" type="line"/>
      <point x="311" y="1167" type="line"/>
      <point x="199" y="637" type="line"/>
      <point x="383" y="637" type="line" smooth="yes"/>
      <point x="481" y="637"/>
      <point x="561" y="608"/>
      <point x="561" y="508" type="curve" smooth="yes"/>
      <point x="561" y="356"/>
      <point x="475" y="281"/>
      <point x="322" y="281" type="curve" smooth="yes"/>
      <point x="213" y="281"/>
      <point x="70" y="324"/>
      <point x="-8" y="393" type="curve"/>
      <point x="-8" y="57" type="line"/>
      <point x="100" y="-4"/>
      <point x="209" y="-20"/>
    </contour>
  </outline>
</glyph>
<glyph name="uni01BD" format="2">
  <advance width="827"/>
  <unicode hex="01BD"/>
  <anchor x="299" y="0" name="bottom"/>
  <anchor x="528" y="1085" name="top"/>
  <outline>
    <contour>
      <point x="297" y="-20" type="curve" smooth="yes"/>
      <point x="573" y="-20"/>
      <point x="743" y="147"/>
      <point x="743" y="389" type="curve" smooth="yes"/>
      <point x="743" y="575"/>
      <point x="627" y="662"/>
      <point x="485" y="662" type="curve" smooth="yes"/>
      <point x="477" y="662" type="line"/>
      <point x="520" y="856" type="line"/>
      <point x="809" y="856" type="line"/>
      <point x="868" y="1133" type="line"/>
      <point x="174" y="1133" type="line"/>
      <point x="115" y="856" type="line"/>
      <point x="205" y="856" type="line"/>
      <point x="119" y="461" type="line"/>
      <point x="283" y="461" type="line" smooth="yes"/>
      <point x="377" y="461"/>
      <point x="414" y="430"/>
      <point x="414" y="369" type="curve" smooth="yes"/>
      <point x="414" y="301"/>
      <point x="354" y="256"/>
      <point x="262" y="256" type="curve" smooth="yes"/>
      <point x="178" y="256"/>
      <point x="74" y="281"/>
      <point x="-27" y="346" type="curve"/>
      <point x="-27" y="51" type="line"/>
      <point x="66" y="0"/>
      <point x="182" y="-20"/>
    </contour>
  </outline>
</glyph>
<glyph name="uni01C0" format="2">
  <advance width="655"/>
  <unicode hex="01C0"/>
  <anchor x="207" y="0" name="bottom"/>
  <anchor x="543" y="1579" name="top"/>
  <outline>
    <contour>
      <point x="63" y="0" type="line"/>
      <point x="350" y="0" type="line"/>
      <point x="686" y="1579" type="line"/>
      <point x="399" y="1579" type="line"/>
    </contour>
  </outline>
</glyph>
<glyph name="uni01C2" format="2">
  <advance width="868"/>
  <unicode hex="01C2"/>
  <anchor x="309" y="0" name="bottom"/>
  <anchor x="645" y="1577" name="top"/>
  <outline>
    <contour>
      <point x="164" y="0" type="line"/>
      <point x="453" y="0" type="line"/>
      <point x="553" y="467" type="line"/>
      <point x="784" y="467" type="line"/>
      <point x="840" y="729" type="line"/>
      <point x="608" y="729" type="line"/>
      <point x="643" y="889" type="line"/>
      <point x="874" y="889" type="line"/>
      <point x="930" y="1151" type="line"/>
      <point x="698" y="1151" type="line"/>
      <point x="788" y="1577" type="line"/>
      <point x="500" y="1577" type="line"/>
      <point x="410" y="1151" type="line"/>
      <point x="184" y="1151" type="line"/>
      <point x="129" y="889" type="line"/>
      <point x="354" y="889" type="line"/>
      <point x="319" y="729" type="line"/>
      <point x="94" y="729" type="line"/>
      <point x="39" y="467" type="line"/>
      <point x="264" y="467" type="line"/>
    </contour>
  </outline>
</glyph>
<glyph name="uni01E4" format="2">
  <advance width="1122"/>
  <unicode hex="01E4"/>
  <anchor x="446" y="0" name="bottom"/>
  <anchor x="756" y="1462" name="top"/>
  <outline>
    <contour>
      <point x="524" y="-20" type="curve" smooth="yes"/>
      <point x="621" y="-20"/>
      <point x="774" y="10"/>
      <point x="930" y="72" type="curve"/>
      <point x="993" y="375" type="line"/>
      <point x="1081" y="375" type="line"/>
      <point x="1126" y="590" type="line"/>
      <point x="1040" y="590" type="line"/>
      <point x="1112" y="932" type="line"/>
      <point x="633" y="932" type="line"/>
      <point x="580" y="678" type="line"/>
      <point x="721" y="678" type="line"/>
      <point x="702" y="590" type="line"/>
      <point x="551" y="590" type="line"/>
      <point x="506" y="375" type="line"/>
      <point x="657" y="375" type="line"/>
      <point x="641" y="293" type="line"/>
      <point x="610" y="285"/>
      <point x="580" y="281"/>
      <point x="553" y="281" type="curve" smooth="yes"/>
      <point x="473" y="281"/>
      <point x="432" y="352"/>
      <point x="432" y="492" type="curve" smooth="yes"/>
      <point x="432" y="778"/>
      <point x="575" y="1184"/>
      <point x="797" y="1184" type="curve" smooth="yes"/>
      <point x="883" y="1184"/>
      <point x="967" y="1153"/>
      <point x="1040" y="1100" type="curve"/>
      <point x="1186" y="1389" type="line"/>
      <point x="1108" y="1444"/>
      <point x="973" y="1483"/>
      <point x="831" y="1483" type="curve" smooth="yes"/>
      <point x="307" y="1483"/>
      <point x="74" y="918"/>
      <point x="74" y="457" type="curve" smooth="yes"/>
      <point x="74" y="156"/>
      <point x="215" y="-20"/>
    </contour>
  </outline>
</glyph>
<glyph name="uni01E5" format="2">
  <advance width="997"/>
  <unicode hex="01E5"/>
  <anchor x="281" y="-492" name="bottom"/>
  <anchor x="614" y="1085" name="top"/>
  <outline>
    <contour>
      <point x="272" y="-492" type="curve" smooth="yes"/>
      <point x="504" y="-492"/>
      <point x="666" y="-397"/>
      <point x="745" y="-160" type="curve"/>
      <point x="836" y="-160" type="line"/>
      <point x="877" y="35" type="line"/>
      <point x="793" y="35" type="line"/>
      <point x="1026" y="1133" type="line"/>
      <point x="739" y="1133" type="line"/>
      <point x="692" y="997" type="line"/>
      <point x="688" y="997" type="line"/>
      <point x="655" y="1108"/>
      <point x="602" y="1153"/>
      <point x="489" y="1153" type="curve" smooth="yes"/>
      <point x="174" y="1153"/>
      <point x="51" y="717"/>
      <point x="51" y="422" type="curve" smooth="yes"/>
      <point x="51" y="217"/>
      <point x="145" y="106"/>
      <point x="283" y="106" type="curve" smooth="yes"/>
      <point x="373" y="106"/>
      <point x="438" y="133"/>
      <point x="508" y="223" type="curve"/>
      <point x="514" y="223" type="line"/>
      <point x="498" y="172"/>
      <point x="485" y="127"/>
      <point x="477" y="92" type="curve" smooth="yes"/>
      <point x="465" y="35" type="line"/>
      <point x="240" y="35" type="line"/>
      <point x="199" y="-160" type="line"/>
      <point x="412" y="-160" type="line"/>
      <point x="383" y="-209"/>
      <point x="336" y="-240"/>
      <point x="262" y="-240" type="curve" smooth="yes"/>
      <point x="156" y="-240"/>
      <point x="14" y="-197"/>
      <point x="-57" y="-154" type="curve"/>
      <point x="-57" y="-422" type="line"/>
      <point x="20" y="-463"/>
      <point x="139" y="-492"/>
    </contour>
    <contour>
      <point x="444" y="393" type="curve" smooth="yes"/>
      <point x="412" y="393"/>
      <point x="395" y="430"/>
      <point x="395" y="506" type="curve" smooth="yes"/>
      <point x="395" y="604"/>
      <point x="432" y="868"/>
      <point x="543" y="868" type="curve" smooth="yes"/>
      <point x="584" y="868"/>
      <point x="606" y="836"/>
      <point x="606" y="780" type="curve" smooth="yes"/>
      <point x="606" y="639"/>
      <point x="561" y="393"/>
    </contour>
  </outline>
</glyph>
<glyph name="uni01F7" format="2">
  <advance width="1133"/>
  <unicode hex="01F7"/>
  <anchor x="348" y="-492" name="bottom"/>
  <anchor x="762" y="1462" name="top"/>
  <outline>
    <contour>
      <point x="-119" y="-492" type="line"/>
      <point x="223" y="-492" type="line"/>
      <point x="326" y="-16" type="line"/>
      <point x="821" y="246"/>
      <point x="1163" y="547"/>
      <point x="1163" y="1120" type="curve" smooth="yes"/>
      <point x="1163" y="1343"/>
      <point x="1053" y="1483"/>
      <point x="815" y="1483" type="curve" smooth="yes"/>
      <point x="713" y="1483"/>
      <point x="635" y="1432"/>
      <point x="563" y="1331" type="curve"/>
      <point x="559" y="1331" type="line"/>
      <point x="571" y="1462" type="line"/>
      <point x="299" y="1462" type="line"/>
    </contour>
    <contour>
      <point x="397" y="350" type="curve"/>
      <point x="522" y="905" type="line" smooth="yes"/>
      <point x="567" y="1102"/>
      <point x="614" y="1176"/>
      <point x="713" y="1176" type="curve" smooth="yes"/>
      <point x="778" y="1176"/>
      <point x="811" y="1120"/>
      <point x="811" y="1020" type="curve" smooth="yes"/>
      <point x="811" y="743"/>
      <point x="655" y="559"/>
    </contour>
  </outline>
</glyph>
<glyph name="Aringacute" format="2">
  <advance width="1090"/>
  <unicode hex="01FA"/>
  <anchor x="430" y="0" name="bottom"/>
  <anchor x="848" y="1974" name="top"/>
  <outline>
    <contour>
      <point x="-119" y="0" type="line"/>
      <point x="256" y="0" type="line"/>
      <point x="365" y="285" type="line"/>
      <point x="614" y="285" type="line"/>
      <point x="606" y="0" type="line"/>
      <point x="971" y="0" type="line"/>
      <point x="948" y="1356" type="line"/>
      <point x="971" y="1395"/>
      <point x="983" y="1442"/>
      <point x="983" y="1493" type="curve" smooth="yes"/>
      <point x="983" y="1632"/>
      <point x="877" y="1737"/>
      <point x="729" y="1737" type="curve" smooth="yes"/>
      <point x="573" y="1737"/>
      <point x="473" y="1638"/>
      <point x="473" y="1489" type="curve" smooth="yes"/>
      <point x="473" y="1458"/>
      <point x="477" y="1430"/>
      <point x="483" y="1405" type="curve"/>
    </contour>
    <contour>
      <point x="477" y="582" type="line"/>
      <point x="604" y="967" type="line" smooth="yes"/>
      <point x="627" y="1034"/>
      <point x="643" y="1092"/>
      <point x="655" y="1163" type="curve"/>
      <point x="662" y="1163" type="line"/>
      <point x="653" y="1087"/>
      <point x="651" y="1026"/>
      <point x="649" y="961" type="curve" smooth="yes"/>
      <point x="633" y="582" type="line"/>
    </contour>
    <contour>
      <point x="729" y="1397" type="curve" smooth="yes"/>
      <point x="666" y="1397"/>
      <point x="637" y="1432"/>
      <point x="637" y="1487" type="curve" smooth="yes"/>
      <point x="637" y="1540"/>
      <point x="672" y="1579"/>
      <point x="729" y="1579" type="curve" smooth="yes"/>
      <point x="784" y="1579"/>
      <point x="819" y="1540"/>
      <point x="819" y="1487" type="curve" smooth="yes"/>
      <point x="819" y="1432"/>
      <point x="782" y="1397"/>
    </contour>
    <contour>
      <point x="641" y="1790" type="line"/>
      <point x="915" y="1790" type="line"/>
      <point x="979" y="1827"/>
      <point x="1122" y="1921"/>
      <point x="1186" y="1968" type="curve"/>
      <point x="1188" y="1974" type="line"/>
      <point x="805" y="1974" type="line"/>
      <point x="756" y="1911"/>
      <point x="698" y="1855"/>
      <point x="643" y="1800" type="curve"/>
    </contour>
  </outline>
</glyph>
<glyph name="uni021C" format="2">
  <advance width="1051"/>
  <unicode hex="021C"/>
  <anchor x="369" y="-233" name="bottom"/>
  <anchor x="670" y="1462" name="top"/>
  <outline>
    <contour>
      <point x="-106" y="-369" type="line"/>
      <point x="457" y="-240"/>
      <point x="954" y="-12"/>
      <point x="954" y="471" type="curve" smooth="yes"/>
      <point x="954" y="604"/>
      <point x="895" y="688"/>
      <point x="825" y="750" type="curve"/>
      <point x="971" y="844"/>
      <point x="1061" y="973"/>
      <point x="1061" y="1159" type="curve" smooth="yes"/>
      <point x="1061" y="1366"/>
      <point x="915" y="1483"/>
      <point x="674" y="1483" type="curve" smooth="yes"/>
      <point x="492" y="1483"/>
      <point x="348" y="1440"/>
      <point x="201" y="1337" type="curve"/>
      <point x="311" y="1092" type="line"/>
      <point x="387" y="1143"/>
      <point x="500" y="1184"/>
      <point x="578" y="1184" type="curve" smooth="yes"/>
      <point x="641" y="1184"/>
      <point x="700" y="1155"/>
      <point x="700" y="1081" type="curve" smooth="yes"/>
      <point x="700" y="924"/>
      <point x="532" y="872"/>
      <point x="307" y="813" type="curve"/>
      <point x="319" y="551" type="line"/>
      <point x="406" y="571"/>
      <point x="485" y="594"/>
      <point x="555" y="618" type="curve"/>
      <point x="584" y="582"/>
      <point x="602" y="537"/>
      <point x="602" y="477" type="curve" smooth="yes"/>
      <point x="602" y="176"/>
      <point x="342" y="43"/>
      <point x="-41" y="-61" type="curve"/>
    </contour>
  </outline>
</glyph>
<glyph name="uni0222" format="2">
  <advance width="1120"/>
  <unicode hex="0222"/>
  <anchor x="446" y="0" name="bottom"/>
  <anchor x="756" y="1462" name="top"/>
  <outline>
    <contour>
      <point x="516" y="-20" type="curve" smooth="yes"/>
      <point x="897" y="-20"/>
      <point x="1051" y="274"/>
      <point x="1051" y="575" type="curve" smooth="yes"/>
      <point x="1051" y="698"/>
      <point x="1008" y="795"/>
      <point x="936" y="860" type="curve"/>
      <point x="1024" y="932"/>
      <point x="1077" y="1040"/>
      <point x="1110" y="1194" type="curve" smooth="yes"/>
      <point x="1167" y="1462" type="line"/>
      <point x="825" y="1462" type="line"/>
      <point x="768" y="1192" type="line" smooth="yes"/>
      <point x="743" y="1077"/>
      <point x="707" y="1026"/>
      <point x="639" y="1026" type="curve" smooth="yes"/>
      <point x="588" y="1026"/>
      <point x="567" y="1049"/>
      <point x="567" y="1106" type="curve" smooth="yes"/>
      <point x="567" y="1137"/>
      <point x="573" y="1176"/>
      <point x="584" y="1225" type="curve" smooth="yes"/>
      <point x="633" y="1462" type="line"/>
      <point x="291" y="1462" type="line"/>
      <point x="250" y="1268" type="line" smooth="yes"/>
      <point x="236" y="1202"/>
      <point x="225" y="1126"/>
      <point x="225" y="1083" type="curve" smooth="yes"/>
      <point x="225" y="1008"/>
      <point x="242" y="942"/>
      <point x="276" y="891" type="curve"/>
      <point x="106" y="778"/>
      <point x="55" y="575"/>
      <point x="55" y="414" type="curve" smooth="yes"/>
      <point x="55" y="123"/>
      <point x="262" y="-20"/>
    </contour>
    <contour>
      <point x="528" y="285" type="curve" smooth="yes"/>
      <point x="446" y="285"/>
      <point x="412" y="350"/>
      <point x="412" y="461" type="curve" smooth="yes"/>
      <point x="412" y="592"/>
      <point x="461" y="752"/>
      <point x="582" y="752" type="curve" smooth="yes"/>
      <point x="659" y="752"/>
      <point x="694" y="698"/>
      <point x="694" y="586" type="curve" smooth="yes"/>
      <point x="694" y="457"/>
      <point x="643" y="285"/>
    </contour>
  </outline>
</glyph>
<glyph name="uni0223" format="2">
  <advance width="993"/>
  <unicode hex="0223"/>
  <anchor x="383" y="0" name="bottom"/>
  <anchor x="612" y="1085" name="top"/>
  <outline>
    <contour>
      <point x="426" y="-20" type="curve" smooth="yes"/>
      <point x="821" y="-20"/>
      <point x="932" y="387"/>
      <point x="932" y="616" type="curve" smooth="yes"/>
      <point x="932" y="737"/>
      <point x="897" y="825"/>
      <point x="834" y="885" type="curve"/>
      <point x="920" y="942"/>
      <point x="975" y="1040"/>
      <point x="1008" y="1198" type="curve" smooth="yes"/>
      <point x="1081" y="1556" type="line"/>
      <point x="754" y="1556" type="line"/>
      <point x="682" y="1206" type="line" smooth="yes"/>
      <point x="655" y="1071"/>
      <point x="627" y="1034"/>
      <point x="569" y="1034" type="curve" smooth="yes"/>
      <point x="539" y="1034"/>
      <point x="518" y="1069"/>
      <point x="518" y="1106" type="curve" smooth="yes"/>
      <point x="518" y="1155"/>
      <point x="528" y="1206"/>
      <point x="541" y="1262" type="curve" smooth="yes"/>
      <point x="602" y="1556" type="line"/>
      <point x="274" y="1556" type="line"/>
      <point x="223" y="1317" type="line" smooth="yes"/>
      <point x="205" y="1229"/>
      <point x="193" y="1145"/>
      <point x="193" y="1069" type="curve" smooth="yes"/>
      <point x="193" y="983"/>
      <point x="223" y="924"/>
      <point x="272" y="885" type="curve"/>
      <point x="100" y="784"/>
      <point x="35" y="537"/>
      <point x="35" y="352" type="curve" smooth="yes"/>
      <point x="35" y="119"/>
      <point x="190" y="-20"/>
    </contour>
    <contour>
      <point x="444" y="256" type="curve" smooth="yes"/>
      <point x="393" y="256"/>
      <point x="365" y="315"/>
      <point x="365" y="385" type="curve" smooth="yes"/>
      <point x="365" y="526"/>
      <point x="416" y="758"/>
      <point x="524" y="758" type="curve" smooth="yes"/>
      <point x="573" y="758"/>
      <point x="602" y="702"/>
      <point x="602" y="633" type="curve" smooth="yes"/>
      <point x="602" y="496"/>
      <point x="547" y="256"/>
    </contour>
  </outline>
</glyph>
<glyph name="uni0236" format="2">
  <advance width="918"/>
  <unicode hex="0236"/>
  <anchor x="344" y="0" name="bottom"/>
  <anchor x="631" y="1360" name="top"/>
  <outline>
    <contour>
      <point x="35" y="-82" type="line"/>
      <point x="76" y="-8"/>
      <point x="109" y="49"/>
      <point x="150" y="106" type="curve"/>
      <point x="221" y="14"/>
      <point x="350" y="-20"/>
      <point x="483" y="-20" type="curve" smooth="yes"/>
      <point x="715" y="-20"/>
      <point x="864" y="96"/>
      <point x="864" y="295" type="curve" smooth="yes"/>
      <point x="864" y="446"/>
      <point x="764" y="569"/>
      <point x="586" y="569" type="curve" smooth="yes"/>
      <point x="543" y="569"/>
      <point x="502" y="565"/>
      <point x="459" y="557" type="curve"/>
      <point x="522" y="860" type="line"/>
      <point x="715" y="860" type="line"/>
      <point x="772" y="1133" type="line"/>
      <point x="580" y="1133" type="line"/>
      <point x="629" y="1360" type="line"/>
      <point x="397" y="1360" type="line"/>
      <point x="283" y="1122" type="line"/>
      <point x="127" y="1030" type="line"/>
      <point x="92" y="860" type="line"/>
      <point x="195" y="860" type="line"/>
      <point x="113" y="477" type="line" smooth="yes"/>
      <point x="98" y="412"/>
      <point x="92" y="365"/>
      <point x="90" y="322" type="curve"/>
      <point x="23" y="238"/>
      <point x="-45" y="131"/>
      <point x="-111" y="-8" type="curve"/>
    </contour>
    <contour>
      <point x="541" y="162" type="curve" smooth="yes"/>
      <point x="471" y="162"/>
      <point x="406" y="223"/>
      <point x="426" y="367" type="curve"/>
      <point x="471" y="385"/>
      <point x="502" y="387"/>
      <point x="532" y="387" type="curve" smooth="yes"/>
      <point x="623" y="387"/>
      <point x="659" y="342"/>
      <point x="659" y="270" type="curve" smooth="yes"/>
      <point x="659" y="215"/>
      <point x="616" y="162"/>
    </contour>
  </outline>
</glyph>
<glyph name="uni023C" format="2">
  <advance width="815"/>
  <unicode hex="023C"/>
  <anchor x="223" y="-297" name="bottom"/>
  <anchor x="588" y="1413" name="top"/>
  <outline>
    <contour>
      <point x="229" y="-297" type="line"/>
      <point x="381" y="-297" type="line"/>
      <point x="842" y="1413" type="line"/>
      <point x="692" y="1413" type="line"/>
    </contour>
    <component base="c"/>
  </outline>
</glyph>
<glyph name="uni023D" format="2">
  <advance width="819"/>
  <unicode hex="023D"/>
  <anchor x="295" y="0" name="bottom"/>
  <anchor x="604" y="1462" name="top"/>
  <outline>
    <contour>
      <point x="-10" y="0" type="line"/>
      <point x="676" y="0" type="line"/>
      <point x="737" y="299" type="line"/>
      <point x="393" y="299" type="line"/>
      <point x="465" y="631" type="line"/>
      <point x="676" y="631" type="line"/>
      <point x="729" y="887" type="line"/>
      <point x="518" y="887" type="line"/>
      <point x="641" y="1462" type="line"/>
      <point x="299" y="1462" type="line"/>
      <point x="178" y="887" type="line"/>
      <point x="70" y="887" type="line"/>
      <point x="14" y="631" type="line"/>
      <point x="123" y="631" type="line"/>
    </contour>
  </outline>
</glyph>
<glyph name="uni023E" format="2">
  <advance width="879"/>
  <unicode hex="023E"/>
  <anchor x="326" y="0" name="bottom"/>
  <anchor x="635" y="1462" name="top"/>
  <outline>
    <contour>
      <point x="-139" y="-68" type="line"/>
      <point x="33" y="-68" type="line"/>
      <point x="985" y="1642" type="line"/>
      <point x="815" y="1642" type="line"/>
    </contour>
    <component base="T"/>
  </outline>
</glyph>
<glyph name="uni0241" format="2">
  <advance width="911"/>
  <unicode hex="0241"/>
  <anchor x="342" y="0" name="bottom"/>
  <anchor x="651" y="1462" name="top"/>
  <outline>
    <contour>
      <point x="98" y="0" type="line"/>
      <point x="438" y="0" type="line"/>
      <point x="567" y="543" type="line"/>
      <point x="799" y="668"/>
      <point x="956" y="860"/>
      <point x="956" y="1104" type="curve" smooth="yes"/>
      <point x="956" y="1370"/>
      <point x="811" y="1483"/>
      <point x="606" y="1483" type="curve" smooth="yes"/>
      <point x="467" y="1483"/>
      <point x="352" y="1454"/>
      <point x="213" y="1352" type="curve"/>
      <point x="274" y="1092" type="line"/>
      <point x="373" y="1161"/>
      <point x="461" y="1188"/>
      <point x="508" y="1188" type="curve" smooth="yes"/>
      <point x="567" y="1188"/>
      <point x="604" y="1149"/>
      <point x="604" y="1071" type="curve" smooth="yes"/>
      <point x="604" y="940"/>
      <point x="504" y="791"/>
      <point x="250" y="670" type="curve"/>
    </contour>
  </outline>
</glyph>
<glyph name="uni0242" format="2">
  <advance width="862"/>
  <unicode hex="0242"/>
  <anchor x="317" y="0" name="bottom"/>
  <anchor x="547" y="1085" name="top"/>
  <outline>
    <contour>
      <point x="49" y="0" type="line"/>
      <point x="377" y="0" type="line"/>
      <point x="424" y="213" type="line"/>
      <point x="655" y="338"/>
      <point x="815" y="530"/>
      <point x="815" y="774" type="curve" smooth="yes"/>
      <point x="815" y="1040"/>
      <point x="680" y="1153"/>
      <point x="475" y="1153" type="curve" smooth="yes"/>
      <point x="336" y="1153"/>
      <point x="213" y="1108"/>
      <point x="80" y="1022" type="curve"/>
      <point x="143" y="780" type="line"/>
      <point x="242" y="850"/>
      <point x="330" y="877"/>
      <point x="377" y="877" type="curve" smooth="yes"/>
      <point x="436" y="877"/>
      <point x="483" y="840"/>
      <point x="483" y="766" type="curve" smooth="yes"/>
      <point x="483" y="610"/>
      <point x="362" y="430"/>
      <point x="109" y="309" type="curve"/>
    </contour>
  </outline>
</glyph>
<glyph name="uni0243" format="2">
  <advance width="1059"/>
  <unicode hex="0243"/>
  <anchor x="416" y="0" name="bottom"/>
  <anchor x="725" y="1462" name="top"/>
  <outline>
    <contour>
      <point x="-10" y="0" type="line"/>
      <point x="457" y="0" type="line" smooth="yes"/>
      <point x="754" y="0"/>
      <point x="969" y="238"/>
      <point x="969" y="524" type="curve" smooth="yes"/>
      <point x="969" y="629"/>
      <point x="920" y="727"/>
      <point x="821" y="766" type="curve"/>
      <point x="823" y="776" type="line"/>
      <point x="1001" y="842"/>
      <point x="1085" y="995"/>
      <point x="1085" y="1174" type="curve" smooth="yes"/>
      <point x="1085" y="1397"/>
      <point x="877" y="1462"/>
      <point x="696" y="1462" type="curve" smooth="yes"/>
      <point x="299" y="1462" type="line"/>
      <point x="109" y="565" type="line"/>
      <point x="6" y="565" type="line"/>
      <point x="-41" y="350" type="line"/>
      <point x="63" y="350" type="line"/>
    </contour>
    <contour>
      <point x="385" y="254" type="line"/>
      <point x="406" y="350" type="line"/>
      <point x="506" y="350" type="line"/>
      <point x="551" y="565" type="line"/>
      <point x="453" y="565" type="line"/>
      <point x="471" y="655" type="line"/>
      <point x="535" y="655" type="line" smooth="yes"/>
      <point x="594" y="655"/>
      <point x="616" y="625"/>
      <point x="616" y="512" type="curve" smooth="yes"/>
      <point x="616" y="367"/>
      <point x="561" y="254"/>
      <point x="453" y="254" type="curve" smooth="yes"/>
    </contour>
    <contour>
      <point x="520" y="893" type="line"/>
      <point x="582" y="1180" type="line"/>
      <point x="631" y="1180" type="line" smooth="yes"/>
      <point x="692" y="1180"/>
      <point x="723" y="1149"/>
      <point x="723" y="1090" type="curve" smooth="yes"/>
      <point x="723" y="993"/>
      <point x="666" y="893"/>
      <point x="575" y="893" type="curve" smooth="yes"/>
    </contour>
  </outline>
</glyph>
<glyph name="uni0244" format="2">
  <advance width="1114"/>
  <unicode hex="0244"/>
  <anchor x="442" y="0" name="bottom"/>
  <anchor x="752" y="1462" name="top"/>
  <outline>
    <contour>
      <point x="451" y="-20" type="curve" smooth="yes"/>
      <point x="764" y="-20"/>
      <point x="924" y="143"/>
      <point x="989" y="453" type="curve" smooth="yes"/>
      <point x="1028" y="631" type="line"/>
      <point x="1133" y="631" type="line"/>
      <point x="1186" y="887" type="line"/>
      <point x="1081" y="887" type="line"/>
      <point x="1204" y="1462" type="line"/>
      <point x="862" y="1462" type="line"/>
      <point x="739" y="887" type="line"/>
      <point x="516" y="887" type="line"/>
      <point x="637" y="1462" type="line"/>
      <point x="295" y="1462" type="line"/>
      <point x="172" y="887" type="line"/>
      <point x="74" y="887" type="line"/>
      <point x="18" y="631" type="line"/>
      <point x="119" y="631" type="line"/>
      <point x="92" y="510" type="line" smooth="yes"/>
      <point x="80" y="449"/>
      <point x="72" y="383"/>
      <point x="72" y="336" type="curve" smooth="yes"/>
      <point x="72" y="113"/>
      <point x="215" y="-20"/>
    </contour>
    <contour>
      <point x="498" y="285" type="curve" smooth="yes"/>
      <point x="446" y="285"/>
      <point x="420" y="317"/>
      <point x="420" y="395" type="curve" smooth="yes"/>
      <point x="420" y="424"/>
      <point x="424" y="463"/>
      <point x="434" y="504" type="curve"/>
      <point x="461" y="631" type="line"/>
      <point x="684" y="631" type="line"/>
      <point x="657" y="506" type="line" smooth="yes"/>
      <point x="623" y="342"/>
      <point x="578" y="285"/>
    </contour>
  </outline>
</glyph>
<glyph name="uni0249" format="2">
  <advance width="516"/>
  <unicode hex="0249"/>
  <anchor x="39" y="-492" name="bottom"/>
  <anchor x="479" y="1589" name="top"/>
  <outline>
    <contour>
      <point x="-104" y="-492" type="curve" smooth="yes"/>
      <point x="141" y="-492"/>
      <point x="229" y="-348"/>
      <point x="283" y="-92" type="curve" smooth="yes"/>
      <point x="397" y="444" type="line"/>
      <point x="496" y="444" type="line"/>
      <point x="551" y="702" type="line"/>
      <point x="451" y="702" type="line"/>
      <point x="543" y="1133" type="line"/>
      <point x="217" y="1133" type="line"/>
      <point x="125" y="702" type="line"/>
      <point x="37" y="702" type="line"/>
      <point x="-18" y="444" type="line"/>
      <point x="72" y="444" type="line"/>
      <point x="-37" y="-66" type="line" smooth="yes"/>
      <point x="-57" y="-162"/>
      <point x="-82" y="-205"/>
      <point x="-154" y="-205" type="curve" smooth="yes"/>
      <point x="-178" y="-205"/>
      <point x="-231" y="-197"/>
      <point x="-256" y="-184" type="curve"/>
      <point x="-256" y="-469" type="line"/>
      <point x="-201" y="-489"/>
      <point x="-154" y="-492"/>
    </contour>
    <contour>
      <point x="412" y="1243" type="curve" smooth="yes"/>
      <point x="537" y="1243"/>
      <point x="621" y="1339"/>
      <point x="621" y="1464" type="curve" smooth="yes"/>
      <point x="621" y="1548"/>
      <point x="565" y="1589"/>
      <point x="469" y="1589" type="curve" smooth="yes"/>
      <point x="322" y="1589"/>
      <point x="260" y="1468"/>
      <point x="260" y="1368" type="curve" smooth="yes"/>
      <point x="260" y="1284"/>
      <point x="311" y="1243"/>
    </contour>
  </outline>
</glyph>
<glyph name="uni024A" format="2">
  <advance width="1210"/>
  <unicode hex="024A"/>
  <anchor x="387" y="-492" name="bottom"/>
  <anchor x="801" y="1462" name="top"/>
  <outline>
    <contour>
      <point x="844" y="-492" type="curve" smooth="yes"/>
      <point x="915" y="-492"/>
      <point x="1028" y="-469"/>
      <point x="1102" y="-424" type="curve"/>
      <point x="1102" y="-152" type="line"/>
      <point x="1069" y="-170"/>
      <point x="1022" y="-186"/>
      <point x="997" y="-186" type="curve" smooth="yes"/>
      <point x="971" y="-186"/>
      <point x="956" y="-166"/>
      <point x="956" y="-139" type="curve" smooth="yes"/>
      <point x="956" y="-117"/>
      <point x="958" y="-104"/>
      <point x="963" y="-88" type="curve" smooth="yes"/>
      <point x="1294" y="1462" type="line"/>
      <point x="983" y="1462" type="line"/>
      <point x="918" y="1298" type="line"/>
      <point x="911" y="1298" type="line"/>
      <point x="866" y="1419"/>
      <point x="786" y="1485"/>
      <point x="657" y="1485" type="curve" smooth="yes"/>
      <point x="285" y="1485"/>
      <point x="78" y="936"/>
      <point x="78" y="475" type="curve" smooth="yes"/>
      <point x="78" y="133"/>
      <point x="174" y="-20"/>
      <point x="385" y="-20" type="curve" smooth="yes"/>
      <point x="535" y="-20"/>
      <point x="614" y="43"/>
      <point x="684" y="162" type="curve"/>
      <point x="690" y="162" type="line"/>
      <point x="672" y="109"/>
      <point x="653" y="53"/>
      <point x="641" y="0" type="curve" smooth="yes"/>
      <point x="625" y="-70" type="line" smooth="yes"/>
      <point x="610" y="-127"/>
      <point x="602" y="-195"/>
      <point x="602" y="-250" type="curve" smooth="yes"/>
      <point x="602" y="-401"/>
      <point x="688" y="-492"/>
    </contour>
    <contour>
      <point x="528" y="285" type="curve" smooth="yes"/>
      <point x="469" y="285"/>
      <point x="436" y="319"/>
      <point x="436" y="473" type="curve" smooth="yes"/>
      <point x="436" y="711"/>
      <point x="545" y="1186"/>
      <point x="733" y="1186" type="curve" smooth="yes"/>
      <point x="799" y="1186"/>
      <point x="842" y="1118"/>
      <point x="842" y="1012" type="curve" smooth="yes"/>
      <point x="842" y="946"/>
      <point x="827" y="872"/>
      <point x="813" y="805" type="curve" smooth="yes"/>
      <point x="766" y="586" type="line" smooth="yes"/>
      <point x="735" y="442"/>
      <point x="672" y="285"/>
    </contour>
  </outline>
</glyph>
<glyph name="uni024B" format="2">
  <advance width="997"/>
  <unicode hex="024B"/>
  <anchor x="281" y="-496" name="bottom"/>
  <anchor x="614" y="1085" name="top"/>
  <outline>
    <contour>
      <point x="674" y="-496" type="curve" smooth="yes"/>
      <point x="754" y="-496"/>
      <point x="831" y="-483"/>
      <point x="870" y="-471" type="curve"/>
      <point x="870" y="-190" type="line"/>
      <point x="856" y="-201"/>
      <point x="825" y="-209"/>
      <point x="807" y="-209" type="curve" smooth="yes"/>
      <point x="782" y="-209"/>
      <point x="756" y="-201"/>
      <point x="756" y="-166" type="curve" smooth="yes"/>
      <point x="756" y="-143"/>
      <point x="758" y="-127"/>
      <point x="764" y="-96" type="curve" smooth="yes"/>
      <point x="1026" y="1133" type="line"/>
      <point x="739" y="1133" type="line"/>
      <point x="692" y="997" type="line"/>
      <point x="688" y="997" type="line"/>
      <point x="655" y="1108"/>
      <point x="602" y="1153"/>
      <point x="489" y="1153" type="curve" smooth="yes"/>
      <point x="174" y="1153"/>
      <point x="27" y="598"/>
      <point x="27" y="303" type="curve" smooth="yes"/>
      <point x="27" y="98"/>
      <point x="119" y="-20"/>
      <point x="256" y="-20" type="curve" smooth="yes"/>
      <point x="346" y="-20"/>
      <point x="412" y="6"/>
      <point x="481" y="96" type="curve"/>
      <point x="487" y="96" type="line"/>
      <point x="465" y="23"/>
      <point x="446" y="-51"/>
      <point x="438" y="-86" type="curve" smooth="yes"/>
      <point x="428" y="-135" type="line" smooth="yes"/>
      <point x="420" y="-176"/>
      <point x="414" y="-231"/>
      <point x="414" y="-281" type="curve" smooth="yes"/>
      <point x="414" y="-393"/>
      <point x="502" y="-496"/>
    </contour>
    <contour>
      <point x="416" y="264" type="curve" smooth="yes"/>
      <point x="383" y="264"/>
      <point x="367" y="301"/>
      <point x="367" y="377" type="curve" smooth="yes"/>
      <point x="367" y="535"/>
      <point x="444" y="868"/>
      <point x="543" y="868" type="curve" smooth="yes"/>
      <point x="584" y="868"/>
      <point x="606" y="836"/>
      <point x="606" y="780" type="curve" smooth="yes"/>
      <point x="606" y="602"/>
      <point x="537" y="264"/>
    </contour>
  </outline>
</glyph>
<glyph name="uni024C" format="2">
  <advance width="1034"/>
  <unicode hex="024C"/>
  <anchor x="403" y="0" name="bottom"/>
  <anchor x="713" y="1462" name="top"/>
  <outline>
    <contour>
      <point x="-10" y="0" type="line"/>
      <point x="332" y="0" type="line"/>
      <point x="444" y="543" type="line"/>
      <point x="467" y="543" type="line"/>
      <point x="565" y="0" type="line"/>
      <point x="944" y="0" type="line"/>
      <point x="788" y="614" type="line"/>
      <point x="956" y="690"/>
      <point x="1063" y="866"/>
      <point x="1063" y="1116" type="curve" smooth="yes"/>
      <point x="1063" y="1339"/>
      <point x="930" y="1462"/>
      <point x="629" y="1462" type="curve" smooth="yes"/>
      <point x="299" y="1462" type="line"/>
      <point x="164" y="819" type="line"/>
      <point x="61" y="819" type="line"/>
      <point x="2" y="543" type="line"/>
      <point x="104" y="543" type="line"/>
    </contour>
    <contour>
      <point x="506" y="819" type="line"/>
      <point x="580" y="1176" type="line"/>
      <point x="602" y="1176" type="line" smooth="yes"/>
      <point x="668" y="1176"/>
      <point x="700" y="1139"/>
      <point x="700" y="1069" type="curve" smooth="yes"/>
      <point x="700" y="954"/>
      <point x="649" y="819"/>
      <point x="535" y="819" type="curve" smooth="yes"/>
    </contour>
  </outline>
</glyph>
<glyph name="uni024F" format="2">
  <advance width="936"/>
  <unicode hex="024F"/>
  <anchor x="250" y="-492" name="bottom"/>
  <anchor x="584" y="1085" name="top"/>
  <outline>
    <contour>
      <point x="-18" y="444" type="line"/>
      <point x="911" y="444" type="line"/>
      <point x="967" y="702" type="line"/>
      <point x="37" y="702" type="line"/>
    </contour>
    <component base="y"/>
  </outline>
</glyph>
<glyph name="uni0250" format="2">
  <advance width="1012"/>
  <unicode hex="0250"/>
  <anchor x="391" y="0" name="bottom"/>
  <anchor x="621" y="1085" name="top"/>
  <outline>
    <contour>
      <point x="371" y="-20" type="curve" smooth="yes"/>
      <point x="487" y="-20"/>
      <point x="633" y="16"/>
      <point x="758" y="82" type="curve"/>
      <point x="723" y="328" type="line"/>
      <point x="610" y="270"/>
      <point x="528" y="244"/>
      <point x="463" y="244" type="curve" smooth="yes"/>
      <point x="406" y="244"/>
      <point x="377" y="272"/>
      <point x="377" y="330" type="curve" smooth="yes"/>
      <point x="377" y="344"/>
      <point x="379" y="362"/>
      <point x="383" y="383" type="curve" smooth="yes"/>
      <point x="389" y="412" type="line"/>
      <point x="539" y="418" type="line" smooth="yes"/>
      <point x="840" y="430"/>
      <point x="1012" y="616"/>
      <point x="1012" y="911" type="curve" smooth="yes"/>
      <point x="1012" y="1047"/>
      <point x="934" y="1153"/>
      <point x="784" y="1153" type="curve" smooth="yes"/>
      <point x="643" y="1153"/>
      <point x="578" y="1098"/>
      <point x="479" y="983" type="curve"/>
      <point x="473" y="983" type="line"/>
      <point x="451" y="1133" type="line"/>
      <point x="211" y="1133" type="line"/>
      <point x="59" y="414" type="line" smooth="yes"/>
      <point x="49" y="365"/>
      <point x="43" y="319"/>
      <point x="43" y="281" type="curve" smooth="yes"/>
      <point x="43" y="94"/>
      <point x="147" y="-20"/>
    </contour>
    <contour>
      <point x="434" y="627" type="line"/>
      <point x="457" y="727" type="line" smooth="yes"/>
      <point x="477" y="823"/>
      <point x="541" y="889"/>
      <point x="606" y="889" type="curve" smooth="yes"/>
      <point x="647" y="889"/>
      <point x="668" y="866"/>
      <point x="668" y="821" type="curve" smooth="yes"/>
      <point x="668" y="721"/>
      <point x="614" y="637"/>
      <point x="498" y="631" type="curve" smooth="yes"/>
    </contour>
  </outline>
</glyph>
<glyph name="uni0251" format="2">
  <advance width="1065"/>
  <unicode hex="0251"/>
  <anchor x="379" y="0" name="bottom"/>
  <anchor x="621" y="1133" name="top"/>
  <anchor x="1077" y="1133" name="topright"/>
  <outline>
    <contour>
      <point x="264" y="-20" type="curve" smooth="yes"/>
      <point x="375" y="-20"/>
      <point x="440" y="47"/>
      <point x="514" y="135" type="curve"/>
      <point x="522" y="135" type="line"/>
      <point x="526" y="35"/>
      <point x="616" y="-20"/>
      <point x="737" y="-20" type="curve" smooth="yes"/>
      <point x="852" y="-20"/>
      <point x="918" y="6"/>
      <point x="952" y="20" type="curve"/>
      <point x="952" y="289" type="line"/>
      <point x="924" y="272"/>
      <point x="901" y="266"/>
      <point x="889" y="266" type="curve" smooth="yes"/>
      <point x="868" y="266"/>
      <point x="854" y="272"/>
      <point x="854" y="305" type="curve" smooth="yes"/>
      <point x="854" y="322"/>
      <point x="860" y="358"/>
      <point x="866" y="387" type="curve" smooth="yes"/>
      <point x="1026" y="1133" type="line"/>
      <point x="739" y="1133" type="line"/>
      <point x="686" y="997" type="line"/>
      <point x="680" y="997" type="line"/>
      <point x="639" y="1112"/>
      <point x="563" y="1153"/>
      <point x="477" y="1153" type="curve" smooth="yes"/>
      <point x="166" y="1153"/>
      <point x="29" y="610"/>
      <point x="29" y="319" type="curve" smooth="yes"/>
      <point x="29" y="111"/>
      <point x="119" y="-20"/>
    </contour>
    <contour>
      <point x="412" y="256" type="curve" smooth="yes"/>
      <point x="383" y="256"/>
      <point x="367" y="295"/>
      <point x="367" y="371" type="curve" smooth="yes"/>
      <point x="367" y="516"/>
      <point x="440" y="868"/>
      <point x="545" y="868" type="curve" smooth="yes"/>
      <point x="586" y="868"/>
      <point x="606" y="834"/>
      <point x="606" y="758" type="curve" smooth="yes"/>
      <point x="606" y="719"/>
      <point x="602" y="670"/>
      <point x="573" y="543" type="curve" smooth="yes"/>
      <point x="547" y="426"/>
      <point x="500" y="256"/>
    </contour>
  </outline>
</glyph>
<glyph name="uni0254" format="2">
  <advance width="815"/>
  <unicode hex="0254"/>
  <anchor x="293" y="0" name="bottom"/>
  <anchor x="522" y="1085" name="top"/>
  <outline>
    <contour>
      <point x="229" y="-20" type="curve" smooth="yes"/>
      <point x="637" y="-20"/>
      <point x="782" y="444"/>
      <point x="782" y="784" type="curve" smooth="yes"/>
      <point x="782" y="1010"/>
      <point x="666" y="1153"/>
      <point x="457" y="1153" type="curve" smooth="yes"/>
      <point x="340" y="1153"/>
      <point x="217" y="1106"/>
      <point x="143" y="1051" type="curve"/>
      <point x="143" y="772" type="line"/>
      <point x="231" y="838"/>
      <point x="307" y="870"/>
      <point x="369" y="870" type="curve" smooth="yes"/>
      <point x="420" y="870"/>
      <point x="444" y="823"/>
      <point x="444" y="733" type="curve" smooth="yes"/>
      <point x="444" y="602"/>
      <point x="391" y="262"/>
      <point x="225" y="262" type="curve" smooth="yes"/>
      <point x="176" y="262"/>
      <point x="117" y="289"/>
      <point x="76" y="326" type="curve"/>
      <point x="-57" y="68" type="line"/>
      <point x="27" y="8"/>
      <point x="117" y="-20"/>
    </contour>
  </outline>
</glyph>
<glyph name="uni0255" format="2">
  <advance width="936"/>
  <unicode hex="0255"/>
  <anchor x="354" y="0" name="bottom"/>
  <anchor x="584" y="1085" name="top"/>
  <outline>
    <contour>
      <point x="254" y="-289" type="line"/>
      <point x="297" y="-180"/>
      <point x="334" y="-90"/>
      <point x="365" y="-14" type="curve"/>
      <point x="387" y="-18"/>
      <point x="410" y="-20"/>
      <point x="463" y="-20" type="curve" smooth="yes"/>
      <point x="725" y="-20"/>
      <point x="879" y="76"/>
      <point x="879" y="272" type="curve" smooth="yes"/>
      <point x="879" y="408"/>
      <point x="801" y="508"/>
      <point x="662" y="508" type="curve" smooth="yes"/>
      <point x="539" y="508"/>
      <point x="442" y="455"/>
      <point x="379" y="352" type="curve"/>
      <point x="377" y="367"/>
      <point x="375" y="383"/>
      <point x="375" y="399" type="curve" smooth="yes"/>
      <point x="375" y="530"/>
      <point x="428" y="870"/>
      <point x="594" y="870" type="curve" smooth="yes"/>
      <point x="643" y="870"/>
      <point x="702" y="844"/>
      <point x="743" y="807" type="curve"/>
      <point x="877" y="1065" type="line"/>
      <point x="793" y="1124"/>
      <point x="702" y="1153"/>
      <point x="590" y="1153" type="curve" smooth="yes"/>
      <point x="182" y="1153"/>
      <point x="37" y="688"/>
      <point x="37" y="438" type="curve" smooth="yes"/>
      <point x="37" y="184"/>
      <point x="121" y="88"/>
      <point x="217" y="35" type="curve"/>
      <point x="186" y="-39"/>
      <point x="150" y="-137"/>
      <point x="111" y="-236" type="curve"/>
    </contour>
    <contour>
      <point x="580" y="162" type="curve" smooth="yes"/>
      <point x="541" y="162"/>
      <point x="500" y="174"/>
      <point x="463" y="201" type="curve"/>
      <point x="518" y="301"/>
      <point x="557" y="326"/>
      <point x="608" y="326" type="curve" smooth="yes"/>
      <point x="641" y="326"/>
      <point x="674" y="303"/>
      <point x="674" y="258" type="curve" smooth="yes"/>
      <point x="674" y="195"/>
      <point x="631" y="162"/>
    </contour>
  </outline>
</glyph>
<glyph name="uni0257" format="2">
  <advance width="997"/>
  <unicode hex="0257"/>
  <anchor x="385" y="0" name="bottom"/>
  <anchor x="719" y="1577" name="top"/>
  <outline>
    <contour>
      <point x="264" y="-20" type="curve" smooth="yes"/>
      <point x="369" y="-20"/>
      <point x="422" y="29"/>
      <point x="502" y="117" type="curve"/>
      <point x="510" y="117" type="line"/>
      <point x="518" y="0" type="line"/>
      <point x="784" y="0" type="line"/>
      <point x="1042" y="1206" type="line" smooth="yes"/>
      <point x="1057" y="1272"/>
      <point x="1079" y="1290"/>
      <point x="1116" y="1290" type="curve" smooth="yes"/>
      <point x="1141" y="1290"/>
      <point x="1165" y="1280"/>
      <point x="1176" y="1272" type="curve"/>
      <point x="1176" y="1552" type="line"/>
      <point x="1143" y="1565"/>
      <point x="1079" y="1577"/>
      <point x="1016" y="1577" type="curve" smooth="yes"/>
      <point x="852" y="1577"/>
      <point x="776" y="1499"/>
      <point x="737" y="1315" type="curve" smooth="yes"/>
      <point x="713" y="1196" type="line" smooth="yes"/>
      <point x="705" y="1161"/>
      <point x="694" y="1102"/>
      <point x="686" y="1024" type="curve"/>
      <point x="680" y="1024" type="line"/>
      <point x="637" y="1118"/>
      <point x="551" y="1153"/>
      <point x="457" y="1153" type="curve" smooth="yes"/>
      <point x="168" y="1153"/>
      <point x="29" y="596"/>
      <point x="29" y="319" type="curve" smooth="yes"/>
      <point x="29" y="111"/>
      <point x="119" y="-20"/>
    </contour>
    <contour>
      <point x="412" y="256" type="curve" smooth="yes"/>
      <point x="383" y="256"/>
      <point x="367" y="295"/>
      <point x="367" y="371" type="curve" smooth="yes"/>
      <point x="367" y="469"/>
      <point x="428" y="868"/>
      <point x="545" y="868" type="curve" smooth="yes"/>
      <point x="586" y="868"/>
      <point x="606" y="834"/>
      <point x="606" y="758" type="curve" smooth="yes"/>
      <point x="606" y="604"/>
      <point x="532" y="256"/>
    </contour>
  </outline>
</glyph>
<glyph name="uni0258" format="2">
  <advance width="944"/>
  <unicode hex="0258"/>
  <anchor x="358" y="0" name="bottom"/>
  <anchor x="588" y="1085" name="top"/>
  <outline>
    <contour>
      <point x="291" y="-20" type="curve" smooth="yes"/>
      <point x="768" y="-20"/>
      <point x="891" y="352"/>
      <point x="891" y="682" type="curve" smooth="yes"/>
      <point x="891" y="969"/>
      <point x="727" y="1151"/>
      <point x="469" y="1151" type="curve" smooth="yes"/>
      <point x="199" y="1151"/>
      <point x="76" y="971"/>
      <point x="76" y="813" type="curve" smooth="yes"/>
      <point x="76" y="627"/>
      <point x="154" y="510"/>
      <point x="494" y="465" type="curve" smooth="yes"/>
      <point x="516" y="461" type="line"/>
      <point x="483" y="309"/>
      <point x="430" y="244"/>
      <point x="299" y="244" type="curve" smooth="yes"/>
      <point x="195" y="244"/>
      <point x="117" y="268"/>
      <point x="27" y="332" type="curve"/>
      <point x="27" y="61" type="line"/>
      <point x="86" y="6"/>
      <point x="201" y="-20"/>
    </contour>
    <contour>
      <point x="565" y="694" type="curve"/>
      <point x="541" y="696" type="line" smooth="yes"/>
      <point x="414" y="709"/>
      <point x="375" y="762"/>
      <point x="375" y="803" type="curve" smooth="yes"/>
      <point x="375" y="852"/>
      <point x="408" y="895"/>
      <point x="457" y="895" type="curve" smooth="yes"/>
      <point x="528" y="895"/>
      <point x="571" y="836"/>
      <point x="571" y="756" type="curve" smooth="yes"/>
      <point x="571" y="739"/>
      <point x="569" y="709"/>
    </contour>
  </outline>
</glyph>
<glyph name="schwahook" format="2">
  <advance width="1403"/>
  <unicode hex="025A"/>
  <anchor x="336" y="-20" name="bottom"/>
  <anchor x="537" y="1151" name="top"/>
  <outline>
    <contour>
      <point x="336" y="-20" type="curve" smooth="yes"/>
      <point x="670" y="-20"/>
      <point x="840" y="274"/>
      <point x="893" y="573" type="curve"/>
      <point x="983" y="596" type="line"/>
      <point x="1008" y="440"/>
      <point x="1077" y="362"/>
      <point x="1198" y="362" type="curve" smooth="yes"/>
      <point x="1282" y="362"/>
      <point x="1356" y="399"/>
      <point x="1411" y="451" type="curve"/>
      <point x="1343" y="631" type="line"/>
      <point x="1313" y="606"/>
      <point x="1288" y="596"/>
      <point x="1243" y="596" type="curve" smooth="yes"/>
      <point x="1198" y="596"/>
      <point x="1182" y="635"/>
      <point x="1167" y="776" type="curve" smooth="yes"/>
      <point x="1157" y="870" type="line"/>
      <point x="905" y="803" type="line"/>
      <point x="895" y="1024"/>
      <point x="760" y="1151"/>
      <point x="537" y="1151" type="curve" smooth="yes"/>
      <point x="418" y="1151"/>
      <point x="303" y="1128"/>
      <point x="182" y="1049" type="curve"/>
      <point x="182" y="805" type="line"/>
      <point x="295" y="868"/>
      <point x="362" y="887"/>
      <point x="461" y="887" type="curve" smooth="yes"/>
      <point x="545" y="887"/>
      <point x="588" y="838"/>
      <point x="588" y="725" type="curve"/>
      <point x="557" y="717" type="line" smooth="yes"/>
      <point x="139" y="606"/>
      <point x="12" y="489"/>
      <point x="12" y="272" type="curve" smooth="yes"/>
      <point x="12" y="94"/>
      <point x="145" y="-20"/>
    </contour>
    <contour>
      <point x="383" y="236" type="curve" smooth="yes"/>
      <point x="342" y="236"/>
      <point x="311" y="264"/>
      <point x="311" y="305" type="curve" smooth="yes"/>
      <point x="311" y="360"/>
      <point x="346" y="436"/>
      <point x="532" y="489" type="curve" smooth="yes"/>
      <point x="582" y="504" type="line"/>
      <point x="537" y="322"/>
      <point x="440" y="236"/>
    </contour>
  </outline>
</glyph>
<glyph name="uni025F" format="2">
  <advance width="516"/>
  <unicode hex="025F"/>
  <anchor x="39" y="-492" name="bottom"/>
  <anchor x="391" y="1133" name="top"/>
  <anchor x="614" y="1133" name="topright"/>
  <outline>
    <contour>
      <point x="-104" y="-492" type="curve" smooth="yes"/>
      <point x="141" y="-492"/>
      <point x="229" y="-348"/>
      <point x="283" y="-92" type="curve" smooth="yes"/>
      <point x="397" y="444" type="line"/>
      <point x="496" y="444" type="line"/>
      <point x="551" y="702" type="line"/>
      <point x="451" y="702" type="line"/>
      <point x="543" y="1133" type="line"/>
      <point x="217" y="1133" type="line"/>
      <point x="125" y="702" type="line"/>
      <point x="37" y="702" type="line"/>
      <point x="-18" y="444" type="line"/>
      <point x="72" y="444" type="line"/>
      <point x="-37" y="-66" type="line" smooth="yes"/>
      <point x="-57" y="-162"/>
      <point x="-82" y="-205"/>
      <point x="-154" y="-205" type="curve" smooth="yes"/>
      <point x="-178" y="-205"/>
      <point x="-231" y="-197"/>
      <point x="-256" y="-184" type="curve"/>
      <point x="-256" y="-469" type="line"/>
      <point x="-201" y="-489"/>
      <point x="-154" y="-492"/>
    </contour>
  </outline>
</glyph>
<glyph name="uni0262" format="2">
  <advance width="973"/>
  <unicode hex="0262"/>
  <anchor x="373" y="0" name="bottom"/>
  <anchor x="635" y="1133" name="top"/>
  <anchor x="1004" y="1133" name="topright"/>
  <outline>
    <contour>
      <point x="393" y="-20" type="curve" smooth="yes"/>
      <point x="518" y="-20"/>
      <point x="666" y="-4"/>
      <point x="795" y="72" type="curve"/>
      <point x="915" y="645" type="line"/>
      <point x="514" y="645" type="line"/>
      <point x="459" y="389" type="line"/>
      <point x="565" y="389" type="line"/>
      <point x="535" y="246" type="line"/>
      <point x="508" y="240"/>
      <point x="483" y="236"/>
      <point x="461" y="236" type="curve" smooth="yes"/>
      <point x="403" y="236"/>
      <point x="375" y="289"/>
      <point x="375" y="399" type="curve" smooth="yes"/>
      <point x="375" y="600"/>
      <point x="463" y="877"/>
      <point x="618" y="877" type="curve" smooth="yes"/>
      <point x="684" y="877"/>
      <point x="768" y="850"/>
      <point x="823" y="813" type="curve"/>
      <point x="950" y="1065" type="line"/>
      <point x="852" y="1124"/>
      <point x="748" y="1153"/>
      <point x="616" y="1153" type="curve" smooth="yes"/>
      <point x="188" y="1153"/>
      <point x="37" y="688"/>
      <point x="37" y="348" type="curve" smooth="yes"/>
      <point x="37" y="123"/>
      <point x="154" y="-20"/>
    </contour>
  </outline>
</glyph>
<glyph name="uni0263" format="2">
  <advance width="936"/>
  <unicode hex="0263"/>
  <anchor x="250" y="-492" name="bottom"/>
  <anchor x="584" y="1085" name="top"/>
  <outline>
    <contour>
      <point x="279" y="-492" type="curve" smooth="yes"/>
      <point x="504" y="-492"/>
      <point x="616" y="-317"/>
      <point x="616" y="-92" type="curve" smooth="yes"/>
      <point x="616" y="20"/>
      <point x="604" y="111"/>
      <point x="580" y="203" type="curve"/>
      <point x="1051" y="1133" type="line"/>
      <point x="705" y="1133" type="line"/>
      <point x="508" y="688" type="line" smooth="yes"/>
      <point x="492" y="651"/>
      <point x="477" y="602"/>
      <point x="471" y="567" type="curve"/>
      <point x="463" y="567" type="line"/>
      <point x="469" y="637"/>
      <point x="471" y="709"/>
      <point x="469" y="776" type="curve" smooth="yes"/>
      <point x="455" y="1133" type="line"/>
      <point x="127" y="1133" type="line"/>
      <point x="203" y="229" type="line"/>
      <point x="63" y="53"/>
      <point x="4" y="-117"/>
      <point x="4" y="-238" type="curve" smooth="yes"/>
      <point x="4" y="-403"/>
      <point x="82" y="-492"/>
    </contour>
    <contour>
      <point x="287" y="-291" type="curve" smooth="yes"/>
      <point x="270" y="-291"/>
      <point x="260" y="-268"/>
      <point x="260" y="-231" type="curve" smooth="yes"/>
      <point x="260" y="-172"/>
      <point x="305" y="-45"/>
      <point x="354" y="31" type="curve"/>
      <point x="360" y="4"/>
      <point x="365" y="-23"/>
      <point x="365" y="-76" type="curve" smooth="yes"/>
      <point x="365" y="-207"/>
      <point x="332" y="-291"/>
    </contour>
  </outline>
</glyph>
<glyph name="uni0265" format="2">
  <advance width="1006"/>
  <unicode hex="0265"/>
  <anchor x="285" y="-492" name="bottom"/>
  <anchor x="618" y="1085" name="top"/>
  <outline>
    <contour>
      <point x="358" y="-492" type="line"/>
      <point x="686" y="-492" type="line"/>
      <point x="1034" y="1133" type="line"/>
      <point x="705" y="1133" type="line"/>
      <point x="571" y="498" type="line" smooth="yes"/>
      <point x="532" y="317"/>
      <point x="483" y="274"/>
      <point x="444" y="274" type="curve" smooth="yes"/>
      <point x="399" y="274"/>
      <point x="385" y="309"/>
      <point x="385" y="346" type="curve" smooth="yes"/>
      <point x="385" y="395"/>
      <point x="393" y="446"/>
      <point x="406" y="502" type="curve" smooth="yes"/>
      <point x="539" y="1133" type="line"/>
      <point x="211" y="1133" type="line"/>
      <point x="57" y="410" type="line" smooth="yes"/>
      <point x="47" y="356"/>
      <point x="39" y="297"/>
      <point x="39" y="250" type="curve" smooth="yes"/>
      <point x="39" y="86"/>
      <point x="125" y="-20"/>
      <point x="272" y="-20" type="curve" smooth="yes"/>
      <point x="375" y="-20"/>
      <point x="444" y="25"/>
      <point x="504" y="109" type="curve"/>
      <point x="510" y="109" type="line"/>
      <point x="481" y="29"/>
      <point x="453" y="-61"/>
      <point x="436" y="-139" type="curve" smooth="yes"/>
    </contour>
  </outline>
</glyph>
<glyph name="uni0266" format="2">
  <advance width="1006"/>
  <unicode hex="0266"/>
  <anchor x="389" y="0" name="bottom"/>
  <anchor x="723" y="1577" name="top"/>
  <outline>
    <contour>
      <point x="-27" y="0" type="line"/>
      <point x="303" y="0" type="line"/>
      <point x="436" y="635" type="line" smooth="yes"/>
      <point x="475" y="815"/>
      <point x="524" y="858"/>
      <point x="563" y="858" type="curve" smooth="yes"/>
      <point x="608" y="858"/>
      <point x="623" y="823"/>
      <point x="623" y="786" type="curve" smooth="yes"/>
      <point x="623" y="737"/>
      <point x="614" y="686"/>
      <point x="602" y="631" type="curve" smooth="yes"/>
      <point x="469" y="0" type="line"/>
      <point x="797" y="0" type="line"/>
      <point x="950" y="723" type="line" smooth="yes"/>
      <point x="961" y="776"/>
      <point x="969" y="836"/>
      <point x="969" y="883" type="curve" smooth="yes"/>
      <point x="969" y="1047"/>
      <point x="883" y="1153"/>
      <point x="735" y="1153" type="curve" smooth="yes"/>
      <point x="633" y="1153"/>
      <point x="563" y="1108"/>
      <point x="504" y="1024" type="curve"/>
      <point x="498" y="1024" type="line"/>
      <point x="526" y="1104"/>
      <point x="539" y="1133"/>
      <point x="555" y="1192" type="curve" smooth="yes"/>
      <point x="559" y="1206" type="line"/>
      <point x="573" y="1272"/>
      <point x="596" y="1290"/>
      <point x="633" y="1290" type="curve" smooth="yes"/>
      <point x="657" y="1290"/>
      <point x="682" y="1280"/>
      <point x="692" y="1272" type="curve"/>
      <point x="692" y="1552" type="line"/>
      <point x="659" y="1565"/>
      <point x="596" y="1577"/>
      <point x="532" y="1577" type="curve" smooth="yes"/>
      <point x="369" y="1577"/>
      <point x="293" y="1499"/>
      <point x="254" y="1315" type="curve" smooth="yes"/>
    </contour>
  </outline>
</glyph>
<glyph name="uni026A" format="2">
  <advance width="719"/>
  <unicode hex="026A"/>
  <anchor x="246" y="0" name="bottom"/>
  <anchor x="475" y="1085" name="top"/>
  <outline>
    <contour>
      <point x="-76" y="0" type="line"/>
      <point x="555" y="0" type="line"/>
      <point x="592" y="176" type="line"/>
      <point x="457" y="258" type="line"/>
      <point x="588" y="874" type="line"/>
      <point x="758" y="956" type="line"/>
      <point x="795" y="1133" type="line"/>
      <point x="164" y="1133" type="line"/>
      <point x="127" y="956" type="line"/>
      <point x="258" y="874" type="line"/>
      <point x="127" y="258" type="line"/>
      <point x="-39" y="176" type="line"/>
    </contour>
  </outline>
</glyph>
<glyph name="uni026B" format="2">
  <advance width="872"/>
  <unicode hex="026B"/>
  <anchor x="322" y="0" name="bottom"/>
  <anchor x="651" y="1556" name="top"/>
  <outline>
    <contour>
      <point x="154" y="0" type="line"/>
      <point x="483" y="0" type="line"/>
      <point x="614" y="616" type="line"/>
      <point x="635" y="610"/>
      <point x="657" y="606"/>
      <point x="682" y="606" type="curve" smooth="yes"/>
      <point x="784" y="606"/>
      <point x="897" y="690"/>
      <point x="938" y="948" type="curve"/>
      <point x="756" y="948" type="line"/>
      <point x="739" y="877"/>
      <point x="717" y="850"/>
      <point x="684" y="850" type="curve" smooth="yes"/>
      <point x="678" y="850"/>
      <point x="672" y="852"/>
      <point x="664" y="854" type="curve"/>
      <point x="813" y="1556" type="line"/>
      <point x="485" y="1556" type="line"/>
      <point x="354" y="936" type="line"/>
      <point x="332" y="942"/>
      <point x="309" y="946"/>
      <point x="281" y="946" type="curve" smooth="yes"/>
      <point x="121" y="946"/>
      <point x="63" y="788"/>
      <point x="29" y="604" type="curve"/>
      <point x="211" y="604" type="line"/>
      <point x="225" y="678"/>
      <point x="256" y="702"/>
      <point x="281" y="702" type="curve" smooth="yes"/>
      <point x="289" y="702"/>
      <point x="295" y="700"/>
      <point x="303" y="698" type="curve"/>
    </contour>
  </outline>
</glyph>
<glyph name="uni026C" format="2">
  <advance width="829"/>
  <unicode hex="026C"/>
  <anchor x="301" y="0" name="bottom"/>
  <anchor x="631" y="1556" name="top"/>
  <outline>
    <contour>
      <point x="184" y="0" type="line"/>
      <point x="514" y="0" type="line"/>
      <point x="629" y="537" type="line"/>
      <point x="782" y="537" type="line"/>
      <point x="827" y="745" type="line"/>
      <point x="672" y="745" type="line"/>
      <point x="844" y="1556" type="line"/>
      <point x="516" y="1556" type="line"/>
      <point x="410" y="1057" type="line"/>
      <point x="383" y="1063"/>
      <point x="354" y="1065"/>
      <point x="324" y="1065" type="curve" smooth="yes"/>
      <point x="152" y="1065"/>
      <point x="49" y="936"/>
      <point x="49" y="780" type="curve" smooth="yes"/>
      <point x="49" y="649"/>
      <point x="106" y="537"/>
      <point x="297" y="537" type="curve" smooth="yes"/>
      <point x="299" y="537" type="line"/>
    </contour>
    <contour>
      <point x="328" y="745" type="line" smooth="yes"/>
      <point x="262" y="745"/>
      <point x="244" y="764"/>
      <point x="244" y="811" type="curve" smooth="yes"/>
      <point x="244" y="848"/>
      <point x="266" y="872"/>
      <point x="299" y="872" type="curve" smooth="yes"/>
      <point x="332" y="872"/>
      <point x="354" y="856"/>
      <point x="354" y="815" type="curve" smooth="yes"/>
      <point x="354" y="807"/>
      <point x="354" y="797"/>
      <point x="352" y="786" type="curve" smooth="yes"/>
      <point x="344" y="745" type="line"/>
    </contour>
  </outline>
</glyph>
<glyph name="uni0271" format="2">
  <advance width="1485"/>
  <unicode hex="0271"/>
  <anchor x="524" y="-492" name="bottom"/>
  <anchor x="858" y="1133" name="top"/>
  <anchor x="1559" y="1133" name="topright"/>
  <outline>
    <contour>
      <point x="944" y="-492" type="curve" smooth="yes"/>
      <point x="1108" y="-492"/>
      <point x="1188" y="-414"/>
      <point x="1227" y="-229" type="curve" smooth="yes"/>
      <point x="1430" y="723" type="line" smooth="yes"/>
      <point x="1444" y="791"/>
      <point x="1452" y="854"/>
      <point x="1452" y="903" type="curve" smooth="yes"/>
      <point x="1452" y="1061"/>
      <point x="1372" y="1153"/>
      <point x="1225" y="1153" type="curve" smooth="yes"/>
      <point x="1126" y="1153"/>
      <point x="1030" y="1098"/>
      <point x="963" y="1014" type="curve"/>
      <point x="956" y="1014" type="line"/>
      <point x="920" y="1108"/>
      <point x="850" y="1153"/>
      <point x="731" y="1153" type="curve" smooth="yes"/>
      <point x="631" y="1153"/>
      <point x="541" y="1094"/>
      <point x="479" y="1004" type="curve"/>
      <point x="471" y="1004" type="line"/>
      <point x="477" y="1133" type="line"/>
      <point x="215" y="1133" type="line"/>
      <point x="-27" y="0" type="line"/>
      <point x="303" y="0" type="line"/>
      <point x="430" y="600" type="line" smooth="yes"/>
      <point x="451" y="707"/>
      <point x="498" y="858"/>
      <point x="571" y="858" type="curve" smooth="yes"/>
      <point x="602" y="858"/>
      <point x="616" y="836"/>
      <point x="616" y="786" type="curve" smooth="yes"/>
      <point x="616" y="750"/>
      <point x="606" y="688"/>
      <point x="594" y="629" type="curve" smooth="yes"/>
      <point x="461" y="0" type="line"/>
      <point x="788" y="0" type="line"/>
      <point x="915" y="600" type="line" smooth="yes"/>
      <point x="938" y="707"/>
      <point x="977" y="858"/>
      <point x="1055" y="858" type="curve" smooth="yes"/>
      <point x="1087" y="858"/>
      <point x="1102" y="834"/>
      <point x="1102" y="782" type="curve" smooth="yes"/>
      <point x="1102" y="745"/>
      <point x="1094" y="688"/>
      <point x="1081" y="629" type="curve" smooth="yes"/>
      <point x="924" y="-121" type="line" smooth="yes"/>
      <point x="909" y="-186"/>
      <point x="887" y="-205"/>
      <point x="850" y="-205" type="curve" smooth="yes"/>
      <point x="825" y="-205"/>
      <point x="801" y="-195"/>
      <point x="791" y="-186" type="curve"/>
      <point x="791" y="-467" type="line"/>
      <point x="823" y="-479"/>
      <point x="883" y="-492"/>
    </contour>
  </outline>
</glyph>
<glyph name="uni0272" format="2">
  <advance width="1006"/>
  <unicode hex="0272"/>
  <anchor x="285" y="-492" name="bottom"/>
  <anchor x="633" y="1139" name="top"/>
  <anchor x="1079" y="1126" name="topright"/>
  <outline>
    <contour>
      <point x="-25" y="-492" type="curve" smooth="yes"/>
      <point x="139" y="-492"/>
      <point x="215" y="-418"/>
      <point x="254" y="-229" type="curve" smooth="yes"/>
      <point x="426" y="584" type="line" smooth="yes"/>
      <point x="459" y="735"/>
      <point x="502" y="858"/>
      <point x="573" y="858" type="curve" smooth="yes"/>
      <point x="610" y="858"/>
      <point x="625" y="831"/>
      <point x="625" y="786" type="curve" smooth="yes"/>
      <point x="625" y="750"/>
      <point x="614" y="690"/>
      <point x="602" y="631" type="curve" smooth="yes"/>
      <point x="469" y="0" type="line"/>
      <point x="797" y="0" type="line"/>
      <point x="950" y="723" type="line" smooth="yes"/>
      <point x="965" y="795"/>
      <point x="969" y="846"/>
      <point x="969" y="887" type="curve" smooth="yes"/>
      <point x="969" y="1092"/>
      <point x="844" y="1153"/>
      <point x="723" y="1153" type="curve" smooth="yes"/>
      <point x="627" y="1153"/>
      <point x="545" y="1096"/>
      <point x="479" y="1001" type="curve"/>
      <point x="473" y="1001" type="line"/>
      <point x="477" y="1133" type="line"/>
      <point x="215" y="1133" type="line"/>
      <point x="-51" y="-121" type="line" smooth="yes"/>
      <point x="-66" y="-188"/>
      <point x="-88" y="-205"/>
      <point x="-125" y="-205" type="curve" smooth="yes"/>
      <point x="-150" y="-205"/>
      <point x="-174" y="-195"/>
      <point x="-184" y="-186" type="curve"/>
      <point x="-184" y="-467" type="line"/>
      <point x="-152" y="-479"/>
      <point x="-86" y="-492"/>
    </contour>
  </outline>
</glyph>
<glyph name="uni0274" format="2">
  <advance width="1010"/>
  <unicode hex="0274"/>
  <anchor x="391" y="0" name="bottom"/>
  <anchor x="633" y="1139" name="top"/>
  <anchor x="1100" y="1126" name="topright"/>
  <outline>
    <contour>
      <point x="-27" y="0" type="line"/>
      <point x="303" y="0" type="line"/>
      <point x="362" y="279" type="line" smooth="yes"/>
      <point x="373" y="332"/>
      <point x="379" y="387"/>
      <point x="389" y="440" type="curve"/>
      <point x="489" y="0" type="line"/>
      <point x="797" y="0" type="line"/>
      <point x="1036" y="1133" type="line"/>
      <point x="709" y="1133" type="line"/>
      <point x="651" y="862" type="line" smooth="yes"/>
      <point x="641" y="815"/>
      <point x="633" y="766"/>
      <point x="627" y="719" type="curve"/>
      <point x="522" y="1133" type="line"/>
      <point x="215" y="1133" type="line"/>
    </contour>
  </outline>
</glyph>
<glyph name="omegaclosed" format="2">
  <advance width="1481"/>
  <unicode hex="0277"/>
  <anchor x="627" y="0" name="bottom"/>
  <anchor x="856" y="1085" name="top"/>
  <outline>
    <contour>
      <point x="362" y="-20" type="curve" smooth="yes"/>
      <point x="502" y="-20"/>
      <point x="612" y="53"/>
      <point x="674" y="172" type="curve"/>
      <point x="680" y="172" type="line"/>
      <point x="702" y="82"/>
      <point x="760" y="-20"/>
      <point x="938" y="-20" type="curve" smooth="yes"/>
      <point x="1255" y="-20"/>
      <point x="1415" y="260"/>
      <point x="1415" y="602" type="curve" smooth="yes"/>
      <point x="1415" y="915"/>
      <point x="1204" y="1153"/>
      <point x="799" y="1153" type="curve" smooth="yes"/>
      <point x="248" y="1153"/>
      <point x="35" y="731"/>
      <point x="35" y="371" type="curve" smooth="yes"/>
      <point x="35" y="115"/>
      <point x="131" y="-20"/>
    </contour>
    <contour>
      <point x="442" y="256" type="curve" smooth="yes"/>
      <point x="401" y="256"/>
      <point x="362" y="281"/>
      <point x="367" y="393" type="curve" smooth="yes"/>
      <point x="379" y="674"/>
      <point x="504" y="877"/>
      <point x="776" y="877" type="curve" smooth="yes"/>
      <point x="977" y="877"/>
      <point x="1083" y="770"/>
      <point x="1083" y="575" type="curve" smooth="yes"/>
      <point x="1083" y="455"/>
      <point x="1051" y="256"/>
      <point x="948" y="256" type="curve" smooth="yes"/>
      <point x="897" y="256"/>
      <point x="874" y="311"/>
      <point x="874" y="375" type="curve" smooth="yes"/>
      <point x="874" y="408"/>
      <point x="885" y="461"/>
      <point x="897" y="526" type="curve" smooth="yes"/>
      <point x="930" y="674" type="line"/>
      <point x="610" y="674" type="line"/>
      <point x="578" y="526" type="line" smooth="yes"/>
      <point x="541" y="356"/>
      <point x="508" y="256"/>
    </contour>
  </outline>
</glyph>
<glyph name="uni027B" format="2">
  <advance width="721"/>
  <unicode hex="027B"/>
  <anchor x="141" y="-492" name="bottom"/>
  <anchor x="475" y="1085" name="top"/>
  <outline>
    <contour>
      <point x="397" y="-492" type="curve" smooth="yes"/>
      <point x="477" y="-492"/>
      <point x="555" y="-479"/>
      <point x="594" y="-467" type="curve"/>
      <point x="594" y="-186" type="line"/>
      <point x="580" y="-197"/>
      <point x="549" y="-205"/>
      <point x="530" y="-205" type="curve" smooth="yes"/>
      <point x="506" y="-205"/>
      <point x="479" y="-197"/>
      <point x="479" y="-162" type="curve" smooth="yes"/>
      <point x="479" y="-139"/>
      <point x="485" y="-106"/>
      <point x="489" y="-90" type="curve" smooth="yes"/>
      <point x="750" y="1133" type="line"/>
      <point x="422" y="1133" type="line"/>
      <point x="303" y="563" type="line" smooth="yes"/>
      <point x="279" y="440"/>
      <point x="213" y="336"/>
      <point x="100" y="336" type="curve" smooth="yes"/>
      <point x="63" y="336"/>
      <point x="31" y="342"/>
      <point x="0" y="354" type="curve"/>
      <point x="-102" y="-6" type="line"/>
      <point x="-61" y="-18"/>
      <point x="-37" y="-20"/>
      <point x="-10" y="-20" type="curve" smooth="yes"/>
      <point x="106" y="-20"/>
      <point x="162" y="33"/>
      <point x="236" y="143" type="curve"/>
      <point x="244" y="143" type="line"/>
      <point x="215" y="90"/>
      <point x="186" y="16"/>
      <point x="170" y="-61" type="curve" smooth="yes"/>
      <point x="160" y="-104" type="line" smooth="yes"/>
      <point x="145" y="-172"/>
      <point x="137" y="-227"/>
      <point x="137" y="-276" type="curve" smooth="yes"/>
      <point x="137" y="-389"/>
      <point x="225" y="-492"/>
    </contour>
  </outline>
</glyph>
